<?xml version="1.0" encoding="utf-8"?>
<!-- Generator: Adobe Illustrator 22.0.1, SVG Export Plug-In . SVG Version: 6.00 Build 0)  -->
<svg version="1.1" xmlns="http://www.w3.org/2000/svg" xmlns:xlink="http://www.w3.org/1999/xlink" x="0px" y="0px"
	 viewBox="0 0 1370.6 400" style="enable-background:new 0 0 1370.6 400;" xml:space="preserve">
<style type="text/css">
	.st0{opacity:0.22;}
	.st1{fill:#33CCFF;}
	.st2{fill:#EFECEA;}
	.st3{fill:#FFFFFF;}
	.st4{fill:#BBBDBF;}
	.st5{fill:none;stroke:#404041;stroke-width:2.2073;stroke-miterlimit:10;}
	.st6{fill:#0078BF;}
	.st7{fill:#D1A67C;}
	.st8{fill:#C3996B;}
	.st9{fill:#FFC600;}
	.st10{fill:#32484C;}
	.st11{fill:#8E8262;}
	.st12{fill:#FF6666;}
	.st13{fill:#485F64;}
	.st14{fill:#A6A8AB;}
	.st15{fill:#B2C1CE;}
	.st16{fill:#00ACA0;}
	.st17{fill:#FC5A5E;}
	.st18{fill:#F9EC31;}
	.st19{fill:#1B75BB;}
	.st20{fill:#F6921E;}
	.st21{opacity:0.14;fill:#FFEC00;}
	.st22{fill:#EAAF0A;}
</style>
<g id="Layer_8">
</g>
<g id="Layer_9" class="st0">
	<path class="st1" d="M1072.2,0h-49.3c80.2,119.7,88.6,273.5,25.3,400.3h46.3c24.6-55.5,37.5-115.9,37.5-178.4
		C1132,142.7,1111.2,66.6,1072.2,0z"/>
	<path class="st1" d="M360.3,0h-49.2c-71.4,122.4-78.8,272.2-22.2,400.3H335C271.7,273.5,280.1,119.7,360.3,0z"/>
	<path class="st1" d="M207.7,399.3c-0.7,0.3-1.5,0.7-2.1,1h20.2C220.4,397.4,213.8,396.8,207.7,399.3z"/>
	<path class="st1" d="M176.4,232.1c0.2,0,0.3,0,0.4,0c11.3,0,20.6-9.1,20.8-20.4C199.2,137,217.3,65,250,0h-46.2
		C174,65.5,157.5,137,156,210.8C155.8,222.3,164.9,231.8,176.4,232.1z"/>
	<path class="st1" d="M1179.7,0h-46.3c58.9,116.4,69.6,252.9,25.8,381.6c-2.2,6.6-1,13.5,2.7,18.7h34c1.1-1.6,2.1-3.4,2.7-5.3
		C1243.9,262.3,1235.5,122,1179.7,0z"/>
	<path class="st1" d="M143.1,4.9c0.6-1.6,1-3.2,1.3-4.9h-44.1C51.2,131,47.9,271.3,85.9,400.3h43.6C89.2,273.4,92.1,133.9,143.1,4.9
		z"/>
	<path class="st1" d="M1265.2,359.2c-2.7,11.2,4.2,22.4,15.4,25.1c1.6,0.4,3.2,0.6,4.8,0.6c9.4,0,18-6.5,20.3-16
		c29.9-125.5,21.1-253.2-22.5-368.9h-44.8C1284.1,111.8,1294.4,236.7,1265.2,359.2z"/>
	<path class="st1" d="M550.1,356.5c18,18.5,39.6,33.5,63.7,43.8H626L550.1,356.5z"/>
	<path class="st1" d="M640.9,400.3l-105.9-61.1c4.7,6.1,9.7,11.8,15,17.3l75.9,43.8H640.9z"/>
	<path class="st1" d="M655.9,400.3l-131-75.7c3.2,5,6.6,9.8,10.2,14.5l105.9,61.1H655.9z"/>
	<path class="st1" d="M670.8,400.3l-153.6-88.7c2.4,4.4,4.9,8.8,7.6,13l131,75.7H670.8z"/>
	<path class="st1" d="M685.8,400.3L511.3,299.6c1.8,4.1,3.8,8.1,5.9,12.1l153.6,88.7H685.8z"/>
	<path class="st1" d="M700.7,400.3L506.6,288.2c1.4,3.8,3,7.6,4.7,11.3l174.5,100.7H700.7z"/>
	<path class="st1" d="M715.7,400.3L502.9,277.5c1.1,3.6,2.4,7.2,3.7,10.8l194.1,112.1H715.7z"/>
	<path class="st1" d="M730.6,400.3L500,267.2c0.9,3.5,1.9,6.9,2.9,10.3l212.8,122.8H730.6z"/>
	<path class="st1" d="M745.6,400.3L497.7,257.2c0.7,3.3,1.4,6.6,2.2,9.9l230.6,133.2H745.6z"/>
	<path class="st1" d="M760.5,400.3L496.1,247.6c0.5,3.2,1,6.4,1.7,9.6l247.8,143.1H760.5z"/>
	<path class="st1" d="M770,400.3c1-0.4,2.1-0.9,3.1-1.4L494.9,238.3c0.3,3.1,0.7,6.2,1.2,9.3l264.4,152.7H770z"/>
	<path class="st1" d="M781.3,395L494.2,229.3c0.2,3,0.4,6,0.7,9L773.1,399C775.8,397.7,778.6,396.4,781.3,395z"/>
	<path class="st1" d="M789,390.9L493.9,220.5c0,2.9,0.1,5.9,0.3,8.8L781.3,395C783.9,393.7,786.5,392.3,789,390.9z"/>
	<path class="st1" d="M796.4,386.5L494,211.9c-0.1,2.1-0.1,4.2-0.1,6.4c0,0.7,0,1.5,0,2.2L789,390.9
		C791.5,389.5,794,388,796.4,386.5z"/>
	<path class="st1" d="M803.4,381.9l-309-178.4c-0.2,2.8-0.3,5.6-0.4,8.4l302.4,174.6C798.8,385,801.1,383.5,803.4,381.9z"/>
	<path class="st1" d="M810.1,377.2L495.2,195.4c-0.3,2.7-0.6,5.4-0.8,8.2l309,178.4C805.7,380.4,807.9,378.8,810.1,377.2z"/>
	<path class="st1" d="M816.5,372.2L496.3,187.4c-0.4,2.7-0.8,5.3-1.1,8l314.9,181.8C812.3,375.6,814.4,373.9,816.5,372.2z"/>
	<path class="st1" d="M822.5,367.1L497.7,179.6c-0.5,2.6-1,5.2-1.4,7.8l320.1,184.8C818.5,370.6,820.5,368.8,822.5,367.1z"/>
	<path class="st1" d="M828.3,361.8L499.4,171.9c-0.6,2.5-1.2,5.1-1.7,7.7l324.8,187.5C824.5,365.4,826.4,363.6,828.3,361.8z"/>
	<path class="st1" d="M833.8,356.4l-332.5-192c-0.7,2.5-1.3,5-1.9,7.5l328.9,189.9C830.2,360,832,358.2,833.8,356.4z"/>
	<path class="st1" d="M839.1,350.8L503.6,157.1c-0.8,2.4-1.5,4.9-2.2,7.3l332.5,192C835.6,354.5,837.4,352.7,839.1,350.8z"/>
	<path class="st1" d="M844,345l-338-195.1c-0.9,2.4-1.7,4.8-2.5,7.2l335.5,193.7C840.8,348.9,842.4,347,844,345z"/>
	<path class="st1" d="M848.8,339.1l-340-196.3c-1,2.3-1.9,4.7-2.8,7L844,345C845.7,343.1,847.2,341.1,848.8,339.1z"/>
	<path class="st1" d="M853.3,333.1L511.8,135.9c-1,2.3-2,4.6-3,6.9l340,196.3C850.3,337.1,851.8,335.1,853.3,333.1z"/>
	<path class="st1" d="M857.5,326.9L515.1,129.2c-1.1,2.2-2.2,4.5-3.3,6.8l341.4,197.1C854.7,331,856.1,329,857.5,326.9z"/>
	<path class="st1" d="M861.5,320.6l-342.9-198c-1.2,2.2-2.4,4.4-3.5,6.6l342.4,197.7C858.9,324.8,860.2,322.7,861.5,320.6z"/>
	<path class="st1" d="M865.2,314.1l-342.9-198c-1.3,2.1-2.5,4.3-3.7,6.5l342.9,198C862.8,318.4,864,316.3,865.2,314.1z"/>
	<path class="st1" d="M868.7,307.5L526.3,109.8c-1.4,2.1-2.7,4.2-4,6.3l342.9,198C866.4,311.9,867.6,309.7,868.7,307.5z"/>
	<path class="st1" d="M872,300.7L530.5,103.6c-1.4,2-2.8,4.1-4.2,6.2l342.4,197.7C869.8,305.2,870.9,303,872,300.7z"/>
	<path class="st1" d="M875,293.8L535,97.6c-1.5,2-3,4-4.5,6L872,300.7C873,298.4,874,296.1,875,293.8z"/>
	<path class="st1" d="M877.7,286.8l-338-195.1c-1.6,1.9-3.2,3.9-4.7,5.9l340,196.3C875.9,291.5,876.8,289.2,877.7,286.8z"/>
	<path class="st1" d="M880.2,279.6L544.7,85.9c-1.7,1.9-3.4,3.8-5,5.8l338,195.1C878.6,284.4,879.4,282,880.2,279.6z"/>
	<path class="st1" d="M882.4,272.3L550,80.3c-1.8,1.8-3.5,3.7-5.2,5.6l335.5,193.7C881,277.2,881.7,274.7,882.4,272.3z"/>
	<path class="st1" d="M884.4,264.8L555.5,74.8c-1.9,1.8-3.7,3.6-5.5,5.5l332.5,192C883.1,269.8,883.8,267.3,884.4,264.8z"/>
	<path class="st1" d="M886.1,257.1L561.3,69.6c-2,1.7-3.9,3.5-5.8,5.3l328.9,189.9C885,262.2,885.6,259.7,886.1,257.1z"/>
	<path class="st1" d="M887.5,249.3L567.3,64.4c-2.1,1.7-4.1,3.4-6.1,5.1l324.8,187.5C886.6,254.5,887.1,251.9,887.5,249.3z"/>
	<path class="st1" d="M888.6,241.3L573.7,59.5c-2.2,1.6-4.3,3.3-6.4,5l320.1,184.8C887.9,246.6,888.2,244,888.6,241.3z"/>
	<path class="st1" d="M889.3,233.1l-309-178.4c-2.3,1.5-4.5,3.1-6.7,4.8l314.9,181.8C888.9,238.6,889.1,235.8,889.3,233.1z"/>
	<path class="st1" d="M889.8,224.7L587.4,50.1c-2.4,1.5-4.7,3-7,4.6l309,178.4C889.5,230.3,889.7,227.5,889.8,224.7z"/>
	<path class="st1" d="M889.9,218.3c0-0.7,0-1.5,0-2.2L594.8,45.8c-2.5,1.4-4.9,2.9-7.4,4.4l302.4,174.6
		C889.8,222.6,889.9,220.5,889.9,218.3z"/>
	<path class="st1" d="M889.6,207.3L602.5,41.6c-2.6,1.3-5.2,2.7-7.8,4.2l295.1,170.4C889.8,213.2,889.7,210.3,889.6,207.3z"/>
	<path class="st1" d="M888.9,198.3L610.7,37.7c-2.8,1.2-5.5,2.5-8.2,3.9l287.1,165.7C889.4,204.3,889.2,201.3,888.9,198.3z"/>
	<path class="st1" d="M887.7,189l-268.4-155c-2.9,1.1-5.8,2.4-8.6,3.6l278.2,160.6C888.6,195.2,888.2,192.1,887.7,189z"/>
	<path class="st1" d="M886.1,179.4L628.5,30.7c-3.1,1-6.1,2.2-9.1,3.3l268.4,155C887.2,185.8,886.7,182.6,886.1,179.4z"/>
	<path class="st1" d="M883.8,169.5L638.2,27.7c-3.3,0.9-6.5,1.9-9.7,3l257.6,148.7C885.4,176.1,884.6,172.8,883.8,169.5z"/>
	<path class="st1" d="M880.9,159.2L648.6,25.1c-3.5,0.8-7,1.6-10.4,2.6l245.6,141.8C882.9,166,882,162.6,880.9,159.2z"/>
	<path class="st1" d="M877.2,148.4L659.8,22.9c-3.8,0.6-7.5,1.3-11.2,2.2l232.3,134.1C879.8,155.6,878.5,152,877.2,148.4z"/>
	<path class="st1" d="M872.5,137.1L672,21.3c-4.1,0.4-8.1,1-12.2,1.6l217.3,125.5C875.7,144.6,874.2,140.8,872.5,137.1z"/>
	<path class="st1" d="M866.6,125L685.4,20.5c-4.5,0.1-9,0.4-13.4,0.9l200.5,115.8C870.7,133,868.7,129,866.6,125z"/>
	<path class="st1" d="M858.9,112L700.5,20.5c-2.9-0.1-5.7-0.2-8.6-0.2c-2.2,0-4.3,0-6.5,0.1L866.6,125
		C864.2,120.6,861.6,116.2,858.9,112z"/>
	<path class="st1" d="M848.7,97.5L718.1,22.1c-5.8-0.8-11.7-1.3-17.6-1.5L858.9,112C855.7,107,852.3,102.2,848.7,97.5z"/>
	<path class="st1" d="M833.7,80.2l-93.2-53.8c-7.3-1.8-14.8-3.3-22.4-4.3l130.6,75.4C844,91.4,839,85.6,833.7,80.2z"/>
	<path class="st1" d="M740.5,26.4l93.2,53.8C808.6,54.4,776.5,35.4,740.5,26.4z"/>
	<path class="st1" d="M418.1,218.3c0-89.5,43.7-169,110.8-218.3h-67.4c-54.5,56.7-88,133.7-88,218.3c0,67.7,21.5,130.5,57.9,182
		h57.1C444.8,352.2,418.1,288.3,418.1,218.3z"/>
	<path class="st1" d="M982.1,196c-12.3,0-22.3,10-22.3,22.3c0,70-26.7,133.9-70.4,182h57.1c36.5-51.5,57.9-114.3,57.9-182
		C1004.4,206,994.4,196,982.1,196z"/>
	<path class="st1" d="M929.7,94.2c5.7,11,19.1,15.2,30.1,9.6c10.9-5.7,15.2-19.1,9.6-30.1C955.1,46.3,937.4,21.6,916.8,0h-67.3
		C882.4,24.3,910.1,56.2,929.7,94.2z"/>
</g>
<g id="Table">
	<rect x="186.9" y="376.4" class="st2" width="996.9" height="23.9"/>
</g>
<g id="Calendar">
	<circle class="st3" cx="927.3" cy="129.2" r="40.1"/>
	<path class="st4" d="M927.3,171.5c-23.3,0-42.3-19-42.3-42.3s19-42.3,42.3-42.3c23.3,0,42.3,19,42.3,42.3S950.6,171.5,927.3,171.5z
		 M927.3,91.4c-20.9,0-37.9,17-37.9,37.9s17,37.9,37.9,37.9c20.9,0,37.9-17,37.9-37.9S948.2,91.4,927.3,91.4z"/>
	<polyline class="st5" points="897.3,129.2 927.3,129.2 949.3,107.2 	"/>
</g>
<g id="Layer_7">
	<rect x="237.6" y="232.6" class="st6" width="47.8" height="143.6"/>
	<g>
		<rect x="186.9" y="232.6" class="st1" width="47.8" height="143.6"/>
		<rect x="288.3" y="232.6" class="st1" width="47.8" height="143.6"/>
	</g>
	<g>
		<path class="st2" d="M261.5,343.7c-5.4,0-9.7,4.4-9.7,9.7s4.4,9.7,9.7,9.7s9.7-4.4,9.7-9.7S266.8,343.7,261.5,343.7z"/>
		<path class="st2" d="M210.7,343.7c-5.4,0-9.7,4.4-9.7,9.7s4.4,9.7,9.7,9.7s9.7-4.4,9.7-9.7S216.1,343.7,210.7,343.7z"/>
		<path class="st2" d="M312.2,343.7c-5.4,0-9.7,4.4-9.7,9.7s4.4,9.7,9.7,9.7s9.7-4.4,9.7-9.7S317.5,343.7,312.2,343.7z"/>
	</g>
	<g>
		<rect x="247.2" y="246.8" class="st2" width="28.1" height="88.5"/>
		<rect x="196.7" y="246.8" class="st2" width="28.1" height="88.5"/>
		<rect x="298.1" y="246.8" class="st2" width="28.1" height="88.5"/>
	</g>
</g>
<g id="Stickies">
	<g>
		<rect x="188.1" y="57.9" class="st7" width="199" height="132.5"/>
		<path class="st8" d="M391,194.3H184.2V54H391V194.3z M192,186.5h191.2V61.8H192V186.5z"/>
	</g>
	<g>
		<rect x="206.8" y="73.2" class="st9" width="29.1" height="29.1"/>
		<polygon class="st9" points="206.8,137.6 229.4,137.6 235.9,131.1 235.9,108.5 206.8,108.5 		"/>
		<polygon class="st9" points="242.1,73.2 242.1,102.3 264.8,102.3 271.2,95.9 271.2,73.2 		"/>
	</g>
	<rect x="258.9" y="128.7" class="st3" width="39.4" height="43.8"/>
	<rect x="262.7" y="132" class="st10" width="31.9" height="31.9"/>
	
		<rect x="270.3" y="120.1" transform="matrix(0.9632 -0.2686 0.2686 0.9632 -27.4765 83.1181)" class="st3" width="39.4" height="43.8"/>
	
		<rect x="273.3" y="123.4" transform="matrix(0.9632 -0.2686 0.2686 0.9632 -26.8167 82.8329)" class="st10" width="31.9" height="31.9"/>
	<circle class="st10" cx="221.3" cy="76.1" r="1.4"/>
	<circle class="st10" cx="221.3" cy="112.2" r="1.4"/>
	<circle class="st10" cx="257.1" cy="76.1" r="1.4"/>
	<circle class="st1" cx="285" cy="124" r="1.4"/>
	<rect x="321.8" y="77.4" class="st1" width="52.6" height="73.2"/>
	<g>
		<path class="st11" d="M230.2,78.8H211c-0.7,0-1.3,0.6-1.3,1.3s0.6,1.3,1.3,1.3h19.2c0.7,0,1.3-0.6,1.3-1.3S230.9,78.8,230.2,78.8z
			"/>
		<path class="st11" d="M211,87.5h16.5c0.7,0,1.3-0.6,1.3-1.3s-0.6-1.3-1.3-1.3H211c-0.7,0-1.3,0.6-1.3,1.3S210.3,87.5,211,87.5z"/>
		<path class="st11" d="M211,93.7h10.3c0.7,0,1.3-0.6,1.3-1.3c0-0.7-0.6-1.3-1.3-1.3H211c-0.7,0-1.3,0.6-1.3,1.3
			C209.7,93.1,210.3,93.7,211,93.7z"/>
		<path class="st11" d="M266.3,78.8h-19.2c-0.7,0-1.3,0.6-1.3,1.3s0.6,1.3,1.3,1.3h19.2c0.7,0,1.3-0.6,1.3-1.3S267,78.8,266.3,78.8z
			"/>
		<path class="st11" d="M257.4,85h-10.3c-0.7,0-1.3,0.6-1.3,1.3s0.6,1.3,1.3,1.3h10.3c0.7,0,1.3-0.6,1.3-1.3S258.1,85,257.4,85z"/>
		<path class="st11" d="M230.2,116.7H211c-0.7,0-1.3,0.6-1.3,1.3c0,0.7,0.6,1.3,1.3,1.3h19.2c0.7,0,1.3-0.6,1.3-1.3
			C231.5,117.2,230.9,116.7,230.2,116.7z"/>
		<path class="st11" d="M224.9,122.8H211c-0.7,0-1.3,0.6-1.3,1.3c0,0.7,0.6,1.3,1.3,1.3h13.9c0.7,0,1.3-0.6,1.3-1.3
			C226.2,123.4,225.6,122.8,224.9,122.8z"/>
	</g>
	<g>
		<path class="st6" d="M328.4,90.3h6v-6h-6V90.3z M329.3,85.2h4.3v4.3h-4.3V85.2z"/>
		<path class="st6" d="M328.4,99.7h6v-6h-6V99.7z M329.3,94.5h4.3v4.3h-4.3V94.5z"/>
		<path class="st6" d="M328.4,109.1h6v-6h-6V109.1z M329.3,103.9h4.3v4.3h-4.3V103.9z"/>
		<path class="st6" d="M328.4,118.4h6v-6h-6V118.4z M329.3,113.3h4.3v4.3h-4.3V113.3z"/>
		<path class="st6" d="M328.4,127.8h6v-6h-6V127.8z M329.3,122.6h4.3v4.3h-4.3V122.6z"/>
		<path class="st6" d="M338.7,88.4h28.8c0.5,0,0.9-0.4,0.9-0.9c0-0.5-0.4-0.9-0.9-0.9h-28.8c-0.5,0-0.9,0.4-0.9,0.9
			C337.8,88,338.2,88.4,338.7,88.4z"/>
		<path class="st6" d="M367.5,95.8h-28.8c-0.5,0-0.9,0.4-0.9,0.9c0,0.5,0.4,0.9,0.9,0.9h28.8c0.5,0,0.9-0.4,0.9-0.9
			C368.4,96.2,368,95.8,367.5,95.8z"/>
		<path class="st6" d="M367.5,105h-28.8c-0.5,0-0.9,0.4-0.9,0.9c0,0.5,0.4,0.9,0.9,0.9h28.8c0.5,0,0.9-0.4,0.9-0.9
			C368.4,105.4,368,105,367.5,105z"/>
		<path class="st6" d="M367.5,114.1h-28.8c-0.5,0-0.9,0.4-0.9,0.9c0,0.5,0.4,0.9,0.9,0.9h28.8c0.5,0,0.9-0.4,0.9-0.9
			C368.4,114.5,368,114.1,367.5,114.1z"/>
		<path class="st6" d="M367.5,123.3h-28.8c-0.5,0-0.9,0.4-0.9,0.9c0,0.5,0.4,0.9,0.9,0.9h28.8c0.5,0,0.9-0.4,0.9-0.9
			C368.4,123.7,368,123.3,367.5,123.3z"/>
	</g>
	<g>
		<polygon class="st12" points="332.1,88.2 330.7,86.8 331.2,86.4 332.1,87.4 335.5,84 335.9,84.4 		"/>
	</g>
</g>
<g id="Developer_Screen_Desktop">
	
		<rect x="339.2" y="279.4" transform="matrix(-0.9442 0.3293 -0.3293 -0.9442 762.741 474.2551)" class="st9" width="3.9" height="44.6"/>
	
		<rect x="370.9" y="279.4" transform="matrix(-0.9863 -0.1652 0.1652 -0.9863 690.8573 660.8816)" class="st10" width="3.9" height="44.6"/>
	
		<rect x="364" y="247.3" transform="matrix(-0.973 -0.2307 0.2307 -0.973 665.5685 635.235)" class="st8" width="11.9" height="62.8"/>
	<g>
		<polygon class="st6" points="365.6,276.4 365.8,275.4 364.5,275.2 364.8,272.7 363.4,272.5 363.1,275.1 364.2,275.2 361.9,274.9 
			356.1,319.1 360,319.6 365.5,277.6 365.9,277.6 364.5,288.3 365.7,288.4 367.3,276.6 		"/>
		<polygon class="st6" points="358.5,286.1 356.9,296.7 358.1,296.9 359.8,285.1 358.2,284.9 358.3,283.9 357.1,283.7 357.5,281.1 
			356.1,280.9 355.7,283.5 356.9,283.7 354.4,283.3 347.9,327.4 351.8,328 358,286.1 		"/>
	</g>
	<rect x="329" y="307.9" class="st12" width="48.7" height="69.5"/>
	<g>
		<path class="st2" d="M421.7,281.5v0.6c0,10.9,8.8,19.7,19.7,19.7H528v18.7h-23.1v3.6h94.8v-3.6h-23.1v-18.7h86.7
			c10.9,0,19.7-8.8,19.7-19.7v-0.6H421.7z"/>
		<path class="st2" d="M663.3,119.1h-222c-9.7,0-17.8,7.1-19.4,16.4h260.7C681.1,126.2,673,119.1,663.3,119.1z"/>
	</g>
	<polygon class="st13" points="403,324.1 403,377.4 441.7,377.4 451.6,356.6 654.2,356.6 662.9,377.4 701.6,377.4 701.6,324.1 	"/>
	<path class="st13" d="M421.9,135.5c-0.2,1.1-0.3,2.2-0.3,3.3v142.7h202.7v-146H421.9z"/>
	<path class="st13" d="M683,138.7c0-1.1-0.1-2.2-0.3-3.3h-0.6v146h0.9V138.7z"/>
	<rect x="624.4" y="135.5" class="st10" width="57.7" height="146"/>
	<g>
		<path class="st9" d="M451,158.3h-18.7c-1.1,0-2-0.9-2-2s0.9-2,2-2H451c1.1,0,2,0.9,2,2S452.1,158.3,451,158.3z"/>
	</g>
	<g>
		<path class="st12" d="M529,144.7h-21.1c-1.1,0-2,0.9-2,2s0.9,2,2,2H529c1.1,0,2-0.9,2-2S530.1,144.7,529,144.7z"/>
		<path class="st12" d="M513.2,202.3h-18.7c-1.1,0-2,0.9-2,2s0.9,2,2,2h18.7c1.1,0,2-0.9,2-2S514.3,202.3,513.2,202.3z"/>
	</g>
	<g>
		<path class="st14" d="M603.4,144.7h-66.6c-1.1,0-2,0.9-2,2s0.9,2,2,2h66.6c1.1,0,2-0.9,2-2S604.5,144.7,603.4,144.7z"/>
		<path class="st14" d="M459.4,158.3h53.9c1.1,0,2-0.9,2-2s-0.9-2-2-2h-53.9c-1.1,0-2,0.9-2,2S458.3,158.3,459.4,158.3z"/>
		<path class="st14" d="M486.2,202.3h-53.9c-1.1,0-2,0.9-2,2s0.9,2,2,2h53.9c1.1,0,2-0.9,2-2S487.3,202.3,486.2,202.3z"/>
		<path class="st14" d="M520.5,158.3h37.3c1.1,0,2-0.9,2-2s-0.9-2-2-2h-37.3c-1.1,0-2,0.9-2,2S519.4,158.3,520.5,158.3z"/>
		<path class="st14" d="M596.1,158.3c1.1,0,2-0.9,2-2s-0.9-2-2-2h-31c-1.1,0-2,0.9-2,2s0.9,2,2,2H596.1z"/>
		<path class="st14" d="M432.3,167.9h25.9c1.1,0,2-0.9,2-2s-0.9-2-2-2h-25.9c-1.1,0-2,0.9-2,2S431.2,167.9,432.3,167.9z"/>
		<path class="st14" d="M464.8,165.9c0,1.1,0.9,2,2,2h103c1.1,0,2-0.9,2-2s-0.9-2-2-2h-103C465.7,163.9,464.8,164.8,464.8,165.9z"/>
		<path class="st14" d="M600.4,163.9h-22.2c-1.1,0-2,0.9-2,2s0.9,2,2,2h22.2c1.1,0,2-0.9,2-2S601.5,163.9,600.4,163.9z"/>
		<path class="st14" d="M432.3,177.5h80.9c1.1,0,2-0.9,2-2s-0.9-2-2-2h-80.9c-1.1,0-2,0.9-2,2S431.2,177.5,432.3,177.5z"/>
		<path class="st14" d="M592.3,175.5c0-1.1-0.9-2-2-2h-69.8c-1.1,0-2,0.9-2,2s0.9,2,2,2h69.8C591.4,177.5,592.3,176.6,592.3,175.5z"
			/>
		<path class="st14" d="M432.3,187.1h15.1c1.1,0,2-0.9,2-2s-0.9-2-2-2h-15.1c-1.1,0-2,0.9-2,2S431.2,187.1,432.3,187.1z"/>
		<path class="st14" d="M454.2,183.1c-1.1,0-2,0.9-2,2s0.9,2,2,2H523c1.1,0,2-0.9,2-2s-0.9-2-2-2H454.2z"/>
		<path class="st14" d="M555.8,185.1c0-1.1-0.9-2-2-2h-23c-1.1,0-2,0.9-2,2s0.9,2,2,2h23C554.9,187.1,555.8,186.2,555.8,185.1z"/>
		<path class="st14" d="M599.4,183.1h-37.3c-1.1,0-2,0.9-2,2s0.9,2,2,2h37.3c1.1,0,2-0.9,2-2S600.5,183.1,599.4,183.1z"/>
		<path class="st14" d="M432.3,196.7h37.3c1.1,0,2-0.9,2-2s-0.9-2-2-2h-37.3c-1.1,0-2,0.9-2,2S431.2,196.7,432.3,196.7z"/>
		<path class="st14" d="M549.7,192.7h-72.8c-1.1,0-2,0.9-2,2s0.9,2,2,2h72.8c1.1,0,2-0.9,2-2S550.8,192.7,549.7,192.7z"/>
		<path class="st14" d="M596.1,192.7h-39.8c-1.1,0-2,0.9-2,2s0.9,2,2,2h39.8c1.1,0,2-0.9,2-2S597.2,192.7,596.1,192.7z"/>
	</g>
	<g>
		<path class="st1" d="M499.4,144.7h-67.1c-1.1,0-2,0.9-2,2s0.9,2,2,2h67.1c1.1,0,2-0.9,2-2S500.5,144.7,499.4,144.7z"/>
		<path class="st1" d="M566.6,202.3H523c-1.1,0-2,0.9-2,2s0.9,2,2,2h43.6c1.1,0,2-0.9,2-2S567.7,202.3,566.6,202.3z"/>
	</g>
</g>
<g id="Developer_Screen">
	<g>
		<path class="st2" d="M1002.7,315.3h-5v-8.1h-35v8.1H956v4.8h1.6l6.6,57.3h30.2l1.5-12.2c-6.6-0.9-11.8-6.6-11.8-13.4
			c0-7.5,6.1-13.6,13.6-13.6c0.5,0,1,0,1.5,0.1l2.3-18.2h1.2V315.3z"/>
		<path class="st1" d="M997.7,338.1c-7.5,0-13.6,6.1-13.6,13.6c0,6.9,5.1,12.6,11.8,13.4l3.3-26.9
			C998.7,338.2,998.2,338.1,997.7,338.1z"/>
		<polygon class="st15" points="957.6,319.9 1001.4,319.9 1000.3,329.1 958.6,329.1 		"/>
		<path class="st14" d="M928.1,366.1V237.7c0-8.7-7.1-15.8-15.8-15.8H722.9c-8.7,0-15.8,7.1-15.8,15.8v128.4H682
			c0,6.8,5.5,12.3,12.3,12.3h246.6c6.8,0,12.3-5.5,12.3-12.3H928.1z"/>
		<rect x="719.7" y="236.1" class="st13" width="195.3" height="120.2"/>
		<rect x="871.8" y="236.1" class="st10" width="43.2" height="120.2"/>
		<g>
			<path class="st9" d="M751,266.4h-21.3c-1.1,0-2-0.9-2-2s0.9-2,2-2H751c1.1,0,2,0.9,2,2S752.1,266.4,751,266.4z"/>
		</g>
		<g>
			<path class="st16" d="M780.2,266.4h-21.3c-1.1,0-2-0.9-2-2s0.9-2,2-2h21.3c1.1,0,2,0.9,2,2S781.3,266.4,780.2,266.4z"/>
		</g>
		<g>
			<path class="st14" d="M788.1,248.3h40.5c1.1,0,2-0.9,2-2s-0.9-2-2-2h-40.5c-1.1,0-2,0.9-2,2S787,248.3,788.1,248.3z"/>
			<path class="st14" d="M729.7,257.4h65.4c1.1,0,2-0.9,2-2c0-1.1-0.9-2-2-2h-65.4c-1.1,0-2,0.9-2,2
				C727.7,256.5,728.6,257.4,729.7,257.4z"/>
			<path class="st14" d="M801.9,255.4c0,1.1,0.9,2,2,2h34.6c1.1,0,2-0.9,2-2c0-1.1-0.9-2-2-2h-34.6
				C802.8,253.4,801.9,254.3,801.9,255.4z"/>
			<path class="st14" d="M811.4,264.4c0-1.1-0.9-2-2-2h-21.3c-1.1,0-2,0.9-2,2s0.9,2,2,2h21.3C810.5,266.4,811.4,265.5,811.4,264.4z
				"/>
			<path class="st14" d="M815.3,264.4c0,1.1,0.9,2,2,2h27.9c1.1,0,2-0.9,2-2s-0.9-2-2-2h-27.9C816.2,262.4,815.3,263.3,815.3,264.4z
				"/>
			<path class="st14" d="M729.7,275.5H751c1.1,0,2-0.9,2-2s-0.9-2-2-2h-21.3c-1.1,0-2,0.9-2,2S728.6,275.5,729.7,275.5z"/>
			<path class="st14" d="M758.9,271.5c-1.1,0-2,0.9-2,2s0.9,2,2,2h49.4c1.1,0,2-0.9,2-2s-0.9-2-2-2H758.9z"/>
			<path class="st14" d="M817.3,271.5c-1.1,0-2,0.9-2,2s0.9,2,2,2h21.3c1.1,0,2-0.9,2-2s-0.9-2-2-2H817.3z"/>
			<path class="st14" d="M729.7,284.6H751c1.1,0,2-0.9,2-2s-0.9-2-2-2h-21.3c-1.1,0-2,0.9-2,2S728.6,284.6,729.7,284.6z"/>
			<path class="st14" d="M822.8,280.6h-63.9c-1.1,0-2,0.9-2,2s0.9,2,2,2h63.9c1.1,0,2-0.9,2-2S823.9,280.6,822.8,280.6z"/>
			<path class="st14" d="M852.6,280.6h-21.3c-1.1,0-2,0.9-2,2s0.9,2,2,2h21.3c1.1,0,2-0.9,2-2S853.7,280.6,852.6,280.6z"/>
			<path class="st14" d="M776.2,289.6h-46.5c-1.1,0-2,0.9-2,2s0.9,2,2,2h46.5c1.1,0,2-0.9,2-2S777.3,289.6,776.2,289.6z"/>
		</g>
		<g>
			<path class="st12" d="M751,244.3h-21.3c-1.1,0-2,0.9-2,2s0.9,2,2,2H751c1.1,0,2-0.9,2-2S752.1,244.3,751,244.3z"/>
			<path class="st12" d="M809.4,289.6h-24.7c-1.1,0-2,0.9-2,2s0.9,2,2,2h24.7c1.1,0,2-0.9,2-2S810.5,289.6,809.4,289.6z"/>
		</g>
		<g>
			<path class="st1" d="M780.2,244.3h-21.3c-1.1,0-2,0.9-2,2s0.9,2,2,2h21.3c1.1,0,2-0.9,2-2S781.3,244.3,780.2,244.3z"/>
			<path class="st1" d="M838.6,289.6h-21.3c-1.1,0-2,0.9-2,2s0.9,2,2,2h21.3c1.1,0,2-0.9,2-2S839.7,289.6,838.6,289.6z"/>
		</g>
	</g>
</g>
<g id="Light">
	<g>
		<rect x="1113" y="364.3" class="st16" width="12.1" height="12.1"/>
		<rect x="1125.2" y="364.3" class="st17" width="12.1" height="12.1"/>
		<rect x="1137.3" y="364.3" class="st18" width="12.1" height="12.1"/>
		<rect x="1113" y="352.2" class="st18" width="12.1" height="12.1"/>
		<rect x="1125.2" y="352.2" class="st19" width="12.1" height="12.1"/>
		<rect x="1137.3" y="352.2" class="st19" width="12.1" height="12.1"/>
		<rect x="1113" y="340.1" class="st16" width="12.1" height="12.1"/>
		<rect x="1125.2" y="340.1" class="st20" width="12.1" height="12.1"/>
		<rect x="1137.3" y="340.1" class="st19" width="12.1" height="12.1"/>
	</g>
	<circle class="st21" cx="745.2" cy="163.5" r="88.9"/>
	<path class="st9" d="M759.7,157.1L759.7,157.1l-4.7-11.1h-19.7l-4.7,11.1h0c-1.2,2.2-1.8,4.8-1.8,7.5c0,9,7.3,16.3,16.3,16.3
		c9,0,16.3-7.3,16.3-16.3C761.6,161.9,760.9,159.4,759.7,157.1z"/>
	<polygon class="st13" points="752.7,119.3 746.2,119.3 746.2,-1 744.3,-1 744.3,119.3 737.7,119.3 735.4,146.1 755,146.1 	"/>
	<polygon class="st9" points="1095.4,276.7 1033,276.7 1039.6,377.8 1087.3,377.8 	"/>
	<path class="st22" d="M1095.3,276.7c0,2.9-15.4,5.2-32.1,5.2s-30.2-2.3-30.2-5.2s13.5-5.2,30.2-5.2S1095.3,273.8,1095.3,276.7z"/>
	<path class="st16" d="M1100,218.3c-15.6,5-30.2,42-34.2,53.2l-0.5,0c2.8-14.8,14.1-76.9,16.4-104.5c2.6-31.5,3.1-74.5-17.8-70.8
		c-21,3.7-17.3,43.5-17.3,43.5l14.6,130.8c-3.8-18.5-25.5-119.4-41.7-105.6c-17.4,14.7,35.7,102.1,38.4,106.6l0,0l0,0
		c0.1,0.1,0.1,0.2,0.1,0.2l0,0l2.5,3.3l7.2,0.1l2.4-3.7C1070.2,271.4,1118.4,212.4,1100,218.3z"/>
</g>
</svg>
