<svg xmlns="http://www.w3.org/2000/svg" xmlns:xlink="http://www.w3.org/1999/xlink" viewBox="0 0 1370.63 400"><defs><style>.cls-1,.cls-17{fill:none;}.cls-2{isolation:isolate;}.cls-3{opacity:0.22;}.cls-4{clip-path:url(#clip-path);}.cls-5{opacity:0.15;}.cls-6{fill:#3cf;}.cls-7{fill:#85e0ff;}.cls-8{clip-path:url(#clip-path-2);}.cls-9{fill:#71dbff;}.cls-10{fill:#99e5ff;}.cls-11{clip-path:url(#clip-path-3);}.cls-12{fill:#ffc600;}.cls-13{fill:#ffcd40;}.cls-14{fill:#fff;}.cls-15{fill:#abedff;}.cls-16{fill:#46c7f4;}.cls-17{stroke:#46c7f4;stroke-linecap:round;stroke-miterlimit:10;stroke-width:1.45px;stroke-dasharray:4.31 4.31;}.cls-18,.cls-20{fill:#b0a99f;}.cls-18,.cls-19{opacity:0.47;mix-blend-mode:multiply;}.cls-21{fill:#e8c69e;}.cls-22{fill:#bc835c;}.cls-23{fill:#af734a;}.cls-24{fill:#0078bf;}.cls-25{fill:#006ba0;}.cls-26{fill:#eabd81;}.cls-27{fill:#26a7aa;}.cls-28{fill:#fbc198;}.cls-29{fill:#eaa97d;}.cls-30{fill:#4edcca;}.cls-31{fill:#00aca0;}.cls-32{clip-path:url(#clip-path-4);}.cls-33{fill:#f66;}.cls-34{fill:#ed5454;}.cls-35{fill:#ddd;}.cls-36{fill:#939393;}.cls-37{fill:#82522a;}.cls-38{fill:#2d2d2d;}.cls-39{fill:#aaa;}.cls-40{fill:#424242;}.cls-41{fill:#555;}.cls-42{fill:#7b7b7b;}.cls-43{fill:#6c6c6c;}.cls-44{fill:#e20a39;}</style><clipPath id="clip-path"><rect class="cls-1" width="1370.61" height="399.99"/></clipPath><clipPath id="clip-path-2"><rect class="cls-1" x="133.59" y="-390.25" width="1103.54" height="1103.11"/></clipPath><clipPath id="clip-path-3"><path class="cls-1" d="M858.46,158.2a173,173,0,1,1-173-173,173,173,0,0,1,173,173"/></clipPath><clipPath id="clip-path-4"><rect class="cls-1" x="399.3" y="-1.55" width="936.33" height="401.29"/></clipPath></defs><title>Bountysource_SALTArtboard 1 copy 2</title><g class="cls-2"><g id="Light"><g class="cls-4"><g class="cls-5"><path class="cls-6" d="M873.86,493.93a18.21,18.21,0,0,1-9.4-33.82,349.38,349.38,0,0,0,67.08-52.48c135.83-135.82,135.83-356.81,0-492.63A347.37,347.37,0,0,0,700.34-186.7a18.22,18.22,0,0,1-17.42-19,18.22,18.22,0,0,1,19-17.42A384.79,384.79,0,0,1,1070,161.32a385.36,385.36,0,0,1-186.79,330,18,18,0,0,1-9.36,2.6Z"/><path class="cls-7" d="M582.78,531.55a18.28,18.28,0,0,1-5.08-.72,385.22,385.22,0,0,1-164.54-97.44c-150-150-150-394.13,0-544.15a383.36,383.36,0,0,1,190.38-104,18.52,18.52,0,0,1,3.89-.42,18.21,18.21,0,0,1,17.76,14.38,18.21,18.21,0,0,1-14,21.65A347,347,0,0,0,438.92-85c-135.82,135.82-135.82,356.81,0,492.63a348.64,348.64,0,0,0,148.93,88.2,18.22,18.22,0,0,1-5.07,35.72"/><path class="cls-6" d="M684.76,629.92c-121,0-240.06-47.24-330.47-137.65a465.54,465.54,0,0,1-101.74-152.2,18.22,18.22,0,1,1,33.68-13.9,428.93,428.93,0,0,0,93.82,140.34c134.43,134.43,337.74,165.4,505.89,77a18.21,18.21,0,1,1,16.95,32.24,468.07,468.07,0,0,1-218.13,54.14Z"/><path class="cls-6" d="M951.79,542A18.22,18.22,0,0,1,941,509.07a435.93,435.93,0,0,0,49.46-42.56,431.16,431.16,0,0,0,81.93-114.07A18.22,18.22,0,0,1,1105,368.57a467.37,467.37,0,0,1-88.84,123.7,473.79,473.79,0,0,1-53.6,46.12A18,18,0,0,1,951.79,542Z"/><g class="cls-8"><path class="cls-9" d="M1111,324.91a18.23,18.23,0,0,1-17.23-24.09c53.49-157.06,13.88-327.46-103.36-444.7C906.3-228,795.76-270.09,685.25-270.09S464.2-228,380-143.88A429.57,429.57,0,0,0,253.73,152.36a18.22,18.22,0,0,1-18.21,17.84h-.38a18.23,18.23,0,0,1-17.84-18.59,465.87,465.87,0,0,1,137-321.25c91.24-91.24,211.11-136.87,331-136.87s239.7,45.62,330.95,136.87c127.13,127.14,170.08,311.9,112.08,482.2A18.22,18.22,0,0,1,1111,324.91"/><path class="cls-10" d="M686.2,712.86c-145.35,0-287.12-57.58-391-161.49a551.64,551.64,0,0,1-123-593.06,18.22,18.22,0,0,1,17-11.52,18.09,18.09,0,0,1,6.68,1.28A18.21,18.21,0,0,1,206.05-28.3,515.21,515.21,0,0,0,320.93,525.61c97,97,229.49,150.83,365.25,150.83a510.94,510.94,0,0,0,76.52-5.75,18.79,18.79,0,0,1,2.78-.21,18.22,18.22,0,0,1,2.67,36.23,549,549,0,0,1-81.95,6.15"/><path class="cls-7" d="M1204.08,303.71a18.23,18.23,0,0,1-17.72-22.45c41.86-175.68-9.29-356.71-136.82-484.25a18.19,18.19,0,0,1,0-25.75,18.12,18.12,0,0,1,12.87-5.34,18.12,18.12,0,0,1,12.88,5.34c136.56,136.55,191.33,330.37,146.5,518.46a18.23,18.23,0,0,1-17.71,14"/></g><path class="cls-6" d="M858.46,158.2a173,173,0,1,1-173-173,173,173,0,0,1,173,173Z"/><g class="cls-11"><polygon class="cls-6" points="512.51 258.1 639.08 331.18 512.51 331.18 512.51 258.1 512.51 258.1"/><polygon class="cls-6" points="512.51 250.56 652.13 331.18 639.08 331.18 512.51 258.1 512.51 250.56 512.51 250.56"/><polygon class="cls-6" points="512.51 243.02 665.19 331.18 652.13 331.18 512.51 250.56 512.51 243.02 512.51 243.02"/><polygon class="cls-6" points="512.51 235.49 678.25 331.18 665.19 331.18 512.51 243.02 512.51 235.49 512.51 235.49"/><polygon class="cls-6" points="512.51 227.95 691.3 331.18 678.25 331.18 512.51 235.49 512.51 227.95 512.51 227.95"/><polygon class="cls-6" points="512.51 220.41 704.36 331.18 691.3 331.18 512.51 227.95 512.51 220.41 512.51 220.41"/><polygon class="cls-6" points="512.51 212.87 717.42 331.18 704.36 331.18 512.51 220.41 512.51 212.87 512.51 212.87"/><polygon class="cls-6" points="512.51 205.33 730.48 331.18 717.42 331.18 512.51 212.87 512.51 205.33 512.51 205.33"/><polygon class="cls-6" points="512.51 197.79 743.53 331.18 730.48 331.18 512.51 205.33 512.51 197.79 512.51 197.79"/><polygon class="cls-6" points="512.51 190.25 756.59 331.18 743.53 331.18 512.51 197.79 512.51 190.25 512.51 190.25"/><polygon class="cls-6" points="512.51 182.72 769.64 331.18 756.59 331.18 512.51 190.25 512.51 182.72 512.51 182.72"/><polygon class="cls-6" points="512.51 175.18 782.7 331.18 769.64 331.18 512.51 182.72 512.51 175.18 512.51 175.18"/><polygon class="cls-6" points="512.51 167.64 795.76 331.18 782.7 331.18 512.51 175.18 512.51 167.64 512.51 167.64"/><polygon class="cls-6" points="512.51 160.1 808.82 331.18 795.76 331.18 512.51 167.64 512.51 160.1 512.51 160.1"/><polygon class="cls-6" points="512.51 152.56 821.87 331.18 808.82 331.18 512.51 160.1 512.51 152.56 512.51 152.56"/><polygon class="cls-6" points="512.51 145.03 831.66 329.29 830.57 331.18 821.87 331.18 512.51 152.56 512.51 145.03 512.51 145.03"/><polygon class="cls-6" points="512.51 137.49 834.92 323.63 831.66 329.29 512.51 145.03 512.51 137.49 512.51 137.49"/><polygon class="cls-6" points="512.51 129.95 838.19 317.98 834.92 323.63 512.51 137.49 512.51 129.95 512.51 129.95"/><polygon class="cls-6" points="512.51 122.41 841.45 312.33 838.19 317.98 512.51 129.95 512.51 122.41 512.51 122.41"/><polygon class="cls-6" points="512.51 114.87 844.72 306.67 841.45 312.33 512.51 122.41 512.51 114.87 512.51 114.87"/><polygon class="cls-6" points="512.51 107.33 847.98 301.02 844.72 306.67 512.51 114.87 512.51 107.33 512.51 107.33"/><polygon class="cls-6" points="512.51 99.79 851.25 295.37 847.98 301.02 512.51 107.33 512.51 99.79 512.51 99.79"/><polygon class="cls-6" points="512.51 92.26 854.51 289.71 851.25 295.37 512.51 99.79 512.51 92.26 512.51 92.26"/><polygon class="cls-6" points="512.51 84.72 857.77 284.06 854.51 289.71 512.51 92.26 512.51 84.72 512.51 84.72"/><polygon class="cls-6" points="512.51 77.18 858.46 276.91 858.46 282.88 857.77 284.06 512.51 84.72 512.51 77.18 512.51 77.18"/><polygon class="cls-6" points="512.51 69.64 858.46 269.38 858.46 276.91 512.51 77.18 512.51 69.64 512.51 69.64"/><polygon class="cls-6" points="512.51 62.1 858.46 261.84 858.46 269.38 512.51 69.64 512.51 62.1 512.51 62.1"/><polygon class="cls-6" points="512.51 54.56 858.46 254.3 858.46 261.84 512.51 62.1 512.51 54.56 512.51 54.56"/><polygon class="cls-6" points="512.51 47.02 858.46 246.76 858.46 254.3 512.51 54.56 512.51 47.02 512.51 47.02"/><polygon class="cls-6" points="512.51 39.49 858.46 239.22 858.46 246.76 512.51 47.02 512.51 39.49 512.51 39.49"/><polygon class="cls-6" points="512.51 33.52 513.19 32.34 858.46 231.68 858.46 239.22 512.51 39.49 512.51 33.52 512.51 33.52"/><polygon class="cls-6" points="513.19 32.34 516.45 26.69 858.46 224.14 858.46 231.68 513.19 32.34 513.19 32.34"/><polygon class="cls-6" points="516.45 26.69 519.72 21.04 858.46 216.61 858.46 224.14 516.45 26.69 516.45 26.69"/><polygon class="cls-6" points="519.72 21.04 522.98 15.38 858.46 209.07 858.46 216.61 519.72 21.04 519.72 21.04"/><polygon class="cls-6" points="522.98 15.38 526.25 9.73 858.46 201.53 858.46 209.07 522.98 15.38 522.98 15.38"/><polygon class="cls-6" points="526.25 9.73 529.51 4.07 858.46 193.99 858.46 201.53 526.25 9.73 526.25 9.73"/><polygon class="cls-6" points="529.51 4.07 532.78 -1.58 858.46 186.45 858.46 193.99 529.51 4.07 529.51 4.07"/><polygon class="cls-6" points="532.78 -1.58 536.04 -7.23 858.46 178.91 858.46 186.45 532.78 -1.58 532.78 -1.58"/><polygon class="cls-6" points="536.04 -7.23 539.3 -12.89 858.46 171.38 858.46 178.91 536.04 -7.23 536.04 -7.23"/><polygon class="cls-6" points="539.3 -12.89 540.39 -14.78 549.09 -14.78 858.46 163.84 858.46 171.38 539.3 -12.89 539.3 -12.89"/><polygon class="cls-6" points="562.15 -14.78 858.46 156.3 858.46 163.84 549.09 -14.78 562.15 -14.78 562.15 -14.78"/><polygon class="cls-6" points="575.21 -14.78 858.46 148.76 858.46 156.3 562.15 -14.78 575.21 -14.78 575.21 -14.78"/><polygon class="cls-6" points="588.26 -14.78 858.46 141.22 858.46 148.76 575.21 -14.78 588.26 -14.78 588.26 -14.78"/><polygon class="cls-6" points="601.32 -14.78 858.46 133.68 858.46 141.22 588.26 -14.78 601.32 -14.78 601.32 -14.78"/><polygon class="cls-6" points="614.38 -14.78 858.46 126.14 858.46 133.68 601.32 -14.78 614.38 -14.78 614.38 -14.78"/><polygon class="cls-6" points="627.43 -14.78 858.46 118.61 858.46 126.14 614.38 -14.78 627.43 -14.78 627.43 -14.78"/><polygon class="cls-6" points="640.49 -14.78 858.46 111.07 858.46 118.61 627.43 -14.78 640.49 -14.78 640.49 -14.78"/><polygon class="cls-6" points="653.55 -14.78 858.46 103.53 858.46 111.07 640.49 -14.78 653.55 -14.78 653.55 -14.78"/><polygon class="cls-6" points="666.6 -14.78 858.46 95.99 858.46 103.53 653.55 -14.78 666.6 -14.78 666.6 -14.78"/><polygon class="cls-6" points="679.66 -14.78 858.46 88.45 858.46 95.99 666.6 -14.78 679.66 -14.78 679.66 -14.78"/><polygon class="cls-6" points="692.72 -14.78 858.46 80.92 858.46 88.45 679.66 -14.78 692.72 -14.78 692.72 -14.78"/><polygon class="cls-6" points="705.77 -14.78 858.46 73.38 858.46 80.92 692.72 -14.78 705.77 -14.78 705.77 -14.78"/><polygon class="cls-6" points="718.83 -14.78 858.46 65.84 858.46 73.38 705.77 -14.78 718.83 -14.78 718.83 -14.78"/><polygon class="cls-6" points="731.89 -14.78 858.46 58.3 858.46 65.84 718.83 -14.78 731.89 -14.78 731.89 -14.78"/><polygon class="cls-6" points="858.46 58.3 731.89 -14.78 858.46 -14.78 858.46 58.3 858.46 58.3"/></g><path class="cls-6" d="M682.9,433.77C531,433.77,407.34,310.15,407.34,158.2S531-117.37,682.9-117.37a274.8,274.8,0,0,1,245,149.21,19.49,19.49,0,1,1-34.62,17.9A236,236,0,0,0,682.9-78.39c-130.45,0-236.58,106.13-236.58,236.59S552.45,394.79,682.9,394.79,919.5,288.65,919.5,158.2a19.49,19.49,0,1,1,39,0c0,152-123.61,275.57-275.57,275.57Z"/></g><circle class="cls-12" cx="733.32" cy="197.07" r="15.02"/><circle class="cls-13" cx="733.32" cy="197.07" r="13.31"/><path class="cls-14" d="M735.49,205.45l-.7-2a6.07,6.07,0,0,1-3.34.18v-1.49a5.63,5.63,0,0,0,3.15-.15c1.41-.49,2.08-1.64,1.69-2.77s-1.4-1.49-3.07-1.58c-2.3-.08-3.87-.56-4.48-2.29a3.46,3.46,0,0,1,1.88-4.24l-.7-2,1.23-.43.68,1.92a5.63,5.63,0,0,1,2.82-.21l0,1.49a5,5,0,0,0-2.74.2c-1.52.53-1.78,1.65-1.5,2.44.36,1,1.27,1.29,3.25,1.4,2.33.12,3.73.79,4.34,2.56a3.66,3.66,0,0,1-2,4.47l.72,2.06Z"/><circle class="cls-12" cx="711.25" cy="175.18" r="15.02"/><circle class="cls-13" cx="711.25" cy="175.18" r="13.31"/><path class="cls-14" d="M707.26,182.87l.82-2a6.13,6.13,0,0,1-2.61-2.1l1-1.1a5.56,5.56,0,0,0,2.44,2c1.38.58,2.64.17,3.11-.93s0-2.05-1.23-3.23c-1.65-1.6-2.5-3-1.8-4.69a3.45,3.45,0,0,1,4.24-1.9l.82-2,1.2.5-.79,1.88a5.57,5.57,0,0,1,2.24,1.74l-1,1.07a5.13,5.13,0,0,0-2.17-1.68c-1.49-.62-2.43,0-2.75.81-.42,1,.08,1.81,1.48,3.22,1.66,1.65,2.24,3.08,1.52,4.81a3.65,3.65,0,0,1-4.44,2l-.85,2Z"/><circle class="cls-12" cx="704.88" cy="206.02" r="15.02"/><circle class="cls-13" cx="704.88" cy="206.02" r="13.31"/><path class="cls-14" d="M709.15,213.56,708,211.8a6.11,6.11,0,0,1-3.18,1l-.37-1.45a5.54,5.54,0,0,0,3-1,2.21,2.21,0,0,0,.91-3.11c-.65-1-1.73-1.08-3.37-.73-2.25.51-3.89.46-4.92-1.06a3.44,3.44,0,0,1,.73-4.58l-1.2-1.76,1.08-.73,1.15,1.69a5.53,5.53,0,0,1,2.67-.93l.35,1.44a5.09,5.09,0,0,0-2.6.9c-1.34.91-1.3,2.05-.82,2.75.61.9,1.56.92,3.5.51,2.29-.48,3.81-.19,4.86,1.35A3.67,3.67,0,0,1,709,211l1.23,1.81Z"/><circle class="cls-15" cx="649.66" cy="112.65" r="15.43"/><path class="cls-16" d="M650.64,117.25a6.86,6.86,0,0,0-.91.12h0l-.2,0-.43.11a5.34,5.34,0,0,1-.52.18,7.43,7.43,0,0,1-4.23,0,8.08,8.08,0,0,0,1.58,1.35l0,0,.2.12a6.87,6.87,0,0,0,2,.85,5.5,5.5,0,0,0,4.31-.76,7.15,7.15,0,0,0,1.64-1.45A7.41,7.41,0,0,0,650.64,117.25Z"/><path class="cls-16" d="M657,112a5.52,5.52,0,0,0,0-1.08,4.41,4.41,0,0,0-.24-1,5.9,5.9,0,0,0-1-1.84,7.08,7.08,0,0,0-1.68-1.48,7,7,0,0,0-2.77-1.1,6.34,6.34,0,0,0-1.37-.08h-.16l-.19,0h-.09l-.2,0h-.08l-.26,0h0l-.33.08-.27.08-.09,0h0a7.21,7.21,0,0,0-2.08,1.14,9,9,0,0,0-2,2.22,8.76,8.76,0,0,0-1.16,2.68,6.87,6.87,0,0,0-.12,2.7,6.54,6.54,0,0,0,.37,1.31,7.37,7.37,0,0,0,4.3,1.13l-.11-.06a3.7,3.7,0,0,1-1.28-1.31,3.42,3.42,0,0,1-.41-1.56,4.69,4.69,0,0,1,.27-1.63,6.89,6.89,0,0,1,.76-1.57,7.58,7.58,0,0,1,1.16-1.41,5.19,5.19,0,0,1,.75-.6l.16-.09h0l.15-.08,0,0,.12-.06.17-.08a3.56,3.56,0,0,1,1.59-.27,3.67,3.67,0,0,1,1.72.63l.08,0h0a3.38,3.38,0,0,1,.75.71,3.21,3.21,0,0,1,.5,1,3,3,0,0,1,.16,1h0a2,2,0,0,0,.9,1.75l1.4.9A5.76,5.76,0,0,0,657,112Z"/><circle class="cls-17" cx="649.66" cy="112.65" r="12.36" transform="translate(507.11 756.41) rotate(-87.35)"/><circle class="cls-15" cx="688.17" cy="224.96" r="15.43"/><path class="cls-16" d="M689.14,229.56a6.94,6.94,0,0,0-.9.12h0l-.2,0-.44.11a4.56,4.56,0,0,1-.52.18,7.39,7.39,0,0,1-4.22,0,7.8,7.8,0,0,0,1.58,1.35l0,0,.19.12a6.87,6.87,0,0,0,2,.85,5.61,5.61,0,0,0,2.23.07,5.72,5.72,0,0,0,2.09-.83,7.11,7.11,0,0,0,1.63-1.45A7.39,7.39,0,0,0,689.14,229.56Z"/><path class="cls-16" d="M695.49,224.34a5.53,5.53,0,0,0,0-1.08,5.82,5.82,0,0,0-.24-1,5.93,5.93,0,0,0-1-1.84,7.23,7.23,0,0,0-1.67-1.48,7,7,0,0,0-2.77-1.1,6.38,6.38,0,0,0-1.37-.08h-.17l-.19,0h-.09l-.19,0h-.08l-.27,0h0L687,218l-.26.08-.09,0h0a7.09,7.09,0,0,0-2.08,1.14,8.76,8.76,0,0,0-2,2.22,8.55,8.55,0,0,0-1.17,2.68,7.06,7.06,0,0,0-.11,2.7,5.44,5.44,0,0,0,.37,1.31,7.35,7.35,0,0,0,4.29,1.13l-.1-.06a3.62,3.62,0,0,1-1.28-1.31,3.43,3.43,0,0,1-.42-1.56,4.69,4.69,0,0,1,.27-1.63,6.93,6.93,0,0,1,.77-1.57,7.53,7.53,0,0,1,1.15-1.41,5.26,5.26,0,0,1,.76-.6l.15-.09h0l.15-.08,0,0,.11-.06.17-.08a3.63,3.63,0,0,1,1.6-.27,3.7,3.7,0,0,1,1.72.63l.08.06h0a3.08,3.08,0,0,1,.74.7,3,3,0,0,1,.51.95,3.31,3.31,0,0,1,.16,1h0v0a2,2,0,0,0,.9,1.74l1.4.9A5.74,5.74,0,0,0,695.49,224.34Z"/><circle class="cls-17" cx="688.17" cy="224.96" r="12.36" transform="translate(96.24 641.85) rotate(-53.26)"/><path class="cls-18" d="M902.17,399.74h-8.4c-3.06-17.83-13.12-61.78-41.53-95.11-8.32-9.76-21.15-17.88-35.43-28.08l-2.21,3.18L803.42,272l2.43-3.5-.74-.58-1-.77a10.36,10.36,0,0,0-5-1,40.2,40.2,0,0,0-9.35,1.4,10.7,10.7,0,0,1-5.14,1,20.64,20.64,0,0,1-12.51-4.31l-13.74-10.76c-3.13-2.45-3.13-2.45-8.48-6.49a15.76,15.76,0,0,1,5.22-4.69l-.13-.1h.06a1,1,0,0,0,.38-.16,12.19,12.19,0,0,1,3.47-1.39l-34.13-26.62a6.66,6.66,0,0,1-1.32-9.42,6.5,6.5,0,0,1,5.16-2.53,8.08,8.08,0,0,1,.85.05A7,7,0,0,0,732,206l34.2,26.68a12.71,12.71,0,0,0-3.65,1.45,15.86,15.86,0,0,0-5.42,4.81c5.35,4,5.34,4,8.48,6.49,0,0,7.17,5.63,13.73,10.76a20.7,20.7,0,0,0,12.52,4.32,10.77,10.77,0,0,0,5.13-1,40,40,0,0,1,9.36-1.41,10.35,10.35,0,0,1,5,1l1.73,1.34-2.44,3.5,11.18,7.78,2.21-3.17c14.28,10.2,27.12,18.32,35.43,28.07,36.49,42.81,42.71,103.14,42.71,103.14M764.59,214.63l-4.89-3.82a6.76,6.76,0,0,1,1.61-.2c.25,0,.5,0,.75,0a6.92,6.92,0,0,0,2.53,4m9.8-9.32-1.57-1.23a7.13,7.13,0,0,0-.81-.54,7,7,0,0,1,1.57-.18h.22a6.29,6.29,0,0,0,.59,1.95m12.69-6.9-2-1.57a6,6,0,0,1,.73,0c.23,0,.45,0,.68,0a5.49,5.49,0,0,0,.6,1.58"/><rect class="cls-1" x="399.3" y="-1.55" width="936.33" height="401.29"/><g class="cls-19"><path class="cls-20" d="M534.9,77.53c-16.51-13-48.32-39.22-65.65-62-4.39-5.77-8.31-11.49-11.82-17.1h-4.95c3.51,5.61,7.43,11.33,11.82,17.1,17.33,22.76,49.14,49,65.65,62l-2.06,3,11.19,7.77,1.61-2.32-7.85-5.45Z"/><path class="cls-20" d="M580.51,52.65a42.83,42.83,0,0,1-6.68,1.27,16.54,16.54,0,0,0,2.27.15,39.71,39.71,0,0,0,9.36-1.42,8.08,8.08,0,0,1,2.76-.87,19.18,19.18,0,0,0-2.56-.17A10.86,10.86,0,0,0,580.51,52.65Z"/><path class="cls-20" d="M559.06,42.78l-3.34-2.32-.58.83c1.1.77,2.21,1.55,3.32,2.35Z"/><path class="cls-20" d="M575.88,114.59l-14.77-11.5-5.11-4a7.68,7.68,0,0,1-1-1h0c-7.23-5-5.2-8.85-9.27-12.31L544,88.26l-2.65-1.83c3.25,3.3,1.83,7,8.65,11.73h0a7.68,7.68,0,0,0,1,1l5.11,4,14.77,11.5,9.37,7.3a6.9,6.9,0,0,0,4.26,1.48,6.53,6.53,0,0,0,2.47-.47,6.89,6.89,0,0,1-1.78-1Z"/><path class="cls-20" d="M595.46,113.74a6,6,0,0,1,.75,3.05l.57,0a7.09,7.09,0,0,0,2.49-.46,6.44,6.44,0,0,1-1.67-.94Z"/><path class="cls-20" d="M608.14,106.83a6.44,6.44,0,0,1,.66,2.71H609a6.68,6.68,0,0,0,2.46-.47,7.58,7.58,0,0,1-1.78-1Z"/><path class="cls-20" d="M642.36,116.53l-3.43-2.67-21-16.36a6.87,6.87,0,0,1,2.67,5.94l16.8,13.09.31.23a7,7,0,0,0,4,1.28,6.44,6.44,0,0,0,2.45-.48A7.14,7.14,0,0,1,642.36,116.53Z"/></g><path class="cls-18" d="M795.83,186.2A13.76,13.76,0,0,1,785,163.91a5.46,5.46,0,0,1-3.66-8.23l5.83-9.49h.16a5.75,5.75,0,0,1,2.8-3.49l8.31-4.49-.26-1.4-16.9,5.61-6.73,9.08A5.87,5.87,0,0,1,770,154a4.16,4.16,0,0,1-2.5-.8c-2.08-1.54-2.29-4.8-.45-7.27l6.94-9.37a5.85,5.85,0,0,1,.8-1.07l.35-.47.12,0a6.6,6.6,0,0,1,2.13-1.19l10.3-3.41,28.63-7.27v0l7.76-.61-5.92-6.16,7.76-7.45-2-2.07s48.75-38,58.09-55.8c5.22-10,8.22-36.27,9.64-52.62h39.67C928.8,22,924.11,55.83,917,69.16c-10.95,20.59-67.26,64.61-67.26,64.61l-2.15-2.24L839.85,139l-.25-.26a5.67,5.67,0,0,1-.88,3.61L819.5,172.42a5.75,5.75,0,0,1-8,1.75,6.15,6.15,0,0,1-2-2,13.77,13.77,0,0,1-13.74,14m0-27.51a13.74,13.74,0,0,1,12.37,7.74,12.54,12.54,0,0,1,.7,1.71,5.36,5.36,0,0,1,.71-1.71l8.27-13.06h0c2.86-6.16-2-7.3-5.94-7.3a26,26,0,0,0-4.36.39l-11.62,6.24-4,6.55a13.59,13.59,0,0,1,3.88-.56"/><path class="cls-21" d="M684.61,292.73v-8.27c0-4-2.72-7.68-7-9.35-.22-.1-.38-.18-.38-.25v2.4s-.32,7.85-.33,15.47h.33v1.45a1.81,1.81,0,0,0,3.61,0v-1.45Z"/><path class="cls-21" d="M684.85,307.58h-4a11,11,0,0,0,4.33,3.47c.18.07.36.34.55.4a14.57,14.57,0,0,1-.92-3.87Z"/><path class="cls-22" d="M726.72,268.63a6.46,6.46,0,0,0-6,3.79v-2.71a7,7,0,0,0-13.24-3v-2a6.69,6.69,0,1,0-13.38,0v-31a6.62,6.62,0,1,0-13.24,0v43.38a12.23,12.23,0,0,0-3.39-2,15.92,15.92,0,0,0-7.13-1.32c.11,6.7.1,6.7.1,10.67,0,0,0,9.12,0,17.45s5.25,14.75,8.27,15.94a37.91,37.91,0,0,0,7.52,1.75,1.33,1.33,0,0,0,1.08-.4l.45,0h38.88a6.45,6.45,0,0,0,6.82-6.68V275.46a6.73,6.73,0,0,0-6.71-6.83Z"/><polygon class="cls-23" points="729.28 333.93 687.82 333.93 687.82 316.67 729.28 316.67 729.28 333.93 729.28 333.93"/><polygon class="cls-14" points="729.28 339.41 687.82 339.41 687.82 319.22 729.28 319.22 729.28 339.41 729.28 339.41"/><polygon class="cls-24" points="733.43 399.74 683.53 399.74 683.53 333.93 733.43 333.93 733.43 399.74 733.43 399.74"/><polygon class="cls-25" points="733.43 399.74 715.24 399.74 715.24 333.93 733.43 333.93 733.43 399.74 733.43 399.74"/><path class="cls-26" d="M711.36,278.55a1.71,1.71,0,0,1-1.76,1.74h-.23a1.83,1.83,0,0,1-1.89-1.74V268.11a1.93,1.93,0,0,1,1.89-1.86h.23a1.81,1.81,0,0,1,1.76,1.86v10.44Z"/><path class="cls-23" d="M707.48,266.67v11.67a1.95,1.95,0,0,0,3.88,0V263.39a15.19,15.19,0,0,0-3.88,3.28Z"/><path class="cls-23" d="M694.1,264.67v11.88l.09-.1a2.13,2.13,0,0,0,2.08,1.53,2.09,2.09,0,0,0,2.11-1.79V258.65a6.21,6.21,0,0,0-4.28,6Z"/><path class="cls-23" d="M722.86,269.89h0c-1.2.65-2.14,1.51-2.14,2.52v9.16l.09-.09a2.07,2.07,0,0,0,2,1.53,2,2,0,0,0,2-1.8V269.11a4.06,4.06,0,0,0-2,.78Z"/><polygon class="cls-27" points="546.01 251.37 546.01 251.37 554.09 266.77 546.01 251.37 546.01 251.37"/><path class="cls-18" d="M627.57,245.15a6.86,6.86,0,0,0-9.85-2l-15.84,11.28h0a14.29,14.29,0,0,1-1.46.68c-10.26,4.07-8-13.14-8-13.14l7-15,8.91-6.15,1.68-1.17a6.79,6.79,0,0,0,1.7-9.5,6.67,6.67,0,0,0-.87-1,6.88,6.88,0,0,0-7.3-1.43,6.7,6.7,0,0,0-1.39.75l-11.53,8v.2l-.31.12a7.21,7.21,0,0,0-3.88,3.64l-5.07,10.76-1.77-.23,5.87-21.64,11-9.1c3-2.48,3.71-6.52,1.62-9a6,6,0,0,0-7-1.37,8.11,8.11,0,0,0-2.21,1.31l-11.3,9.39a6.91,6.91,0,0,0-1.29,1.08l-.57.47,0,.15a8.17,8.17,0,0,0-1.35,2.76l-3.58,13.2-1-8.51c-.39-3.38-3-5.85-5.86-5.52a4.35,4.35,0,0,0-1.13.28c-2.23.88-3.66,3.52-3.33,6.43L562.14,233l-6.57-11.53c-1.4-2.46-4.11-3.6-6.29-2.74a3.27,3.27,0,0,0-.5.24c-2.24,1.27-2.83,4.46-1.31,7.12l16.26,28.56h0l-.22,9.69-8.12-7-8.63,10-2.54-2.18L446.31,379.12l12.3,31,7.24,18.26,114-132.56-2.94-2.53,8.63-10-.45-.39a7.28,7.28,0,0,0,2.79-.5,7.48,7.48,0,0,0,1.56-.86l36.51-26.27A7.24,7.24,0,0,0,627.57,245.15Z"/><path class="cls-28" d="M585.64,182.78l-11.3,9.39a7.31,7.31,0,0,0-1.3,1.08l-.56.47,0,.15a8,8,0,0,0-1.35,2.76l-3.59,13.2-1-8.51c-.39-3.38-3-5.85-5.86-5.53s-4.85,3.34-4.46,6.72l2.54,22.17-6.56-11.52c-1.51-2.66-4.55-3.78-6.79-2.5s-2.83,4.46-1.32,7.12l16.27,28.56-.34,14.82,3,5.55c12.51,14.25,12.43,4.06,12.43,4.06a6.36,6.36,0,0,0,.49.78,7,7,0,0,0,1.73,1.7,7.23,7.23,0,0,0,8.38-.05l36.51-26.27a7.24,7.24,0,0,0,1.65-10.11c-2.34-3.25-6.6-4.29-9.85-1.95l-15.84,11.28h0c-11.93,6.33-9.42-12.46-9.42-12.46l7-15,10.6-7.32a6.85,6.85,0,1,0-7.86-11.21l-11.54,8,0,.21a7.22,7.22,0,0,0-4.19,3.76l-5.08,10.76-1.77-.23L582.24,201l11-9.1c3-2.48,3.71-6.52,1.62-9s-6.2-2.54-9.18-.06Z"/><polygon class="cls-14" points="569.83 289.35 539.7 263.45 552.09 249.05 582.21 274.95 569.83 289.35 569.83 289.35"/><path class="cls-29" d="M560.43,246.34l7.15-36.51-1-8.51c-.39-3.38-3-5.85-5.86-5.53s-4.85,3.34-4.46,6.72l2.54,22.17-6.56-11.52c-1.51-2.66-4.55-3.78-6.79-2.5s-2.83,4.46-1.32,7.12l16.27,28.56Z"/><polygon class="cls-30" points="563.33 276.18 540.92 256.91 403.01 414.85 455.31 401.82 563.33 276.18 563.33 276.18"/><polygon class="cls-31" points="461.74 422.61 573.32 283.06 563.33 276.18 455.31 401.82 462.55 420.08 461.74 422.61"/><rect class="cls-1" x="399.3" y="-1.55" width="936.33" height="401.29"/><path class="cls-28" d="M762.78,160.54a5.57,5.57,0,0,1,.07-8L774.15,142h0c6.87-8.3-8.21-9.29-8.21-9.29l-12.82,3.09-7.38,7.09a5.4,5.4,0,0,1-7.66-.19,5.46,5.46,0,0,1,.18-7.71l8-7.7.16,0a5.77,5.77,0,0,1,3.58-2.67l9.18-2.24.1-1.41-17.76,1.14-8.82,7.08c-2.4,1.93-5.66,1.85-7.28-.17s-1-5.22,1.4-7.15l9.1-7.3a5.71,5.71,0,0,1,1-.84l.46-.36.11,0a6.33,6.33,0,0,1,2.36-.61l10.83-.7,29.54.23h0l11.58,2.08,3.84,3.2c9.1,12,1.19,10.32,1.19,10.32a6.26,6.26,0,0,1,.53.5,5.76,5.76,0,0,1-.32,8.12l-26.22,24.24a5.75,5.75,0,0,1-8.13-.32Z"/><g class="cls-32"><polygon class="cls-14" points="812.23 126.33 796.96 98.97 783.8 106.32 799.07 133.67 812.23 126.33 812.23 126.33"/><path class="cls-33" d="M931.53-2.22H889.26s-15.81,49.09-27.13,61.53C848.58,74.2,791.8,98.57,791.8,98.57L810,131.14s65.63-28.32,81.43-45.46c16.38-17.76,40.12-87.9,40.12-87.9Z"/><path class="cls-34" d="M913.41-2.22c-7.94,21.6-23.24,60.47-34.84,73.05-13.55,14.7-63.76,37.63-77.77,43.85L810,131.14s65.63-28.32,81.43-45.46c16.38-17.76,40.12-87.9,40.12-87.9Z"/></g><path class="cls-28" d="M787.77,191.35a6.44,6.44,0,0,0-.69,7.06l-2.15-1.67a7,7,0,0,0-10.54,8.57l-1.57-1.23a6.69,6.69,0,1,0-8.23,10.55l-24.41-19A6.62,6.62,0,1,0,732,206l34.2,26.68a12.71,12.71,0,0,0-3.65,1.45,15.86,15.86,0,0,0-5.42,4.81c5.35,4,5.34,4,8.48,6.49,0,0,7.17,5.63,13.73,10.76s14.86,4.93,17.65,3.28c0,0,11.85-3.39,15.3.34,18.81,14.67,36.59,24.4,47.13,36.76,36.49,42.81,42.71,103.14,42.71,103.14l52.1.6s0-49.69-41-103.66c-24-31.5-75.6-69.7-76.17-70.15-4.39-3.52-2.15-7.37-9.51-12.52h0a9.19,9.19,0,0,0-1-.95l-5.11-4-14.76-11.51-9.37-7.31a6.73,6.73,0,0,0-9.52,1.09"/><path class="cls-26" d="M786.15,209.56a1.7,1.7,0,0,1,.29,2.45l-.14.19a1.83,1.83,0,0,1-2.53.42l-8.24-6.42a1.93,1.93,0,0,1-.3-2.64l.14-.18a1.81,1.81,0,0,1,2.55-.24l8.23,6.42Z"/><path class="cls-29" d="M774.39,205.31l.7.54,7.09,5.53,1.42,1.11a1.95,1.95,0,0,0,2.39-3.06l-7.19-5.6-1.33-1-3.27-2.55a15.13,15.13,0,0,0,.19,5.07Z"/><path class="cls-29" d="M764.59,214.63l.57.44,8.51,6.64.29.22,0-.12a2.15,2.15,0,0,0,2.49-.7,2.07,2.07,0,0,0-.12-2.77l-8.23-6.42-.28-.23L766,210.31l-1.34-1.05-2.19-1.71a6.22,6.22,0,0,0,2.11,7.08Z"/><path class="cls-29" d="M786.4,195.16h0c-.22,1.35-.12,2.62.68,3.24l.41.32,6.53,5.09.28.22,0-.13a2.06,2.06,0,0,0,2.45-.64,2,2,0,0,0-.16-2.72L790,195.46l-3-2.36a4.09,4.09,0,0,0-.61,2.06Z"/><path class="cls-29" d="M778.57,242.33l-12.41-9.68a11.87,11.87,0,0,0-3.47,1.38c-.21.13-.37.2-.43.15l1.9,1.48,12.19,9.52,1.15.89a1.81,1.81,0,0,0,2.22-2.85l-1.15-.89Z"/><polygon class="cls-35" points="842.92 258.14 840.25 256.27 842.3 253.32 844.98 255.18 842.92 258.14 842.92 258.14"/><polygon class="cls-36" points="842.92 258.14 840.25 256.27 841.27 254.79 843.95 256.66 842.92 258.14 842.92 258.14"/><polyline class="cls-37" points="821.82 271.7 810.64 263.92 838.49 223.91 849.67 231.7 821.82 271.7"/><path class="cls-38" d="M842.48,255.21a14.31,14.31,0,1,1-3.57-19.93,14.33,14.33,0,0,1,3.57,19.93"/><path class="cls-35" d="M838.55,235.8a13.68,13.68,0,1,0,3.41,19,13.7,13.7,0,0,0-3.41-19m-16.36,23.49A14.94,14.94,0,1,1,843,255.57a15,15,0,0,1-20.81,3.72"/><path class="cls-39" d="M839.25,234.75l0,0-.72,1,0,0a13.68,13.68,0,1,1-15.64,22.45l0,0-.72,1,0,0a14.94,14.94,0,1,0,17.07-24.53"/><path class="cls-40" d="M827.21,244.16a13.35,13.35,0,0,1-1.77-.11l.21-.31a6,6,0,0,1,8.23-1.58,10.53,10.53,0,0,1-2,1.11,3.9,3.9,0,0,0-1.3-.22,4.15,4.15,0,0,0-2.81,1.1h-.56m.78,0a4,4,0,0,1,2.59-.95,3.87,3.87,0,0,1,1.11.16,12,12,0,0,1-3.7.79M825.3,244a14.71,14.71,0,0,1-1.93-.4,9.32,9.32,0,0,1,.62-1,8,8,0,0,1,11.17-2l.28.21a9.77,9.77,0,0,1-1.44,1.29,6.13,6.13,0,0,0-8.46,1.58c-.09.12-.16.25-.24.37m-2.06-.43a15.32,15.32,0,0,1-1.79-.64,9,9,0,0,1,.88-1.53,10,10,0,0,1,14-2.51l.33.24-.41.64a10.15,10.15,0,0,1-.7.89l-.3-.22a8.15,8.15,0,0,0-11.35,2,8,8,0,0,0-.64,1.09m-1.91-.69a16.69,16.69,0,0,1-1.69-.85,12.35,12.35,0,0,1,1-1.79,12.08,12.08,0,0,1,16.8-3h0a10.65,10.65,0,0,1-.77,1.77l-.32-.23a10.16,10.16,0,0,0-5.81-1.83h0a10.17,10.17,0,0,0-8.36,4.37,9.34,9.34,0,0,0-.89,1.56m4-6.39a.56.56,0,0,0-.48.26.59.59,0,1,0,.82-.15.65.65,0,0,0-.34-.11m5.56-1.36a.58.58,0,0,0-.48.26.59.59,0,0,0,.14.82.61.61,0,0,0,.34.1.56.56,0,0,0,.48-.25.58.58,0,0,0-.14-.82.6.6,0,0,0-.34-.11M819.52,242l-.38-.23a13.07,13.07,0,0,1,1.17-2.09,12.46,12.46,0,0,1,17.35-3.1h0c0,.19-.1.37-.16.56a12.18,12.18,0,0,0-17,3.05,12.52,12.52,0,0,0-1,1.8"/><path class="cls-40" d="M830.57,259.37a12.17,12.17,0,0,1-7-2.19l0-.06,0-.05a12,12,0,0,0,12.41.83l.06,0a12.07,12.07,0,0,0,1.33-20.6l0-.13h0a12.2,12.2,0,0,1-7,22.22m-7-2.19A12.21,12.21,0,0,1,819.52,242l.12.07a11.92,11.92,0,0,0-1.14,5.1,12.06,12.06,0,0,0,5.18,9.91l0,.05,0,.06"/><path class="cls-41" d="M819.64,242.06l-.12-.07a12.52,12.52,0,0,1,1-1.8,12.18,12.18,0,0,1,17-3.05l0,.13h0a12.08,12.08,0,0,0-16.8,3,12.35,12.35,0,0,0-1,1.79"/><path class="cls-40" d="M830.57,257.35h0a10.17,10.17,0,0,1-9.24-14.44l.12.05a10,10,0,0,0,17.37,9.95h0a10.05,10.05,0,0,0-2.18-13.75.75.75,0,0,1,.07-.12A10.19,10.19,0,0,1,838.93,253h0a10.16,10.16,0,0,1-8.36,4.37"/><path class="cls-41" d="M821.45,243l-.12-.05a9.34,9.34,0,0,1,.89-1.56,10.17,10.17,0,0,1,8.36-4.37h0a10.16,10.16,0,0,1,5.81,1.83l.32.23a.75.75,0,0,0-.07.12l-.33-.24a10,10,0,0,0-14,2.51,9,9,0,0,0-.88,1.53"/><path class="cls-40" d="M830.57,255.32a8.15,8.15,0,0,1-4.66-1.46l0-.06,0-.05a8,8,0,0,0,9.45-13l.09-.1a8.15,8.15,0,0,1-5,14.63m-4.66-1.46a8.16,8.16,0,0,1-2.67-10.26l.13,0A8,8,0,0,0,826,253.75l0,.05,0,.06"/><path class="cls-41" d="M823.37,243.63l-.13,0a8,8,0,0,1,.64-1.09,8.15,8.15,0,0,1,11.35-2l.3.22-.09.1-.28-.21a8,8,0,0,0-11.17,2,9.32,9.32,0,0,0-.62,1"/><path class="cls-40" d="M830.57,253.3h0A6.14,6.14,0,0,1,825.3,244l.14,0a6.07,6.07,0,0,0-.87,3.11,6,6,0,0,0,10.93,3.43h0a5.94,5.94,0,0,0,1.08-3.42,6,6,0,0,0-2.58-4.93l-.12-.08.12-.08.08,0a6.13,6.13,0,0,1,1.53,8.54h0a6.13,6.13,0,0,1-5,2.63"/><path class="cls-41" d="M825.44,244.05l-.14,0c.08-.12.15-.25.24-.37a6.13,6.13,0,0,1,8.46-1.58l-.12.08a6,6,0,0,0-8.23,1.58l-.21.31"/><path class="cls-40" d="M830.57,251.28a4.11,4.11,0,0,1-2.35-.74l0,0,0-.06a4,4,0,1,0,3.39-7.08l.19-.08a4.05,4.05,0,0,1,1,.52,4.11,4.11,0,0,1-2.35,7.49m-2.35-.74a4.13,4.13,0,0,1-1.76-3.38,4.05,4.05,0,0,1,.74-2.34,4.11,4.11,0,0,1,.57-.67H828a4,4,0,0,0-1.4,3,4,4,0,0,0,1.71,3.27l0,.06,0,0"/><path class="cls-41" d="M827.77,244.15a4.15,4.15,0,0,1,2.81-1.1,3.9,3.9,0,0,1,1.3.22l-.19.08a3.87,3.87,0,0,0-1.11-.16,4,4,0,0,0-2.59.95h-.22"/><path class="cls-40" d="M830.57,249.26h0a2.12,2.12,0,0,1-1.19-.38,2.09,2.09,0,0,1-.9-1.71,2.13,2.13,0,0,1,.38-1.2,2.08,2.08,0,0,1,1.71-.89,2.14,2.14,0,0,1,1.2.37,2.1,2.1,0,0,1,.52,2.91h0a2.11,2.11,0,0,1-1.72.9m0-4a2,2,0,0,0-1.11,3.56,1.92,1.92,0,0,0,1.11.35,2,2,0,0,0,1.61-.84h0a1.92,1.92,0,0,0,.35-1.11,2,2,0,0,0-.84-1.61,1.93,1.93,0,0,0-1.12-.35"/><polygon class="cls-14" points="823.79 257.44 823.33 257.12 824.49 255.46 824.95 255.78 823.79 257.44 823.79 257.44"/><polygon class="cls-14" points="836.2 238.64 835.83 238.38 836.99 236.72 837.36 236.98 836.2 238.64 836.2 238.64"/><polygon class="cls-14" points="837.03 239.22 836.66 238.96 837.82 237.3 838.19 237.56 837.03 239.22 837.03 239.22"/><polygon class="cls-14" points="840.57 254.03 840.31 254.4 838.65 253.24 838.91 252.87 840.57 254.03 840.57 254.03"/><polygon class="cls-14" points="822.37 241.36 822.11 241.73 820.45 240.57 820.71 240.2 822.37 241.36 822.37 241.36"/><path class="cls-42" d="M825.33,237.7a.58.58,0,0,1-.48-.92.56.56,0,0,1,.48-.26.65.65,0,0,1,.34.11.59.59,0,0,1-.34,1.07"/><path class="cls-42" d="M830.89,236.34a.61.61,0,0,1-.34-.1.59.59,0,0,1-.14-.82.58.58,0,0,1,.48-.26.6.6,0,0,1,.34.11.58.58,0,0,1,.14.82.56.56,0,0,1-.48.25"/><path class="cls-43" d="M841.25,243.56a.6.6,0,0,1-.48-.93.61.61,0,0,1,.49-.25.52.52,0,0,1,.33.11.59.59,0,0,1,.15.82.6.6,0,0,1-.49.25"/><path class="cls-43" d="M841.91,249.25a.57.57,0,0,1-.33-.11.58.58,0,0,1-.15-.82.6.6,0,0,1,.82-.15.6.6,0,0,1,.15.82.59.59,0,0,1-.49.26"/><path class="cls-43" d="M829.52,259.09a.59.59,0,0,1-.33-.11.58.58,0,0,1-.15-.82.59.59,0,1,1,.48.93"/><path class="cls-43" d="M835.85,258a.61.61,0,0,1-.34-.1.59.59,0,0,1-.14-.82.56.56,0,0,1,.48-.26.62.62,0,0,1,.34.11.6.6,0,0,1,0,1l-.06,0a.64.64,0,0,1-.24.05"/><path class="cls-42" d="M836.09,257.9l.06,0-.06,0"/><path class="cls-43" d="M819.27,246.41a.6.6,0,0,1-.34-.11.59.59,0,0,1-.15-.82.61.61,0,0,1,.49-.25.52.52,0,0,1,.33.11.58.58,0,0,1,.15.82.59.59,0,0,1-.48.25"/><path class="cls-43" d="M820.19,252.59a.58.58,0,0,1-.48-.92.59.59,0,0,1,.48-.26.6.6,0,0,1,.34.11.59.59,0,0,1,.15.82.58.58,0,0,1-.49.25"/><path class="cls-14" d="M828.45,242.07l1.92,6.87,1.41-.4-1.92-6.87-1.41.4Zm1.71,7.23-2.07-7.43,2-.56,2.07,7.43-2,.56Z"/><polygon class="cls-14" points="829.84 247.61 829.65 246.97 838.16 244.37 838.36 245.01 829.84 247.61 829.84 247.61"/><polygon class="cls-44" points="821.89 243.64 821.97 243.44 831.77 247.51 831.69 247.7 821.89 243.64 821.89 243.64"/><path class="cls-22" d="M650.5,106.08,616.27,79.42A12.71,12.71,0,0,0,619.92,78a15.86,15.86,0,0,0,5.42-4.81c-5.35-4-5.34-4-8.48-6.49L603.11,55.92c-6.56-5.13-14.86-4.92-17.65-3.27,0,0-11.84,3.4-15.3-.33C551.35,37.66,533.56,27.94,523,15.59A152.12,152.12,0,0,1,510.42-1.55h-53c3.51,5.61,7.43,11.33,11.82,17.1,24,31.48,75.65,69.65,76.22,70.1,4.39,3.52,2.15,7.37,9.51,12.51h0a7.68,7.68,0,0,0,1,1l5.11,4,14.77,11.5,9.37,7.3a6.73,6.73,0,0,0,9.52-1.09,6.44,6.44,0,0,0,.69-7.06l2.14,1.67a7,7,0,0,0,10.54-8.58l1.58,1.23a6.69,6.69,0,1,0,8.22-10.56l24.42,19a6.63,6.63,0,1,0,8.14-10.45"/><path class="cls-23" d="M608.14,106.56l-.7-.54-7.09-5.53-1.42-1.11a1.95,1.95,0,0,0-2.39,3.06l7.19,5.6,1.33,1,3.28,2.55a15.16,15.16,0,0,0-.2-5.07Z"/><path class="cls-23" d="M617.94,97.24l-.57-.45-8.52-6.63-.28-.22,0,.12a2.15,2.15,0,0,0-2.49.7,2.08,2.08,0,0,0,.12,2.77l8.23,6.42.29.22,1.78,1.39,1.34,1,2.19,1.71a6.2,6.2,0,0,0-2.11-7.07Z"/><path class="cls-23" d="M596.14,116.71h0c.23-1.35.12-2.62-.67-3.24l-.41-.32-6.53-5.09-.29-.22,0,.13a2.06,2.06,0,0,0-2.45.65,2,2,0,0,0,.17,2.71l6.53,5.09,3,2.36a4.12,4.12,0,0,0,.61-2.07Z"/><path class="cls-23" d="M603.93,69.81l12.42,9.68a12.19,12.19,0,0,0,3.47-1.39c.21-.13.37-.2.44-.15l-1.91-1.48L606.15,67,605,66.07a1.81,1.81,0,0,0-2.22,2.85l1.14.89Z"/><polygon class="cls-35" points="539.57 54.04 542.25 55.91 540.2 58.87 537.52 57 539.57 54.04 539.57 54.04"/><polygon class="cls-36" points="539.57 54.04 542.25 55.91 541.23 57.39 538.55 55.52 539.57 54.04 539.57 54.04"/><polyline class="cls-37" points="560.67 40.47 571.85 48.24 544.03 88.26 532.84 80.49 560.67 40.47"/><path class="cls-38" d="M540,57a14.31,14.31,0,1,1,3.58,19.92A14.31,14.31,0,0,1,540,57"/><path class="cls-35" d="M544,76.38a13.68,13.68,0,1,0-3.42-19,13.71,13.71,0,0,0,3.42,19M560.3,52.87a14.94,14.94,0,1,1-20.8,3.74,15,15,0,0,1,20.8-3.74"/><path class="cls-39" d="M543.26,77.43l0,0,.72-1,0,0A13.68,13.68,0,1,1,559.6,53.93l0,0,.72-1,0,0a14.94,14.94,0,0,0-17.06,24.54"/><path class="cls-40" d="M552,77.84a12.4,12.4,0,0,1-7.11-2.23h0A5.12,5.12,0,0,1,545,75,12.19,12.19,0,0,0,562,72a12,12,0,0,0,1-1.79l.39.23a12.56,12.56,0,0,1-1.17,2.08A12.43,12.43,0,0,1,552,77.84m0-.76A12,12,0,0,1,545,74.91h0a9.62,9.62,0,0,1,.78-1.77l.31.22a10.08,10.08,0,0,0,5.8,1.83h0a10.19,10.19,0,0,0,8.37-4.37,9.76,9.76,0,0,0,.89-1.56,16.69,16.69,0,0,1,1.69.85,12.25,12.25,0,0,1-1,1.78,12.05,12.05,0,0,1-9.92,5.19m-.3-1.25a.59.59,0,0,0-.34,1.07.62.62,0,0,0,.34.11.58.58,0,0,0,.48-.25.59.59,0,0,0-.14-.82.55.55,0,0,0-.34-.11m5.56-1.36a.59.59,0,0,0-.48.25.58.58,0,0,0,.15.82.59.59,0,1,0,.33-1.07m-5.26.58a10,10,0,0,1-5.72-1.79l-.33-.24c.13-.22.27-.43.41-.64a8.85,8.85,0,0,1,.7-.89l.3.21a8.15,8.15,0,0,0,11.35-2,10,10,0,0,0,.64-1.09,13.69,13.69,0,0,1,1.79.64,10.23,10.23,0,0,1-.88,1.53,10,10,0,0,1-8.26,4.31m0-2a8,8,0,0,1-4.58-1.44l-.28-.2a9.77,9.77,0,0,1,1.44-1.29A6.14,6.14,0,0,0,557,68.51l.24-.37a15,15,0,0,1,1.93.39,8.51,8.51,0,0,1-.62,1A8,8,0,0,1,551.93,73m0-2a5.88,5.88,0,0,1-3.3-1,10,10,0,0,1,2-1.1,4.11,4.11,0,0,0,1.3.21h0a4.15,4.15,0,0,0,2.81-1.1h.57a13,13,0,0,1,1.75.11l-.2.31A6,6,0,0,1,551.93,71m0-2a4.19,4.19,0,0,1-1.11-.16,11.92,11.92,0,0,1,3.7-.8,4,4,0,0,1-2.59,1"/><path class="cls-40" d="M545,75l0,0A12.2,12.2,0,1,1,558.9,55l0,0,0,.06a12.07,12.07,0,0,0-12.42-.82l0,0A12.22,12.22,0,0,0,542,58.12a12.07,12.07,0,0,0,3,16.79s0,.08,0,.13m18-4.86a.41.41,0,0,0-.11-.07,12.07,12.07,0,0,0-4-15l0-.06,0,0A12.21,12.21,0,0,1,563,70.18"/><path class="cls-41" d="M551.92,77.21A12.12,12.12,0,0,1,545,75c0-.05,0-.09,0-.13h0a12,12,0,0,0,16.8-3,12.25,12.25,0,0,0,1-1.78.41.41,0,0,1,.11.07A12,12,0,0,1,562,72a12.19,12.19,0,0,1-10,5.24"/><path class="cls-40" d="M545.81,73.14a10.18,10.18,0,0,1-2.24-13.94h0a10.16,10.16,0,0,1,8.37-4.37h0a10.18,10.18,0,0,1,9.24,14.43l-.12-.05a10.05,10.05,0,0,0-17.38-9.94h0A10,10,0,0,0,545.87,73l-.06.12"/><path class="cls-41" d="M551.92,75.19h0a10.08,10.08,0,0,1-5.8-1.83l-.31-.22.06-.12.33.24a10.06,10.06,0,0,0,14-2.52,10.23,10.23,0,0,0,.88-1.53l.12.05a9.76,9.76,0,0,1-.89,1.56,10.19,10.19,0,0,1-8.37,4.37"/><path class="cls-40" d="M547,71.49a8.16,8.16,0,0,1,4.95-14.64h0a8.15,8.15,0,0,1,4.66,1.46l0,.06,0,.05a8,8,0,0,0-11.16,2A7.92,7.92,0,0,0,543.91,65a8,8,0,0,0,3.16,6.39l-.09.1m12.29-2.92-.13,0a8,8,0,0,0-2.63-10.11l0-.05,0-.06a8.16,8.16,0,0,1,2.68,10.26"/><path class="cls-41" d="M551.93,73.16a8.09,8.09,0,0,1-4.65-1.46l-.3-.21.09-.1.28.2a8,8,0,0,0,11.17-2,8.51,8.51,0,0,0,.62-1l.13,0a10,10,0,0,1-.64,1.09,8.15,8.15,0,0,1-6.7,3.5"/><path class="cls-40" d="M548.51,70.1l-.08-.06a6.1,6.1,0,0,1-2.63-5,6,6,0,0,1,1.1-3.49h0a6.1,6.1,0,0,1,5-2.64h0a6.14,6.14,0,0,1,5.27,9.27l-.15,0a6,6,0,0,0-10-6.54h0a6,6,0,0,0,1.5,8.35l.12.08-.12.09"/><path class="cls-41" d="M551.93,71.14a6.15,6.15,0,0,1-3.42-1l.12-.09a5.88,5.88,0,0,0,3.3,1,6,6,0,0,0,4.93-2.58l.2-.31.15,0-.24.37a6.14,6.14,0,0,1-5,2.63"/><path class="cls-40" d="M550.63,68.91a4,4,0,0,1-1-.53,4.11,4.11,0,0,1,2.36-7.49,4.08,4.08,0,0,1,2.34.74l0,0,0,.06a4,4,0,1,0-4.54,6.53,4,4,0,0,0,1.16.56l-.19.08m3.89-.88a4.43,4.43,0,0,0,.68-.75,4,4,0,0,0-1-5.54l0-.06,0,0A4.1,4.1,0,0,1,556,65a4,4,0,0,1-.73,2.34,4.11,4.11,0,0,1-.57.67h-.22"/><path class="cls-41" d="M551.93,69.12h0a4.11,4.11,0,0,1-1.3-.21l.19-.08a4.19,4.19,0,0,0,1.11.16,4,4,0,0,0,2.59-1h.22a4.15,4.15,0,0,1-2.81,1.1"/><path class="cls-40" d="M551.93,67.1a2.12,2.12,0,0,1-1.19-.38,2.09,2.09,0,0,1-.9-1.71,2,2,0,0,1,.38-1.19h0a2.06,2.06,0,0,1,1.71-.9h0A2.09,2.09,0,0,1,554,65a2.09,2.09,0,0,1-2.09,2.09m-1.6-3.21a2,2,0,0,0,1.6,3.07,2,2,0,0,0,1.61-.84,2,2,0,0,0,.35-1.11,2,2,0,0,0-.84-1.61,2,2,0,0,0-1.12-.35,1.93,1.93,0,0,0-1.6.84h0"/><polygon class="cls-14" points="558.7 54.73 559.17 55.05 558.01 56.71 557.55 56.39 558.7 54.73 558.7 54.73"/><polygon class="cls-14" points="546.31 73.54 546.68 73.79 545.53 75.46 545.16 75.2 546.31 73.54 546.31 73.54"/><polygon class="cls-14" points="545.48 72.96 545.85 73.22 544.7 74.88 544.33 74.62 545.48 72.96 545.48 72.96"/><polygon class="cls-14" points="541.93 58.15 542.19 57.78 543.85 58.94 543.59 59.31 541.93 58.15 541.93 58.15"/><polygon class="cls-14" points="560.14 70.81 560.4 70.44 562.06 71.6 561.8 71.97 560.14 70.81 560.14 70.81"/><path class="cls-42" d="M557.18,75.65a.59.59,0,0,1-.33-.11.58.58,0,0,1-.15-.82.59.59,0,1,1,.48.93"/><path class="cls-42" d="M551.62,77a.62.62,0,0,1-.34-.11.59.59,0,0,1,.34-1.07.55.55,0,0,1,.34.11.59.59,0,0,1,.14.82.58.58,0,0,1-.48.25"/><path class="cls-43" d="M541.25,69.8a.57.57,0,0,1-.34-.11.59.59,0,0,1,.34-1.07.6.6,0,0,1,.34.11.59.59,0,0,1,.15.82.61.61,0,0,1-.49.25"/><path class="cls-43" d="M540.59,64.11a.59.59,0,0,1,0-1.18.6.6,0,0,1,.34.11.59.59,0,0,1,.15.82.61.61,0,0,1-.49.25"/><path class="cls-43" d="M553,54.26a.59.59,0,1,1,0-1.17.58.58,0,0,1,.48.92.57.57,0,0,1-.48.25"/><path class="cls-43" d="M546.65,55.4a.58.58,0,0,1-.49-.92.65.65,0,0,1,.19-.18l0,0a.54.54,0,0,1,.25-.06.59.59,0,0,1,.33.11.58.58,0,0,1,.15.82.59.59,0,0,1-.48.25"/><path class="cls-42" d="M546.35,54.3l0,0,0,0"/><path class="cls-43" d="M563.24,66.94a.6.6,0,0,1-.34-.11.59.59,0,0,1-.15-.82.61.61,0,0,1,.49-.25.59.59,0,0,1,0,1.18"/><path class="cls-43" d="M562.31,60.75a.59.59,0,1,1,.33-1.07.58.58,0,0,1,.15.82.59.59,0,0,1-.48.25"/><path class="cls-14" d="M554.06,70.1l-1.92-6.87-1.42.4,1.93,6.87,1.41-.4Zm-1.72-7.23,2.08,7.43-2,.57-2.08-7.44,2-.56Z"/><polygon class="cls-14" points="552.66 64.57 552.86 65.21 544.35 67.81 544.15 67.17 552.66 64.57 552.66 64.57"/><polygon class="cls-44" points="560.62 68.52 560.53 68.72 550.73 64.67 550.82 64.47 560.62 68.52 560.62 68.52"/><circle class="cls-15" cx="746.13" cy="159.25" r="15.43"/><path class="cls-16" d="M747.11,163.85a6.86,6.86,0,0,0-.91.12h0l-.2,0-.44.11a4.56,4.56,0,0,1-.52.18,7.39,7.39,0,0,1-4.22,0,7.53,7.53,0,0,0,1.58,1.35l0,0,.19.12a6.87,6.87,0,0,0,2,.85,5.55,5.55,0,0,0,2.22.07,5.74,5.74,0,0,0,2.09-.82,7.23,7.23,0,0,0,1.64-1.46A7.39,7.39,0,0,0,747.11,163.85Z"/><path class="cls-16" d="M753.46,158.63a5.52,5.52,0,0,0,0-1.08,5,5,0,0,0-.23-1,6.13,6.13,0,0,0-1-1.84,7.23,7.23,0,0,0-1.67-1.48,7,7,0,0,0-2.77-1.1,6.42,6.42,0,0,0-1.37-.08h-.17l-.19,0h-.09l-.19,0h-.08l-.27.05h0l-.33.08-.26.08-.09,0h0a7,7,0,0,0-2.08,1.14,8.76,8.76,0,0,0-2,2.22,8.55,8.55,0,0,0-1.17,2.68,6.86,6.86,0,0,0-.11,2.7,6.15,6.15,0,0,0,.36,1.32,7.47,7.47,0,0,0,4.3,1.12l-.1-.06a3.62,3.62,0,0,1-1.28-1.31,3.31,3.31,0,0,1-.42-1.56,4.69,4.69,0,0,1,.27-1.63,7.33,7.33,0,0,1,.76-1.57,8,8,0,0,1,1.16-1.41,4.77,4.77,0,0,1,.76-.6l.15-.09h0l.15-.08,0,0,.12-.06.17-.08a3.61,3.61,0,0,1,1.59-.27,3.7,3.7,0,0,1,1.73.63l.08.06h0a3.28,3.28,0,0,1,.74.7,3.49,3.49,0,0,1,.51.95,3,3,0,0,1,.15,1h0v0a2,2,0,0,0,.91,1.74l1.39.9A5.58,5.58,0,0,0,753.46,158.63Z"/><circle class="cls-17" cx="746.13" cy="159.25" r="12.36" transform="translate(251.62 740.22) rotate(-61.64)"/><circle class="cls-15" cx="648.21" cy="151.65" r="15.43"/><path class="cls-16" d="M649.18,156.25a6.94,6.94,0,0,0-.9.12h0l-.2,0-.44.11a4.56,4.56,0,0,1-.52.18,7.39,7.39,0,0,1-4.22,0,7.8,7.8,0,0,0,1.58,1.35l0,0,.19.12a6.87,6.87,0,0,0,2,.85,5.61,5.61,0,0,0,2.23.07,5.72,5.72,0,0,0,2.09-.83,7.11,7.11,0,0,0,1.63-1.45A7.39,7.39,0,0,0,649.18,156.25Z"/><path class="cls-16" d="M655.54,151a6.42,6.42,0,0,0,0-1.08,5.82,5.82,0,0,0-.24-1,6.1,6.1,0,0,0-1-1.84,7.29,7.29,0,0,0-1.68-1.48,7,7,0,0,0-2.77-1.1,6.38,6.38,0,0,0-1.37-.08h-.17l-.19,0H648l-.19,0h-.08l-.27.05h0l-.32.08-.27.08-.09,0h0a7.09,7.09,0,0,0-2.08,1.14,8.76,8.76,0,0,0-2,2.22,8.55,8.55,0,0,0-1.17,2.68,7.06,7.06,0,0,0-.11,2.7,5.94,5.94,0,0,0,.37,1.31A7.35,7.35,0,0,0,646,156l-.1-.06a3.62,3.62,0,0,1-1.28-1.31,3.42,3.42,0,0,1-.41-1.56,4.45,4.45,0,0,1,.26-1.63,6.93,6.93,0,0,1,.77-1.57,7.53,7.53,0,0,1,1.15-1.41,5.26,5.26,0,0,1,.76-.6l.15-.09h0l.15-.08,0,0,.11-.06.18-.08a3.56,3.56,0,0,1,1.59-.27,3.67,3.67,0,0,1,1.72.63l.08.06h0a3.08,3.08,0,0,1,.74.7,3,3,0,0,1,.51.95,3.31,3.31,0,0,1,.16,1h0v0a2,2,0,0,0,.9,1.74l1.4.9A5.94,5.94,0,0,0,655.54,151Z"/><path class="cls-17" d="M658.59,158.35a12.35,12.35,0,1,1-3.68-17.08A12.36,12.36,0,0,1,658.59,158.35Z"/><circle class="cls-15" cx="674.91" cy="180.78" r="15.43"/><path class="cls-16" d="M679,183.17a7.71,7.71,0,0,0-.52.75h0l-.11.18-.21.4c-.06.16-.14.33-.22.5a7.42,7.42,0,0,1-2.85,3.11,7.49,7.49,0,0,0,2.06-.25h0l.22-.07a6.94,6.94,0,0,0,2-.93,5.5,5.5,0,0,0,2.35-3.69,6.67,6.67,0,0,0,0-2.19A7.38,7.38,0,0,0,679,183.17Z"/><path class="cls-16" d="M679.4,175a6,6,0,0,0-.82-.7,4.93,4.93,0,0,0-.9-.5,5.86,5.86,0,0,0-2-.48,7.16,7.16,0,0,0-2.23.24,7,7,0,0,0-2.68,1.29,6.43,6.43,0,0,0-1,1h0l0,.05-.06.08-.11.15-.06.07-.1.16-.05.07a1.76,1.76,0,0,0-.14.23v0a2.85,2.85,0,0,0-.16.3l-.12.25,0,.08h0a7.26,7.26,0,0,0-.57,2.31,9,9,0,0,0,.29,3,8.53,8.53,0,0,0,1.19,2.67,6.84,6.84,0,0,0,1.92,1.91,6,6,0,0,0,1.21.61,7.33,7.33,0,0,0,3.74-2.4l-.12,0a3.59,3.59,0,0,1-1.83.06,3.45,3.45,0,0,1-1.43-.75,4.59,4.59,0,0,1-1-1.3,7.39,7.39,0,0,1-.64-1.62,8,8,0,0,1-.25-1.8,4.39,4.39,0,0,1,.07-1l0-.18h0c0-.05,0-.11,0-.16v-.05s0-.08,0-.13a1.27,1.27,0,0,1,.06-.18,3.24,3.24,0,0,1,.87-1.35,3.67,3.67,0,0,1,1.63-.85l.09,0h0a3.2,3.2,0,0,1,1-.08,3.54,3.54,0,0,1,1,.27,2.91,2.91,0,0,1,.87.59h0a2,2,0,0,0,1.9.51l1.61-.42A5.66,5.66,0,0,0,679.4,175Z"/><circle class="cls-17" cx="674.91" cy="180.78" r="12.36" transform="translate(12.54 403.17) rotate(-33.55)"/><circle class="cls-12" cx="682.55" cy="134.05" r="15.02"/><circle class="cls-13" cx="682.55" cy="134.05" r="13.31"/><path class="cls-14" d="M678.56,141.74l.82-2a6,6,0,0,1-2.61-2.09l1-1.11a5.58,5.58,0,0,0,2.44,2c1.38.57,2.64.17,3.1-.94s0-2-1.22-3.23c-1.66-1.6-2.51-3-1.8-4.69a3.46,3.46,0,0,1,4.24-1.9l.82-2,1.2.51-.79,1.88A5.63,5.63,0,0,1,688,130l-1,1.08a5.13,5.13,0,0,0-2.17-1.68c-1.49-.63-2.43,0-2.75.81-.43,1,.08,1.81,1.48,3.21,1.65,1.65,2.24,3.08,1.52,4.81a3.67,3.67,0,0,1-4.45,2l-.84,2Z"/><circle class="cls-12" cx="647.5" cy="186.47" r="15.02"/><circle class="cls-13" cx="647.5" cy="186.47" r="13.31"/><path class="cls-14" d="M644.82,194.71l.49-2.07a6.16,6.16,0,0,1-2.92-1.64l.81-1.25a5.7,5.7,0,0,0,2.75,1.57c1.45.34,2.63-.27,2.9-1.43s-.37-2-1.74-3c-1.89-1.31-3-2.56-2.54-4.34a3.45,3.45,0,0,1,3.86-2.57l.49-2.06,1.27.29-.47,2a5.56,5.56,0,0,1,2.49,1.34l-.82,1.23a5.23,5.23,0,0,0-2.42-1.3c-1.58-.37-2.39.43-2.58,1.25-.25,1.06.38,1.77,2,2.93,1.9,1.36,2.72,2.67,2.29,4.49a3.66,3.66,0,0,1-4.06,2.72l-.5,2.13Z"/><circle class="cls-12" cx="620.22" cy="218.61" r="15.02"/><circle class="cls-13" cx="620.22" cy="218.61" r="13.31"/><path class="cls-14" d="M622.39,227l-.7-2a6.17,6.17,0,0,1-3.34.19v-1.5a5.58,5.58,0,0,0,3.16-.15c1.41-.49,2.08-1.64,1.68-2.77s-1.39-1.49-3.07-1.58c-2.3-.08-3.87-.56-4.47-2.28a3.45,3.45,0,0,1,1.88-4.25l-.7-2,1.23-.43.67,1.92a5.62,5.62,0,0,1,2.82-.2l0,1.48a5.06,5.06,0,0,0-2.74.2c-1.53.53-1.79,1.65-1.51,2.44.36,1,1.28,1.29,3.25,1.4,2.34.12,3.73.79,4.35,2.56a3.65,3.65,0,0,1-2,4.47l.73,2.06Z"/></g></g></g></svg>