<?xml version="1.0" encoding="UTF-8" standalone="no"?>
<!DOCTYPE svg PUBLIC "-//W3C//DTD SVG 1.1//EN" "http://www.w3.org/Graphics/SVG/1.1/DTD/svg11.dtd">
<svg width="100%" height="100%" viewBox="0 0 2469 456" version="1.1" xmlns="http://www.w3.org/2000/svg" xmlns:xlink="http://www.w3.org/1999/xlink" xml:space="preserve" xmlns:serif="http://www.serif.com/" style="fill-rule:evenodd;clip-rule:evenodd;stroke-linejoin:round;stroke-miterlimit:2;">
    <g transform="matrix(1,0,0,1,-114.695,1945.76)">
        <g transform="matrix(1,0,0,1,-2530.8,-2833.85)">
            <g transform="matrix(1,0,0,1,3212.9,1062.11)">
                <path d="M0,112.276L41.245,112.276C62.323,112.276 74.925,104.026 74.925,88.904C74.925,74.697 62.323,66.22 41.245,66.22L0,66.22L0,112.276ZM0,42.389L41.245,42.389C58.431,42.389 68.74,34.37 68.74,20.852C68.74,7.332 58.431,0 41.245,0L0,0L0,42.389ZM42.619,-24.059C75.844,-24.059 96.467,-8.937 96.467,16.039C96.467,34.14 85.694,47.66 68.28,51.784C89.822,55.45 102.652,70.802 102.652,92.341C102.652,119.836 80.427,136.335 44.222,136.335L-27.04,136.335L-27.04,-24.059L42.619,-24.059Z" style="fill:rgb(72,95,100);fill-rule:nonzero;"/>
            </g>
            <g transform="matrix(1,0,0,1,3361.83,1118.7)">
                <path d="M0,-0.46C0,31.391 26.348,56.596 57.743,56.596C89.134,56.596 114.795,31.391 114.795,-0.46C114.795,-32.308 89.134,-57.054 57.743,-57.054C26.121,-57.054 0,-32.308 0,-0.46M142.522,-0.46C142.522,45.368 105.401,80.883 57.511,80.883C9.626,80.883 -27.495,45.368 -27.495,-0.46C-27.495,-46.515 9.626,-81.343 57.511,-81.343C105.401,-81.343 142.522,-46.286 142.522,-0.46" style="fill:rgb(72,95,100);fill-rule:nonzero;"/>
            </g>
            <g transform="matrix(1,0,0,1,3669.56,1105.64)">
                <path d="M0,26.352C0,68.282 -26.348,93.945 -69.655,93.945C-112.961,93.945 -139.541,68.282 -139.541,26.352L-139.541,-67.593L-112.506,-67.593L-112.506,26.352C-112.506,53.389 -95.779,69.658 -69.427,69.658C-43.306,69.658 -27.035,53.617 -27.035,26.352L-27.035,-67.593L0,-67.593L0,26.352Z" style="fill:rgb(72,95,100);fill-rule:nonzero;"/>
            </g>
            <g transform="matrix(1,0,0,1,3820.78,1038.05)">
                <path d="M0,160.393L-85.466,45.368L-85.466,160.393L-112.502,160.393L-112.502,0L-85.922,0L0,115.255L0,0L26.58,0L26.58,160.393L0,160.393Z" style="fill:rgb(72,95,100);fill-rule:nonzero;"/>
            </g>
            <g transform="matrix(1,0,0,1,3948.41,1174.15)">
                <path d="M0,-111.817L0,24.288L-27.04,24.288L-27.04,-111.817L-77.678,-111.817L-77.678,-136.105L50.866,-136.105L50.866,-111.817L0,-111.817Z" style="fill:rgb(72,95,100);fill-rule:nonzero;"/>
            </g>
            <g transform="matrix(1,0,0,1,4088.18,1038.05)">
                <path d="M0,160.393L-26.808,160.393L-26.808,107.922L-86.613,0L-59.346,0L-13.518,78.133L31.391,0L58.89,0L0,107.005L0,160.393Z" style="fill:rgb(72,95,100);fill-rule:nonzero;"/>
            </g>
            <g transform="matrix(1,0,0,1,4277.22,1182.86)">
                <path d="M0,-129.459L-11.228,-105.63C-28.642,-116.169 -46.056,-120.522 -58.199,-120.522C-74.01,-120.522 -84.323,-114.565 -84.323,-103.796C-84.323,-68.739 2.29,-87.527 2.062,-29.786C2.062,-1.144 -23.144,16.499 -58.431,16.499C-83.636,16.499 -107.463,6.188 -123.961,-8.936L-112.278,-32.307C-95.779,-17.183 -75.157,-8.936 -57.971,-8.936C-39.183,-8.936 -27.955,-16.038 -27.955,-28.411C-27.955,-64.156 -114.567,-44.221 -114.567,-101.277C-114.567,-128.772 -90.968,-145.958 -56.137,-145.958C-35.287,-145.958 -14.892,-139.313 0,-129.459" style="fill:rgb(72,95,100);fill-rule:nonzero;"/>
            </g>
            <g transform="matrix(1,0,0,1,4325.11,1118.7)">
                <path d="M0,-0.46C0,31.391 26.348,56.596 57.743,56.596C89.134,56.596 114.795,31.391 114.795,-0.46C114.795,-32.308 89.134,-57.054 57.743,-57.054C26.121,-57.054 0,-32.308 0,-0.46M142.522,-0.46C142.522,45.368 105.401,80.883 57.512,80.883C9.622,80.883 -27.495,45.368 -27.495,-0.46C-27.495,-46.515 9.622,-81.343 57.512,-81.343C105.401,-81.343 142.522,-46.286 142.522,-0.46" style="fill:rgb(72,95,100);fill-rule:nonzero;"/>
            </g>
            <g transform="matrix(1,0,0,1,4632.83,1105.64)">
                <path d="M0,26.352C0,68.282 -26.348,93.945 -69.655,93.945C-112.961,93.945 -139.542,68.282 -139.542,26.352L-139.542,-67.593L-112.506,-67.593L-112.506,26.352C-112.506,53.389 -95.779,69.658 -69.427,69.658C-43.307,69.658 -27.036,53.617 -27.036,26.352L-27.036,-67.593L0,-67.593L0,26.352Z" style="fill:rgb(72,95,100);fill-rule:nonzero;"/>
            </g>
            <g transform="matrix(1,0,0,1,4736.63,1110.68)">
                <path d="M0,15.123C24.746,15.123 38.955,4.582 38.955,-17.185C38.955,-38.265 24.746,-48.346 0,-48.346L-38.036,-48.346L-38.036,15.123L0,15.123ZM7.332,39.182C5.042,39.411 2.521,39.411 0,39.411L-38.036,39.411L-38.036,87.758L-65.072,87.758L-65.072,-72.635L0,-72.635C41.017,-72.635 64.616,-52.7 64.616,-17.872C64.616,7.79 52.701,25.892 31.391,34.141L67.365,87.758L36.661,87.758L7.332,39.182Z" style="fill:rgb(72,95,100);fill-rule:nonzero;"/>
            </g>
            <g transform="matrix(1,0,0,1,4969.2,1174.84)">
                <path d="M0,-112.733L-15.812,-93.028C-27.499,-105.63 -44.226,-113.42 -60.492,-113.42C-92.571,-113.42 -117.776,-88.674 -117.776,-57.054C-117.776,-25.433 -92.571,-0.457 -60.492,-0.457C-44.453,-0.457 -27.955,-7.789 -15.812,-19.475L0.228,-1.604C-16.039,14.435 -39.183,24.746 -61.867,24.746C-108.841,24.746 -145.271,-10.768 -145.271,-56.824C-145.271,-102.422 -108.382,-137.479 -60.952,-137.479C-38.268,-137.479 -15.583,-128.085 0,-112.733" style="fill:rgb(72,95,100);fill-rule:nonzero;"/>
            </g>
            <g transform="matrix(1,0,0,1,5023.96,1174.15)">
                <path d="M0,-111.817L0,-68.51L78.366,-68.51L78.366,-44.224L0,-44.224L0,0L90.281,0L90.281,24.288L-27.035,24.288L-27.035,-136.105L87.528,-136.105L87.528,-111.817L0,-111.817Z" style="fill:rgb(72,95,100);fill-rule:nonzero;"/>
            </g>
            <g transform="matrix(1,0,0,1,2951.48,957.069)">
                <path d="M0,296.468C-2.555,296.468 -5.048,295.168 -6.459,292.819C-8.601,289.255 -7.449,284.629 -3.885,282.488C6.158,276.451 15.486,269.155 23.841,260.798C79.976,204.664 79.976,113.33 23.843,57.196C-1.708,31.648 -35.645,16.721 -71.717,15.165C-75.87,14.986 -79.092,11.472 -78.912,7.32C-78.734,3.165 -75.281,0 -71.067,0.121C-31.222,1.841 6.265,18.329 34.488,46.551C64.524,76.587 81.065,116.521 81.065,158.999C81.065,201.473 64.524,241.407 34.488,271.443C25.266,280.668 14.965,288.725 3.87,295.392C2.657,296.121 1.32,296.468 0,296.468" style="fill:rgb(51,204,255);fill-rule:nonzero;"/>
            </g>
            <g transform="matrix(1,0,0,1,2643.31,883.438)">
                <g opacity="0.6">
                    <g transform="matrix(1,0,0,1,187.873,76.3257)">
                        <path d="M0,309.321C-0.694,309.321 -1.4,309.224 -2.101,309.021C-27.657,301.605 -51.173,287.681 -70.104,268.749C-132.106,206.745 -132.106,105.86 -70.104,43.856C-48.441,22.193 -21.233,7.334 8.579,0.888C12.64,0 16.648,2.59 17.528,6.654C18.407,10.718 15.825,14.723 11.761,15.603C-15.218,21.437 -39.844,34.887 -59.458,54.502C-115.59,110.636 -115.59,201.969 -59.458,258.104C-42.316,275.245 -21.031,287.851 2.095,294.559C6.087,295.717 8.385,299.896 7.227,303.887C6.272,307.18 3.264,309.321 0,309.321" style="fill:rgb(51,204,255);fill-rule:nonzero;"/>
                    </g>
                </g>
            </g>
            <g transform="matrix(1,0,0,1,2873.33,1179.35)">
                <path d="M0,130.392C-49.99,130.392 -99.218,110.866 -136.584,73.499C-154.759,55.326 -168.904,34.162 -178.63,10.599C-180.216,6.755 -178.386,2.353 -174.542,0.768C-170.708,-0.823 -166.298,1.012 -164.712,4.852C-155.747,26.575 -142.702,46.089 -125.938,62.854C-70.375,118.418 13.651,131.215 83.147,94.693C86.827,92.76 91.379,94.178 93.313,97.854C95.248,101.535 93.832,106.085 90.152,108.019C61.526,123.064 30.617,130.392 0,130.392" style="fill:rgb(51,204,255);fill-rule:nonzero;"/>
            </g>
            <g transform="matrix(1,0,0,1,2983.69,1189.8)">
                <path d="M0,83.579C-2.31,83.579 -4.589,82.52 -6.065,80.518C-8.532,77.171 -7.819,72.46 -4.473,69.993C2.719,64.688 9.597,58.769 15.968,52.399C29.837,38.528 41.229,22.666 49.826,5.257C51.667,1.526 56.178,0 59.91,1.84C63.637,3.681 65.168,8.195 63.327,11.921C54.001,30.809 41.648,48.012 26.613,63.044C19.711,69.946 12.258,76.362 4.461,82.109C3.117,83.102 1.551,83.579 0,83.579" style="fill:rgb(51,204,255);fill-rule:nonzero;"/>
            </g>
            <g transform="matrix(1,0,0,1,2643.31,883.438)">
                <g opacity="0.7">
                    <g transform="matrix(1,0,0,1,406.19,20.4233)">
                        <path d="M0,279.821C-0.804,279.821 -1.623,279.689 -2.427,279.415C-6.362,278.074 -8.466,273.799 -7.127,269.864C14.981,204.952 -1.386,134.526 -49.841,86.07C-119.389,16.521 -232.554,16.527 -302.108,86.07C-334.821,118.788 -353.362,162.268 -354.315,208.507C-354.4,212.609 -357.752,215.879 -361.838,215.879C-361.891,215.879 -361.943,215.879 -361.997,215.876C-366.154,215.791 -369.453,212.353 -369.368,208.196C-368.334,158.054 -348.228,110.901 -312.755,75.425C-237.334,0 -114.616,0.003 -39.196,75.425C13.348,127.968 31.097,204.331 7.127,274.716C6.059,277.848 3.133,279.821 0,279.821" style="fill:rgb(51,204,255);fill-rule:nonzero;"/>
                    </g>
                </g>
            </g>
            <g transform="matrix(1,0,0,1,2763.61,879.53)">
                <path d="M0,52.899C-2.605,52.899 -5.139,51.546 -6.531,49.126C-8.606,45.524 -7.366,40.922 -3.764,38.846C51.048,7.289 117.238,0 177.842,18.861C181.812,20.096 184.029,24.316 182.794,28.286C181.557,32.253 177.333,34.473 173.369,33.235C116.757,15.62 54.934,22.419 3.749,51.896C2.566,52.576 1.273,52.899 0,52.899" style="fill:rgb(51,204,255);fill-rule:nonzero;"/>
            </g>
            <g transform="matrix(1,0,0,1,2680.38,931.135)">
                <path d="M0,86.038C-1.229,86.038 -2.476,85.738 -3.629,85.103C-7.27,83.094 -8.593,78.513 -6.584,74.872C3.733,56.17 16.691,38.961 31.932,23.723C39.574,16.08 47.794,8.94 56.365,2.497C59.688,0 64.407,0.671 66.906,3.994C69.404,7.317 68.733,12.037 65.41,14.536C57.403,20.553 49.722,27.225 42.578,34.368C28.337,48.607 16.232,64.683 6.599,82.148C5.227,84.632 2.654,86.038 0,86.038" style="fill:rgb(51,204,255);fill-rule:nonzero;"/>
            </g>
            <g transform="matrix(1,0,0,1,2643.31,883.438)">
                <g opacity="0.5">
                    <g transform="matrix(1,0,0,1,230.614,142.969)">
                        <path d="M0,317.611C-60.07,317.611 -118.666,293.812 -161.608,250.867C-225.911,186.564 -245.867,90.354 -212.446,5.761C-210.917,1.894 -206.541,0 -202.679,1.526C-198.812,3.055 -196.915,7.428 -198.443,11.295C-229.658,90.305 -211.021,180.162 -150.963,240.222C-103.332,287.855 -35.07,310.262 31.616,300.182C35.747,299.55 39.565,302.39 40.185,306.498C40.807,310.609 37.98,314.447 33.869,315.068C22.59,316.773 11.269,317.611 0,317.611" style="fill:rgb(51,204,255);fill-rule:nonzero;"/>
                    </g>
                </g>
            </g>
            <g transform="matrix(1,0,0,1,2945.12,1244.96)">
                <path d="M0,87.199C-3.129,87.199 -6.052,85.232 -7.122,82.106C-8.469,78.174 -6.372,73.893 -2.439,72.546C28.373,61.995 55.764,44.877 78.971,21.669C84.632,16.009 90.018,9.989 94.977,3.779C97.569,0.529 102.307,0 105.558,2.591C108.806,5.187 109.336,9.922 106.743,13.171C101.435,19.82 95.673,26.263 89.616,32.315C64.772,57.16 35.441,75.489 2.439,86.79C1.631,87.067 0.809,87.199 0,87.199" style="fill:rgb(51,204,255);fill-rule:nonzero;"/>
            </g>
            <g transform="matrix(1,0,0,1,2643.31,883.438)">
                <g opacity="0.6">
                    <g transform="matrix(1,0,0,1,444.654,68.4802)">
                        <path d="M0,223.001C-0.578,223.001 -1.165,222.933 -1.751,222.792C-5.796,221.828 -8.293,217.77 -7.328,213.723C9.976,141.116 -11.163,66.296 -63.874,13.585C-66.815,10.645 -66.815,5.881 -63.874,2.94C-60.936,0 -56.167,0 -53.229,2.94C3.21,59.377 25.844,139.48 7.318,217.217C6.493,220.672 3.405,223.001 0,223.001" style="fill:rgb(51,204,255);fill-rule:nonzero;"/>
                    </g>
                </g>
            </g>
            <g transform="matrix(0,-1,-1,0,2873.63,1043.29)">
                <path d="M-71.489,-71.489C-110.971,-71.489 -142.98,-39.482 -142.98,0.001C-142.98,39.483 -110.971,71.489 -71.489,71.489C-32.006,71.489 0.001,39.483 0.001,0.001C0.001,-39.482 -32.006,-71.489 -71.489,-71.489" style="fill:rgb(51,204,255);fill-rule:nonzero;"/>
            </g>
            <g transform="matrix(1,0,0,1,2643.31,883.438)">
                <clipPath id="_clip1">
                    <path d="M158.828,231.343C158.828,270.825 190.836,302.831 230.318,302.831C269.801,302.831 301.808,270.825 301.808,231.343C301.808,191.86 269.801,159.853 230.318,159.853C190.836,159.853 158.828,191.86 158.828,231.343Z" clip-rule="nonzero"/>
                </clipPath>
                <g clip-path="url(#_clip1)">
                    <g transform="matrix(1,0,0,1,158.829,302.832)">
                        <path d="M0,-30.201L52.31,0L0,0L0,-30.201Z" style="fill:rgb(51,204,255);fill-rule:nonzero;"/>
                    </g>
                    <g transform="matrix(0.866023,0.500005,0.500005,-0.866023,171.024,257.32)">
                        <path d="M-4.464,-16.658L62.17,-16.659L57.497,-19.357L-2.906,-19.357L-4.464,-16.658Z" style="fill:rgb(51,204,255);fill-rule:nonzero;"/>
                    </g>
                    <g transform="matrix(0.866029,0.499995,0.499995,-0.866029,172.164,253.064)">
                        <path d="M-4.881,-18.216L67.984,-18.216L63.31,-20.914L-3.323,-20.914L-4.881,-18.216Z" style="fill:rgb(51,204,255);fill-rule:nonzero;"/>
                    </g>
                    <g transform="matrix(0.866025,0.500001,0.500001,-0.866025,173.304,248.808)">
                        <path d="M-5.298,-19.774L73.797,-19.774L69.124,-22.472L-3.74,-22.473L-5.298,-19.774Z" style="fill:rgb(51,204,255);fill-rule:nonzero;"/>
                    </g>
                    <g transform="matrix(0.866025,0.500001,0.500001,-0.866025,174.445,244.552)">
                        <path d="M-5.716,-21.332L79.612,-21.332L74.938,-24.031L-4.158,-24.03L-5.716,-21.332Z" style="fill:rgb(51,204,255);fill-rule:nonzero;"/>
                    </g>
                    <g transform="matrix(0.866027,0.499998,0.499998,-0.866027,175.585,240.296)">
                        <path d="M-6.133,-22.889L85.425,-22.89L80.752,-25.587L-4.576,-25.587L-6.133,-22.889Z" style="fill:rgb(51,204,255);fill-rule:nonzero;"/>
                    </g>
                    <g transform="matrix(0.866024,0.500003,0.500003,-0.866024,176.726,236.04)">
                        <path d="M-6.551,-24.448L91.239,-24.448L86.566,-27.146L-4.993,-27.146L-6.551,-24.448Z" style="fill:rgb(51,204,255);fill-rule:nonzero;"/>
                    </g>
                    <g transform="matrix(0.866025,0.5,0.5,-0.866025,177.866,231.785)">
                        <path d="M-6.968,-26.005L97.052,-26.005L92.379,-28.703L-5.411,-28.703L-6.968,-26.005Z" style="fill:rgb(51,204,255);fill-rule:nonzero;"/>
                    </g>
                    <g transform="matrix(0.866025,0.5,0.5,-0.866025,179.006,227.528)">
                        <path d="M-7.385,-27.563L102.866,-27.563L98.193,-30.262L-5.827,-30.262L-7.385,-27.563Z" style="fill:rgb(51,204,255);fill-rule:nonzero;"/>
                    </g>
                    <g transform="matrix(0.866027,0.499998,0.499998,-0.866027,180.146,223.273)">
                        <path d="M-7.803,-29.121L108.68,-29.121L104.007,-31.818L-6.245,-31.818L-7.803,-29.121Z" style="fill:rgb(51,204,255);fill-rule:nonzero;"/>
                    </g>
                    <g transform="matrix(0.866025,0.500002,0.500002,-0.866025,181.287,219.016)">
                        <path d="M-8.22,-30.678L114.493,-30.678L109.82,-33.377L-6.662,-33.377L-8.22,-30.678Z" style="fill:rgb(51,204,255);fill-rule:nonzero;"/>
                    </g>
                    <g transform="matrix(0.866024,0.500002,0.500002,-0.866024,182.428,214.76)">
                        <path d="M-8.638,-32.237L120.308,-32.237L115.634,-34.935L-7.08,-34.934L-8.638,-32.237Z" style="fill:rgb(51,204,255);fill-rule:nonzero;"/>
                    </g>
                    <g transform="matrix(0.866026,0.5,0.5,-0.866026,183.568,210.505)">
                        <path d="M-9.055,-33.794L126.121,-33.794L121.448,-36.492L-7.498,-36.492L-9.055,-33.794Z" style="fill:rgb(51,204,255);fill-rule:nonzero;"/>
                    </g>
                    <g transform="matrix(0.866024,0.500003,0.500003,-0.866024,184.708,206.249)">
                        <path d="M-9.473,-35.352L131.935,-35.352L127.262,-38.05L-7.915,-38.051L-9.473,-35.352Z" style="fill:rgb(51,204,255);fill-rule:nonzero;"/>
                    </g>
                    <g transform="matrix(0.866027,0.499998,0.499998,-0.866027,185.848,201.993)">
                        <path d="M-9.89,-36.91L137.749,-36.91L133.075,-39.608L-8.332,-39.607L-9.89,-36.91Z" style="fill:rgb(51,204,255);fill-rule:nonzero;"/>
                    </g>
                    <g transform="matrix(1,0,0,1,158.829,302.832)">
                        <path d="M0,-76.935L131.904,-0.78L131.454,0L127.859,0L0,-73.819L0,-76.935Z" style="fill:rgb(51,204,255);fill-rule:nonzero;"/>
                    </g>
                    <g transform="matrix(0.866024,0.500002,0.500002,-0.866024,187.573,194.778)">
                        <path d="M-10.891,-38.624L142.976,-38.624L142.976,-41.322L-9.334,-41.321L-10.891,-38.624Z" style="fill:rgb(51,204,255);fill-rule:nonzero;"/>
                    </g>
                    <g transform="matrix(0.866026,0.5,0.5,-0.866026,187.858,191.377)">
                        <path d="M-10.996,-39.013L144.431,-39.013L144.429,-41.711L-9.438,-41.711L-10.996,-39.013Z" style="fill:rgb(51,204,255);fill-rule:nonzero;"/>
                    </g>
                    <g transform="matrix(0.866025,0.5,0.5,-0.866025,188.143,187.976)">
                        <path d="M-11.1,-39.402L145.884,-39.402L145.884,-42.1L-9.542,-42.101L-11.1,-39.402Z" style="fill:rgb(51,204,255);fill-rule:nonzero;"/>
                    </g>
                    <g transform="matrix(0.866025,0.500001,0.500001,-0.866025,188.428,184.576)">
                        <path d="M-11.204,-39.792L147.337,-39.792L147.337,-42.49L-9.647,-42.49L-11.204,-39.792Z" style="fill:rgb(51,204,255);fill-rule:nonzero;"/>
                    </g>
                    <g transform="matrix(0.866024,0.500002,0.500002,-0.866024,188.713,181.175)">
                        <path d="M-11.309,-40.181L148.791,-40.181L148.79,-42.879L-9.751,-42.88L-11.309,-40.181Z" style="fill:rgb(51,204,255);fill-rule:nonzero;"/>
                    </g>
                    <g transform="matrix(0.866027,0.499998,0.499998,-0.866027,188.998,177.775)">
                        <path d="M-11.413,-40.571L150.244,-40.571L150.244,-43.269L-9.856,-43.268L-11.413,-40.571Z" style="fill:rgb(51,204,255);fill-rule:nonzero;"/>
                    </g>
                    <g transform="matrix(0.866026,0.499999,0.499999,-0.866026,189.283,174.374)">
                        <path d="M-11.517,-40.96L151.697,-40.96L151.697,-43.658L-9.959,-43.659L-11.517,-40.96Z" style="fill:rgb(51,204,255);fill-rule:nonzero;"/>
                    </g>
                    <g transform="matrix(0.866026,0.499999,0.499999,-0.866026,189.568,170.973)">
                        <path d="M-11.622,-41.35L153.15,-41.35L153.151,-44.048L-10.064,-44.047L-11.622,-41.35Z" style="fill:rgb(51,204,255);fill-rule:nonzero;"/>
                    </g>
                    <g transform="matrix(1,0,0,1,158.829,283.359)">
                        <path d="M0,-85.502L142.979,-2.953L142.979,-0.489L142.697,0L0,-82.387L0,-85.502Z" style="fill:rgb(51,204,255);fill-rule:nonzero;"/>
                    </g>
                    <g transform="matrix(0.866025,0.5,0.5,-0.866025,189.823,164.735)">
                        <path d="M-11.838,-41.483L153.259,-41.483L154.817,-44.182L-10.28,-44.182L-11.838,-41.483Z" style="fill:rgb(51,204,255);fill-rule:nonzero;"/>
                    </g>
                    <g transform="matrix(0.866025,0.5,0.5,-0.866025,189.823,161.619)">
                        <path d="M-11.838,-41.483L153.259,-41.483L154.817,-44.182L-10.281,-44.181L-11.838,-41.483Z" style="fill:rgb(51,204,255);fill-rule:nonzero;"/>
                    </g>
                    <g transform="matrix(0.866025,0.5,0.5,-0.866025,189.823,158.503)">
                        <path d="M-11.838,-41.483L153.259,-41.483L154.817,-44.182L-10.28,-44.182L-11.838,-41.483Z" style="fill:rgb(51,204,255);fill-rule:nonzero;"/>
                    </g>
                    <g transform="matrix(0.866025,0.5,0.5,-0.866025,189.823,155.388)">
                        <path d="M-11.838,-41.483L153.259,-41.483L154.817,-44.182L-10.281,-44.181L-11.838,-41.483Z" style="fill:rgb(51,204,255);fill-rule:nonzero;"/>
                    </g>
                    <g transform="matrix(0.866025,0.5,0.5,-0.866025,189.823,152.273)">
                        <path d="M-11.838,-41.483L153.259,-41.483L154.817,-44.182L-10.281,-44.181L-11.838,-41.483Z" style="fill:rgb(51,204,255);fill-rule:nonzero;"/>
                    </g>
                    <g transform="matrix(1,0,0,1,158.829,264.339)">
                        <path d="M0,-84.524L0.282,-85.013L142.979,-2.627L142.979,0.489L0,-82.06L0,-84.524Z" style="fill:rgb(51,204,255);fill-rule:nonzero;"/>
                    </g>
                    <g transform="matrix(0.499926,-0.866068,-0.866068,-0.499926,160.126,261.134)">
                        <path d="M70.344,41.777L73.042,41.777L73.027,-121.438L70.329,-122.995L70.344,41.777Z" style="fill:rgb(51,204,255);fill-rule:nonzero;"/>
                    </g>
                    <g transform="matrix(0.499926,-0.866068,-0.866068,-0.499926,161.475,258.018)">
                        <path d="M69.669,41.388L72.367,41.388L72.353,-120.269L69.655,-121.826L69.669,41.388Z" style="fill:rgb(51,204,255);fill-rule:nonzero;"/>
                    </g>
                    <g transform="matrix(0.499926,-0.866068,-0.866068,-0.499926,162.825,254.903)">
                        <path d="M68.994,40.999L71.693,40.999L71.679,-119.101L68.981,-120.658L68.994,40.999Z" style="fill:rgb(51,204,255);fill-rule:nonzero;"/>
                    </g>
                    <g transform="matrix(0.499926,-0.866068,-0.866068,-0.499926,164.173,251.787)">
                        <path d="M68.32,40.609L71.018,40.609L71.005,-117.933L68.306,-119.49L68.32,40.609Z" style="fill:rgb(51,204,255);fill-rule:nonzero;"/>
                    </g>
                    <g transform="matrix(0.499926,-0.866068,-0.866068,-0.499926,165.523,248.672)">
                        <path d="M67.645,40.22L70.344,40.22L70.33,-116.764L67.632,-118.322L67.645,40.22Z" style="fill:rgb(51,204,255);fill-rule:nonzero;"/>
                    </g>
                    <g transform="matrix(0.499926,-0.866068,-0.866068,-0.499926,166.872,245.556)">
                        <path d="M66.971,39.83L69.669,39.83L69.656,-115.596L66.957,-117.154L66.971,39.83Z" style="fill:rgb(51,204,255);fill-rule:nonzero;"/>
                    </g>
                    <g transform="matrix(0.499926,-0.866068,-0.866068,-0.499926,168.221,242.44)">
                        <path d="M66.296,39.441L68.995,39.441L68.982,-114.427L66.283,-115.985L66.296,39.441Z" style="fill:rgb(51,204,255);fill-rule:nonzero;"/>
                    </g>
                    <g transform="matrix(0.499926,-0.866068,-0.866068,-0.499926,169.57,239.325)">
                        <path d="M65.622,39.052L68.32,39.052L68.307,-113.259L65.608,-114.817L65.622,39.052Z" style="fill:rgb(51,204,255);fill-rule:nonzero;"/>
                    </g>
                    <g transform="matrix(1,0,0,1,169.903,236.007)">
                        <path d="M0,-75.375L0.45,-76.155L4.045,-76.155L131.905,-2.336L131.905,0.78L0,-75.375Z" style="fill:rgb(51,204,255);fill-rule:nonzero;"/>
                    </g>
                    <g transform="matrix(0.866026,0.5,0.5,-0.866026,205.642,135.531)">
                        <path d="M-10.613,-34.212L130.795,-34.212L132.353,-36.909L-15.286,-36.91L-10.613,-34.212Z" style="fill:rgb(51,204,255);fill-rule:nonzero;"/>
                    </g>
                    <g transform="matrix(0.866026,0.5,0.5,-0.866026,209.898,136.671)">
                        <path d="M-10.196,-32.654L124.981,-32.654L126.539,-35.352L-14.869,-35.352L-10.196,-32.654Z" style="fill:rgb(51,204,255);fill-rule:nonzero;"/>
                    </g>
                    <g transform="matrix(0.866024,0.500002,0.500002,-0.866024,214.154,137.811)">
                        <path d="M-9.778,-31.096L119.168,-31.096L120.725,-33.794L-14.451,-33.794L-9.778,-31.096Z" style="fill:rgb(51,204,255);fill-rule:nonzero;"/>
                    </g>
                    <g transform="matrix(0.866027,0.499998,0.499998,-0.866027,218.41,138.952)">
                        <path d="M-9.361,-29.538L113.354,-29.538L114.912,-32.237L-14.034,-32.236L-9.361,-29.538Z" style="fill:rgb(51,204,255);fill-rule:nonzero;"/>
                    </g>
                    <g transform="matrix(0.866027,0.499998,0.499998,-0.866027,222.666,140.092)">
                        <path d="M-8.943,-27.98L107.539,-27.98L109.097,-30.679L-13.616,-30.678L-8.943,-27.98Z" style="fill:rgb(51,204,255);fill-rule:nonzero;"/>
                    </g>
                    <g transform="matrix(0.866025,0.5,0.5,-0.866025,226.922,141.233)">
                        <path d="M-8.526,-26.423L101.726,-26.423L103.284,-29.12L-13.199,-29.121L-8.526,-26.423Z" style="fill:rgb(51,204,255);fill-rule:nonzero;"/>
                    </g>
                    <g transform="matrix(0.866028,0.499996,0.499996,-0.866028,231.178,142.373)">
                        <path d="M-8.108,-24.865L95.912,-24.865L97.47,-27.563L-12.781,-27.563L-8.108,-24.865Z" style="fill:rgb(51,204,255);fill-rule:nonzero;"/>
                    </g>
                    <g transform="matrix(0.866024,0.500003,0.500003,-0.866024,235.434,143.513)">
                        <path d="M-7.691,-23.307L90.099,-23.307L91.656,-26.005L-12.364,-26.005L-7.691,-23.307Z" style="fill:rgb(51,204,255);fill-rule:nonzero;"/>
                    </g>
                    <g transform="matrix(0.866027,0.499998,0.499998,-0.866027,239.69,144.654)">
                        <path d="M-7.274,-21.749L84.285,-21.749L85.843,-24.448L-11.947,-24.447L-7.274,-21.749Z" style="fill:rgb(51,204,255);fill-rule:nonzero;"/>
                    </g>
                    <g transform="matrix(0.866025,0.500001,0.500001,-0.866025,243.946,145.794)">
                        <path d="M-6.856,-20.192L78.472,-20.192L80.029,-22.889L-11.529,-22.89L-6.856,-20.192Z" style="fill:rgb(51,204,255);fill-rule:nonzero;"/>
                    </g>
                    <g transform="matrix(0.866025,0.500001,0.500001,-0.866025,248.202,146.935)">
                        <path d="M-6.439,-18.634L72.657,-18.634L74.215,-21.332L-11.112,-21.332L-6.439,-18.634Z" style="fill:rgb(51,204,255);fill-rule:nonzero;"/>
                    </g>
                    <g transform="matrix(0.866029,0.499995,0.499995,-0.866029,252.457,148.075)">
                        <path d="M-6.021,-17.076L66.843,-17.076L68.401,-19.774L-10.694,-19.774L-6.021,-17.076Z" style="fill:rgb(51,204,255);fill-rule:nonzero;"/>
                    </g>
                    <g transform="matrix(0.866026,0.499998,0.499998,-0.866026,256.714,149.215)">
                        <path d="M-5.604,-15.518L61.03,-15.518L62.588,-18.216L-10.277,-18.216L-5.604,-15.518Z" style="fill:rgb(51,204,255);fill-rule:nonzero;"/>
                    </g>
                    <g transform="matrix(0.866027,0.499998,0.499998,-0.866027,260.97,150.356)">
                        <path d="M-5.187,-13.96L55.216,-13.96L56.774,-16.659L-9.86,-16.658L-5.187,-13.96Z" style="fill:rgb(51,204,255);fill-rule:nonzero;"/>
                    </g>
                    <g transform="matrix(1,0,0,1,301.808,159.853)">
                        <path d="M0,30.201L-52.31,0L0,0L0,30.201Z" style="fill:rgb(51,204,255);fill-rule:nonzero;"/>
                    </g>
                </g>
            </g>
            <g transform="matrix(1,0,0,1,2872.56,1000.89)">
                <path d="M0,227.783C-62.801,227.783 -113.89,176.692 -113.89,113.892C-113.89,51.091 -62.801,0 0,0C42.786,0 81.58,23.631 101.238,61.668C103.281,65.621 101.735,70.482 97.782,72.523C93.833,74.566 88.969,73.022 86.929,69.067C70.043,36.402 36.738,16.109 0,16.109C-53.917,16.109 -97.781,59.975 -97.781,113.892C-97.781,167.808 -53.917,211.674 0,211.674C53.917,211.674 97.782,167.808 97.782,113.892C97.782,109.442 101.388,105.837 105.837,105.837C110.286,105.837 113.891,109.442 113.891,113.892C113.891,176.692 62.801,227.783 0,227.783" style="fill:rgb(51,204,255);fill-rule:nonzero;"/>
            </g>
        </g>
    </g>
</svg>
