<?xml version="1.0" encoding="UTF-8" standalone="no"?>
<!DOCTYPE svg PUBLIC "-//W3C//DTD SVG 1.1//EN" "http://www.w3.org/Graphics/SVG/1.1/DTD/svg11.dtd">
<svg width="100%" height="100%" viewBox="0 0 2469 568" version="1.1" xmlns="http://www.w3.org/2000/svg" xmlns:xlink="http://www.w3.org/1999/xlink" xml:space="preserve" xmlns:serif="http://www.serif.com/" style="fill-rule:evenodd;clip-rule:evenodd;stroke-linejoin:round;stroke-miterlimit:2;">
    <g transform="matrix(1,0,0,1,-32.2577,1193.42)">
        <g transform="matrix(1,0,0,1,-2613.23,-2081.52)">
            <g transform="matrix(1,0,0,1,3212.9,1062.11)">
                <path d="M0,112.276L41.245,112.276C62.323,112.276 74.925,104.026 74.925,88.904C74.925,74.697 62.323,66.22 41.245,66.22L0,66.22L0,112.276ZM0,42.389L41.245,42.389C58.431,42.389 68.74,34.37 68.74,20.852C68.74,7.332 58.431,0 41.245,0L0,0L0,42.389ZM42.619,-24.059C75.844,-24.059 96.467,-8.937 96.467,16.039C96.467,34.14 85.694,47.66 68.28,51.784C89.822,55.45 102.652,70.802 102.652,92.341C102.652,119.836 80.427,136.335 44.222,136.335L-27.04,136.335L-27.04,-24.059L42.619,-24.059Z" style="fill:rgb(72,95,100);fill-rule:nonzero;"/>
            </g>
            <g transform="matrix(1,0,0,1,3361.83,1118.7)">
                <path d="M0,-0.46C0,31.391 26.348,56.596 57.743,56.596C89.134,56.596 114.795,31.391 114.795,-0.46C114.795,-32.308 89.134,-57.054 57.743,-57.054C26.121,-57.054 0,-32.308 0,-0.46M142.522,-0.46C142.522,45.368 105.401,80.883 57.511,80.883C9.626,80.883 -27.495,45.368 -27.495,-0.46C-27.495,-46.515 9.626,-81.343 57.511,-81.343C105.401,-81.343 142.522,-46.286 142.522,-0.46" style="fill:rgb(72,95,100);fill-rule:nonzero;"/>
            </g>
            <g transform="matrix(1,0,0,1,3669.56,1105.64)">
                <path d="M0,26.352C0,68.282 -26.348,93.945 -69.655,93.945C-112.961,93.945 -139.541,68.282 -139.541,26.352L-139.541,-67.593L-112.506,-67.593L-112.506,26.352C-112.506,53.389 -95.779,69.658 -69.427,69.658C-43.306,69.658 -27.035,53.617 -27.035,26.352L-27.035,-67.593L0,-67.593L0,26.352Z" style="fill:rgb(72,95,100);fill-rule:nonzero;"/>
            </g>
            <g transform="matrix(1,0,0,1,3820.78,1038.05)">
                <path d="M0,160.393L-85.466,45.368L-85.466,160.393L-112.502,160.393L-112.502,0L-85.922,0L0,115.255L0,0L26.58,0L26.58,160.393L0,160.393Z" style="fill:rgb(72,95,100);fill-rule:nonzero;"/>
            </g>
            <g transform="matrix(1,0,0,1,3948.41,1174.15)">
                <path d="M0,-111.817L0,24.288L-27.04,24.288L-27.04,-111.817L-77.678,-111.817L-77.678,-136.105L50.866,-136.105L50.866,-111.817L0,-111.817Z" style="fill:rgb(72,95,100);fill-rule:nonzero;"/>
            </g>
            <g transform="matrix(1,0,0,1,4088.18,1038.05)">
                <path d="M0,160.393L-26.808,160.393L-26.808,107.922L-86.613,0L-59.346,0L-13.518,78.133L31.391,0L58.89,0L0,107.005L0,160.393Z" style="fill:rgb(72,95,100);fill-rule:nonzero;"/>
            </g>
            <g transform="matrix(1,0,0,1,4277.22,1182.86)">
                <path d="M0,-129.459L-11.228,-105.63C-28.642,-116.169 -46.056,-120.522 -58.199,-120.522C-74.01,-120.522 -84.323,-114.565 -84.323,-103.796C-84.323,-68.739 2.29,-87.527 2.062,-29.786C2.062,-1.144 -23.144,16.499 -58.431,16.499C-83.636,16.499 -107.463,6.188 -123.961,-8.936L-112.278,-32.307C-95.779,-17.183 -75.157,-8.936 -57.971,-8.936C-39.183,-8.936 -27.955,-16.038 -27.955,-28.411C-27.955,-64.156 -114.567,-44.221 -114.567,-101.277C-114.567,-128.772 -90.968,-145.958 -56.137,-145.958C-35.287,-145.958 -14.892,-139.313 0,-129.459" style="fill:rgb(72,95,100);fill-rule:nonzero;"/>
            </g>
            <g transform="matrix(1,0,0,1,4325.11,1118.7)">
                <path d="M0,-0.46C0,31.391 26.348,56.596 57.743,56.596C89.134,56.596 114.795,31.391 114.795,-0.46C114.795,-32.308 89.134,-57.054 57.743,-57.054C26.121,-57.054 0,-32.308 0,-0.46M142.522,-0.46C142.522,45.368 105.401,80.883 57.512,80.883C9.622,80.883 -27.495,45.368 -27.495,-0.46C-27.495,-46.515 9.622,-81.343 57.512,-81.343C105.401,-81.343 142.522,-46.286 142.522,-0.46" style="fill:rgb(72,95,100);fill-rule:nonzero;"/>
            </g>
            <g transform="matrix(1,0,0,1,4632.83,1105.64)">
                <path d="M0,26.352C0,68.282 -26.348,93.945 -69.655,93.945C-112.961,93.945 -139.542,68.282 -139.542,26.352L-139.542,-67.593L-112.506,-67.593L-112.506,26.352C-112.506,53.389 -95.779,69.658 -69.427,69.658C-43.307,69.658 -27.036,53.617 -27.036,26.352L-27.036,-67.593L0,-67.593L0,26.352Z" style="fill:rgb(72,95,100);fill-rule:nonzero;"/>
            </g>
            <g transform="matrix(1,0,0,1,4736.63,1110.68)">
                <path d="M0,15.123C24.746,15.123 38.955,4.582 38.955,-17.185C38.955,-38.265 24.746,-48.346 0,-48.346L-38.036,-48.346L-38.036,15.123L0,15.123ZM7.332,39.182C5.042,39.411 2.521,39.411 0,39.411L-38.036,39.411L-38.036,87.758L-65.072,87.758L-65.072,-72.635L0,-72.635C41.017,-72.635 64.616,-52.7 64.616,-17.872C64.616,7.79 52.701,25.892 31.391,34.141L67.365,87.758L36.661,87.758L7.332,39.182Z" style="fill:rgb(72,95,100);fill-rule:nonzero;"/>
            </g>
            <g transform="matrix(1,0,0,1,4969.2,1174.84)">
                <path d="M0,-112.733L-15.812,-93.028C-27.499,-105.63 -44.226,-113.42 -60.492,-113.42C-92.571,-113.42 -117.776,-88.674 -117.776,-57.054C-117.776,-25.433 -92.571,-0.457 -60.492,-0.457C-44.453,-0.457 -27.955,-7.789 -15.812,-19.475L0.228,-1.604C-16.039,14.435 -39.183,24.746 -61.867,24.746C-108.841,24.746 -145.271,-10.768 -145.271,-56.824C-145.271,-102.422 -108.382,-137.479 -60.952,-137.479C-38.268,-137.479 -15.583,-128.085 0,-112.733" style="fill:rgb(72,95,100);fill-rule:nonzero;"/>
            </g>
            <g transform="matrix(1,0,0,1,5023.96,1174.15)">
                <path d="M0,-111.817L0,-68.51L78.366,-68.51L78.366,-44.224L0,-44.224L0,0L90.281,0L90.281,24.288L-27.035,24.288L-27.035,-136.105L87.528,-136.105L87.528,-111.817L0,-111.817Z" style="fill:rgb(72,95,100);fill-rule:nonzero;"/>
            </g>
            <g transform="matrix(0.304464,0,0,0.304464,4333.15,1247.94)">
                <path d="M1227.47,120.973C1236.1,120.973 1244.03,122.952 1251.25,126.911C1258.46,130.878 1264.24,136.251 1268.55,143.03C1272.87,149.81 1275.03,157.249 1275.03,165.348C1275.03,177.674 1272.12,187.188 1266.3,193.881C1260.5,200.574 1253.1,205.157 1244.12,207.622L1244.12,208.942C1253.58,210.76 1262.26,215.468 1268.95,222.414C1275.82,229.454 1279.25,239.94 1279.25,253.846C1279.31,262.417 1276.98,270.839 1272.51,278.152C1268.07,285.498 1261.79,291.556 1254.29,295.721C1246.59,300.046 1237.89,302.279 1229.05,302.197L1137.65,302.197L1137.65,120.973L1227.47,120.973ZM1215.85,194.411C1221.13,194.411 1225.8,192.388 1229.85,188.334C1233.9,184.28 1235.92,179.176 1235.92,173.013C1235.92,165.617 1233.9,160.287 1229.85,157.032C1225.9,153.81 1220.95,152.079 1215.85,152.145L1176.22,152.145L1176.22,194.411L1215.85,194.411ZM1218.75,269.437C1224.31,269.542 1229.67,267.341 1233.55,263.36C1237.6,259.306 1239.63,254.376 1239.63,248.569L1239.63,246.19C1239.73,240.635 1237.53,235.277 1233.55,231.398C1229.67,227.418 1224.31,225.217 1218.75,225.322L1176.22,225.322L1176.22,269.437L1218.75,269.437ZM1306.46,111.989L1345.03,111.989L1345.03,302.197L1306.46,302.197L1306.46,111.989ZM1510.4,238.525C1510.4,252.084 1507.54,263.89 1501.81,273.924C1496.34,283.725 1488.12,291.716 1478.17,296.911C1468.13,302.197 1456.87,304.836 1444.36,304.836L1440.13,304.836C1427.63,304.836 1416.35,302.197 1406.32,296.911C1396.37,291.716 1388.15,283.725 1382.67,273.924C1376.95,263.89 1374.09,252.084 1374.09,238.525L1374.09,230.869C1374.09,217.301 1376.95,205.504 1382.67,195.47C1388.15,185.669 1396.37,177.678 1406.32,172.484C1416.35,167.197 1427.63,164.558 1440.13,164.558L1444.36,164.558C1456.87,164.558 1468.13,167.197 1478.17,172.484C1488.12,177.678 1496.34,185.669 1501.81,195.47C1507.54,205.504 1510.4,217.301 1510.4,230.869L1510.4,238.525ZM1471.3,223.994C1471.3,213.256 1468.62,205.062 1463.25,199.428C1457.87,193.794 1450.88,190.973 1442.25,190.973C1433.61,190.973 1426.62,193.794 1421.24,199.428C1415.87,205.062 1413.19,213.256 1413.19,223.994L1413.19,245.391C1413.19,256.138 1415.87,264.324 1421.24,269.966C1426.62,275.6 1433.61,278.421 1442.25,278.421C1450.88,278.421 1457.87,275.6 1463.25,269.966C1468.62,264.324 1471.3,256.138 1471.3,245.391L1471.3,223.994ZM1572.22,247.51C1572.22,256.312 1574.51,263.664 1579.09,269.567C1583.66,275.47 1589.83,278.421 1597.58,278.421C1605.68,278.421 1612.07,275.904 1616.74,270.886C1621.4,265.869 1623.73,258.43 1623.73,248.569L1660.19,248.569C1660.19,261.069 1657.5,271.546 1652.13,280.001C1647.04,288.206 1639.64,294.731 1630.87,298.76C1622.06,302.813 1612.37,304.836 1601.81,304.836L1597.58,304.836C1577.86,304.836 1562.18,298.977 1550.56,287.266C1538.93,275.556 1533.12,259.306 1533.12,238.525L1533.12,230.869C1533.12,217.128 1535.89,205.287 1541.44,195.331C1546.99,185.383 1554.61,177.77 1564.3,172.484C1573.98,167.197 1585.08,164.558 1597.58,164.558L1601.81,164.558C1612.2,164.558 1621.84,166.806 1630.73,171.294C1639.54,175.701 1646.95,182.47 1652.13,190.843C1657.5,199.385 1660.19,209.471 1660.19,221.095L1621.88,221.095C1621.88,211.937 1619.86,204.628 1615.81,199.168C1611.75,193.707 1605.77,190.973 1597.85,190.973C1589.92,190.973 1583.66,194.098 1579.09,200.357C1574.51,206.607 1572.22,214.489 1572.22,223.994L1572.22,247.51ZM1774.58,302.197L1742.61,258.074L1727.55,272.605L1727.55,302.197L1688.98,302.197L1688.98,111.989L1727.55,111.989L1727.55,230.07L1774.84,167.197L1818.43,167.197L1768.77,230.6L1820.55,302.197L1774.58,302.197ZM1870.47,247.51C1870.47,256.312 1872.76,263.664 1877.34,269.567C1881.92,275.47 1888.08,278.421 1895.83,278.421C1903.93,278.421 1910.32,275.904 1914.98,270.886C1919.65,265.869 1921.99,258.43 1921.99,248.569L1958.45,248.569C1958.45,261.069 1955.76,271.546 1950.38,280.001C1945.29,288.209 1937.89,294.736 1929.12,298.76C1920.31,302.813 1910.62,304.836 1900.06,304.836L1895.83,304.836C1876.11,304.836 1860.43,298.977 1848.81,287.266C1837.19,275.556 1831.37,259.306 1831.37,238.525L1831.37,230.869C1831.37,217.128 1834.15,205.287 1839.7,195.331C1845.24,185.383 1852.86,177.77 1862.54,172.484C1872.23,167.197 1883.33,164.558 1895.83,164.558L1900.06,164.558C1910.45,164.558 1920.1,166.806 1928.98,171.294C1937.79,175.699 1945.2,182.469 1950.38,190.843C1955.76,199.385 1958.45,209.471 1958.45,221.095L1920.14,221.095C1920.14,211.937 1918.11,204.628 1914.06,199.168C1910.01,193.707 1904.02,190.973 1896.09,190.973C1888.17,190.973 1881.92,194.098 1877.34,200.357C1872.76,206.607 1870.47,214.489 1870.47,223.994L1870.47,247.51ZM2025.81,180.409C2036.02,169.845 2048.52,164.558 2063.32,164.558C2077.06,164.558 2088.37,168.256 2097.27,175.652C2106.16,183.048 2110.61,193.794 2110.61,207.883L2110.61,302.197L2072.04,302.197L2072.04,216.338C2072.04,209.471 2070.05,203.786 2066.09,199.298C2062.13,194.81 2057.07,192.562 2050.9,192.562C2044.04,192.562 2038.13,195.157 2033.2,200.357C2028.27,205.548 2025.81,211.841 2025.81,219.246L2025.81,302.197L1987.24,302.197L1987.24,111.989L2025.81,111.989L2025.81,180.409ZM2227.9,211.051C2227.9,205.062 2226.01,200.218 2222.22,196.52C2218.44,192.822 2212.32,190.973 2203.86,190.973C2198.93,190.973 2194.7,191.815 2191.18,193.482C2187.66,195.157 2184.97,197.232 2183.12,199.697C2181.28,202.162 2180.35,204.445 2180.35,206.563L2180.35,208.673L2143.1,208.673C2142.81,207.102 2142.63,205.512 2142.57,203.916C2142.57,196.346 2145.08,189.567 2150.1,183.577C2155.12,177.588 2162.12,172.926 2171.1,169.576C2180.09,166.234 2190.39,164.558 2202.01,164.558L2207.56,164.558C2226.58,164.558 2241.02,168.299 2250.89,175.782C2260.75,183.273 2265.68,193.525 2265.68,206.563L2265.68,268.907C2265.68,272.076 2266.42,274.454 2267.93,276.043C2269.42,277.622 2271.22,278.421 2273.34,278.421C2275.1,278.421 2277.04,278.065 2279.15,277.362C2281.27,276.659 2282.93,276.043 2284.17,275.513L2284.17,299.289C2277.66,302.987 2269.91,304.836 2260.92,304.836C2251.23,304.836 2243.84,302.857 2238.73,298.89C2233.62,294.931 2230.63,289.332 2229.75,282.119C2217.42,297.258 2202.27,304.836 2184.31,304.836C2170.93,304.836 2159.92,302.102 2151.29,296.641C2142.66,291.19 2138.34,280.791 2138.34,265.47C2138.34,252.97 2141.91,243.412 2149.05,236.806C2156.18,230.209 2166.09,225.756 2178.77,223.473C2191.44,221.181 2207.82,220.036 2227.9,220.036L2227.9,211.051ZM2227.9,241.694C2211.17,241.694 2198.71,243.326 2190.52,246.581C2182.33,249.845 2178.24,255.166 2178.24,262.57C2178.24,268.378 2179.86,272.475 2183.12,274.853C2186.38,277.232 2191.35,278.421 2198.05,278.421C2202.63,278.421 2207.2,277.188 2211.79,274.723C2216.36,272.249 2220.19,268.734 2223.28,264.15C2226.34,259.633 2227.95,254.286 2227.9,248.829L2227.9,241.694ZM2302.93,111.989L2342.02,111.989L2342.02,142.371L2302.93,142.371L2302.93,111.989ZM2303.19,302.197L2303.19,167.197L2341.76,167.197L2341.76,302.197L2303.19,302.197ZM2409.65,187.015C2420.75,172.041 2435.1,164.558 2452.72,164.558C2466.45,164.558 2477.77,168.256 2486.66,175.652C2495.56,183.048 2500,193.794 2500,207.883L2500,302.197L2461.43,302.197L2461.43,216.338C2461.43,209.471 2459.45,203.786 2455.49,199.298C2451.53,194.81 2446.46,192.562 2440.3,192.562C2433.43,192.562 2427.53,195.157 2422.6,200.357C2417.66,205.548 2415.2,211.841 2415.2,219.246L2415.2,302.197L2376.63,302.197L2376.63,167.197L2405.43,167.197L2409.65,187.015ZM1174.11,494.515C1174.11,507.9 1177.76,518.247 1185.07,525.556C1192.38,532.865 1201.58,536.52 1212.67,536.52C1223.59,536.52 1232.13,533.256 1238.3,526.746C1244.46,520.227 1247.55,510.452 1247.55,497.414L1206.6,497.414L1206.6,467.831L1285.85,467.831L1285.85,530.444C1285.85,539.246 1286.08,546.997 1286.51,553.69C1286.95,560.383 1287.27,564.61 1287.44,566.364L1264.98,566.364C1262.58,559.677 1260.47,552.891 1258.65,546.025C1253,553.247 1245.65,558.881 1236.59,562.935C1227.49,566.99 1217.62,569.061 1207.66,569.011L1206.34,569.011C1191.89,569.011 1178.99,565.747 1167.64,559.237C1156.28,552.718 1147.38,543.386 1140.95,531.234C1134.52,519.081 1131.31,504.905 1131.31,488.699L1131.31,462.813C1131.31,446.607 1134.66,432.431 1141.35,420.279C1147.78,408.387 1157.57,398.646 1169.49,392.275C1181.55,385.756 1195.24,382.501 1210.56,382.501L1214.26,382.501C1227.47,382.501 1239.53,385.279 1250.45,390.826C1261.37,396.372 1270,404.211 1276.35,414.332C1282.68,424.463 1285.85,436.216 1285.85,449.602L1247.28,449.602C1247.28,438.152 1243.94,429.523 1237.25,423.716C1230.56,417.9 1222.1,414.992 1211.88,414.992C1200.79,414.992 1191.72,418.647 1184.68,425.956C1177.63,433.265 1174.11,443.612 1174.11,456.997L1174.11,494.515ZM1396.55,477.605C1396.55,472.145 1395.04,467.431 1392.05,463.473C1389.05,459.506 1384.31,457.527 1377.79,457.527C1371.62,457.527 1366.91,459.949 1363.65,464.793C1360.39,469.636 1358.77,475.669 1358.77,482.891L1358.77,566.364L1320.72,566.364L1320.72,431.372L1349.25,431.372L1354.01,451.19C1354.71,449.254 1356.52,446.52 1359.43,442.996C1362.34,439.48 1366.56,436.216 1372.11,433.221C1377.66,430.227 1384.22,428.734 1391.79,428.734C1403.94,428.734 1413.32,432.518 1419.92,440.096C1426.53,447.666 1429.83,457.701 1429.83,470.209C1429.83,472.848 1429.7,475.496 1429.44,478.135C1429.17,480.773 1428.95,482.622 1428.78,483.681L1396.55,483.681L1396.55,477.605ZM1580.15,502.701C1580.15,516.26 1577.28,528.065 1571.56,538.1C1566.08,547.897 1557.87,555.886 1547.92,561.086C1537.87,566.364 1526.61,569.011 1514.1,569.011L1509.87,569.011C1497.37,569.011 1486.09,566.364 1476.06,561.086C1466.11,555.886 1457.89,547.897 1452.41,538.1C1446.69,528.065 1443.83,516.26 1443.83,502.701L1443.83,495.044C1443.83,481.477 1446.69,469.68 1452.41,459.645C1458.14,449.602 1466.02,441.945 1476.06,436.659C1486.09,431.372 1497.37,428.734 1509.87,428.734L1514.1,428.734C1526.61,428.734 1537.87,431.372 1547.92,436.659C1557.87,441.858 1566.08,449.848 1571.56,459.645C1577.28,469.68 1580.15,481.477 1580.15,495.044L1580.15,502.701ZM1541.05,488.169C1541.05,477.431 1538.36,469.237 1532.99,463.603C1527.62,457.97 1520.62,455.148 1511.99,455.148C1503.36,455.148 1496.35,457.97 1490.98,463.603C1485.62,469.237 1482.92,477.431 1482.92,488.169L1482.92,509.567C1482.92,520.313 1485.62,528.499 1490.98,534.141C1496.35,539.775 1503.36,542.588 1511.99,542.588C1520.62,542.588 1527.62,539.775 1532.99,534.141C1538.36,528.499 1541.05,520.313 1541.05,509.567L1541.05,488.169ZM1731.78,534.671C1731.78,537.31 1732.57,539.289 1734.16,540.609C1735.75,541.928 1737.5,542.588 1739.44,542.588C1741.21,542.588 1743.14,542.24 1745.25,541.537C1747.37,540.834 1749.04,540.218 1750.27,539.688L1750.27,563.464C1743.76,567.162 1736.01,569.011 1727.02,569.011C1709.41,569.011 1699.2,562.579 1696.38,549.723C1685.29,562.579 1671.73,569.011 1655.69,569.011C1641.96,569.011 1630.64,565.313 1621.75,557.918C1612.86,550.513 1608.41,539.775 1608.41,525.687L1608.41,431.372L1646.98,431.372L1646.98,517.232C1646.98,524.098 1648.96,529.775 1652.92,534.272C1656.88,538.76 1661.95,541.008 1668.12,541.008C1674.98,541.008 1680.88,538.412 1685.82,533.213C1690.75,528.022 1693.21,521.72 1693.21,514.324L1693.21,431.372L1731.78,431.372L1731.78,534.671ZM1804.96,448.282C1814.82,435.253 1827.5,428.734 1843,428.734C1853.57,428.734 1863.07,431.286 1871.53,436.39C1879.98,441.503 1886.67,449.254 1891.61,459.645C1896.54,470.036 1899,482.891 1899,498.213L1899,501.121C1899,515.73 1896.71,528.152 1892.13,538.369C1887.55,548.577 1881.35,556.242 1873.51,561.346C1865.67,566.459 1856.82,569.011 1846.96,569.011C1838.51,569.011 1831.07,567.249 1824.63,563.725C1818.21,560.201 1813.06,555.886 1809.18,550.782L1809.18,614.185L1770.62,614.185L1770.62,431.372L1801,431.372L1804.96,448.282ZM1859.9,487.119C1859.9,476.728 1857.53,468.803 1852.77,463.343C1848.02,457.883 1841.94,455.148 1834.54,455.148C1827.14,455.148 1821.07,457.883 1816.32,463.343C1811.56,468.803 1809.18,476.728 1809.18,487.119L1809.18,509.046C1809.18,519.254 1811.56,527.136 1816.32,532.683C1821.07,538.23 1827.14,541.008 1834.54,541.008C1841.94,541.008 1848.02,538.23 1852.77,532.683C1857.53,527.136 1859.9,519.254 1859.9,509.046L1859.9,487.119Z" style="fill:rgb(51,51,51);fill-rule:nonzero;"/>
                <path d="M266.267,0.192L0,152.023L0,457.136L267.595,609.923L534.653,457.744L534.653,153.395L266.267,0.192Z" style="fill:rgb(0,235,171);"/>
                <path d="M620.686,71.077L354.418,222.909L354.418,528.013L622.014,680.808L889.071,528.629L889.071,224.28L620.686,71.077Z" style="fill:rgb(123,63,237);fill-opacity:0.9;"/>
            </g>
            <g transform="matrix(1,0,0,1,2384.46,920.81)">
                <g transform="matrix(1,0,0,1,1319.96,452.148)">
                    <path d="M0,-20.967C0,-31.666 -7.243,-39.558 -17.511,-39.558C-27.779,-39.558 -35.017,-31.774 -35.017,-20.967C-35.017,-9.835 -27.779,-2.161 -17.511,-2.161C-7.243,-2.161 0,-9.943 0,-20.967M12.538,-20.534C12.538,-3.348 1.729,8.432 -14.701,8.432C-23.887,8.432 -30.805,4.756 -35.017,-1.943L-35.017,28.967L-47.449,28.967L-47.449,-49.5L-35.017,-49.5L-35.017,-39.558C-30.805,-46.257 -23.887,-49.934 -14.916,-49.934C1.403,-49.934 12.538,-38.045 12.538,-20.534" style="fill:rgb(156,156,156);fill-rule:nonzero;"/>
                </g>
                <g transform="matrix(1,0,0,1,1352.48,431.288)">
                    <path d="M0,0.218C0,11.35 7.238,18.916 17.617,18.916C27.885,18.916 35.127,11.35 35.127,0.218C35.127,-10.807 27.885,-18.373 17.617,-18.373C7.238,-18.373 0,-10.807 0,0.218M47.555,0.108C47.555,17.401 35.343,29.292 17.617,29.292C-0.215,29.292 -12.432,17.401 -12.432,0.108C-12.432,-17.293 -0.215,-29.074 17.617,-29.074C35.343,-29.074 47.555,-17.293 47.555,0.108" style="fill:rgb(156,156,156);fill-rule:nonzero;"/>
                </g>
                <g transform="matrix(1,0,0,1,1464.88,402.647)">
                    <path d="M0,57.5L-14.591,14.915L-29.182,57.5L-41.935,57.5L-63.117,0L-50.364,0L-35.448,45.178L-20.967,0L-8.104,0L6.486,45.178L21.187,0L33.83,0L12.863,57.5L0,57.5Z" style="fill:rgb(156,156,156);fill-rule:nonzero;"/>
                </g>
                <g transform="matrix(1,0,0,1,1544.97,435.721)">
                    <path d="M0,-8.648C-0.431,-17.942 -6.592,-23.562 -15.999,-23.562C-25.075,-23.562 -31.451,-17.834 -32.858,-8.648L0,-8.648ZM10.809,0.431L-32.643,0.431C-30.695,9.294 -23.888,14.806 -14.807,14.806C-8.54,14.806 -2.81,12.429 1.403,8.104L7.999,15.132C2.379,21.29 -5.836,24.859 -15.783,24.859C-33.505,24.859 -45.18,13.078 -45.18,-4.215C-45.18,-21.618 -33.184,-33.399 -16.104,-33.507C4.107,-33.507 12.322,-20.321 10.809,0.431" style="fill:rgb(156,156,156);fill-rule:nonzero;"/>
                </g>
                <g transform="matrix(1,0,0,1,1581.17,448.258)">
                    <path d="M0,-34.155C3.887,-41.936 10.805,-46.044 19.885,-46.044L19.885,-34.155C8.32,-34.801 0.972,-27.994 0,-18.157L0,11.889L-12.432,11.889L-12.432,-45.61L0,-45.61L0,-34.155Z" style="fill:rgb(156,156,156);fill-rule:nonzero;"/>
                </g>
                <g transform="matrix(1,0,0,1,1651.1,435.721)">
                    <path d="M0,-8.648C-0.431,-17.942 -6.592,-23.562 -15.998,-23.562C-25.075,-23.562 -31.451,-17.834 -32.858,-8.648L0,-8.648ZM10.809,0.431L-32.643,0.431C-30.695,9.294 -23.887,14.806 -14.807,14.806C-8.54,14.806 -2.81,12.429 1.403,8.104L7.999,15.132C2.379,21.29 -5.835,24.859 -15.783,24.859C-33.505,24.859 -45.18,13.078 -45.18,-4.215C-45.18,-21.618 -33.184,-33.399 -16.104,-33.507C4.107,-33.507 12.322,-20.321 10.809,0.431" style="fill:rgb(156,156,156);fill-rule:nonzero;"/>
                </g>
                <g transform="matrix(1,0,0,1,1717.24,409.024)">
                    <path d="M0,22.59C0,11.458 -7.243,3.674 -17.617,3.674C-27.995,3.674 -35.237,11.565 -35.343,22.59C-35.237,33.507 -28.104,41.288 -17.617,41.288C-7.243,41.288 0,33.507 0,22.59M12.427,51.123L0,51.123L0,41.288C-4.107,47.988 -11.025,51.664 -20.211,51.664C-36.75,51.664 -47.775,39.665 -47.775,22.157C-47.775,4.864 -36.64,-6.917 -20.431,-6.917C-11.135,-6.917 -4.217,-3.133 0,3.566L0,-29.074L12.427,-29.074L12.427,51.123Z" style="fill:rgb(156,156,156);fill-rule:nonzero;"/>
                </g>
                <g transform="matrix(1,0,0,1,1824.45,409.349)">
                    <path d="M0,21.832C0,11.133 -7.243,3.241 -17.511,3.241C-27.779,3.241 -35.018,11.025 -35.018,21.832C-35.018,32.964 -27.779,40.638 -17.511,40.638C-7.243,40.638 0,32.856 0,21.832M12.537,22.265C12.537,39.451 1.728,51.231 -14.701,51.231C-23.888,51.231 -30.805,47.555 -35.018,40.856L-35.018,50.798L-47.449,50.798L-47.449,-29.399L-35.018,-29.399L-35.018,3.241C-30.805,-3.458 -23.888,-7.135 -14.917,-7.135C1.403,-7.135 12.537,4.754 12.537,22.265" style="fill:rgb(156,156,156);fill-rule:nonzero;"/>
                </g>
                <g transform="matrix(1,0,0,1,1870.37,416.266)">
                    <path d="M0,51.77C-3.566,60.851 -10.053,65.389 -18.698,65.389C-23.887,65.389 -27.995,63.876 -31.992,60.525L-26.697,50.906C-23.993,52.852 -21.833,53.716 -19.239,53.716C-15.457,53.716 -12.432,51.662 -10.483,47.34L-8.54,43.017L-32.317,-13.619L-19.455,-13.619L-2.269,29.938L13.725,-13.619L26.157,-13.619L0,51.77Z" style="fill:rgb(156,156,156);fill-rule:nonzero;"/>
                </g>
            </g>
            <g transform="matrix(1,0,0,1,2951.48,957.069)">
                <path d="M0,296.468C-2.555,296.468 -5.048,295.168 -6.459,292.819C-8.601,289.255 -7.449,284.629 -3.885,282.488C6.158,276.451 15.486,269.155 23.841,260.798C79.976,204.664 79.976,113.33 23.843,57.196C-1.708,31.648 -35.645,16.721 -71.717,15.165C-75.87,14.986 -79.092,11.472 -78.912,7.32C-78.734,3.165 -75.281,0 -71.067,0.121C-31.222,1.841 6.265,18.329 34.488,46.551C64.524,76.587 81.065,116.521 81.065,158.999C81.065,201.473 64.524,241.407 34.488,271.443C25.266,280.668 14.965,288.725 3.87,295.392C2.657,296.121 1.32,296.468 0,296.468" style="fill:rgb(51,204,255);fill-rule:nonzero;"/>
            </g>
            <g transform="matrix(1,0,0,1,2643.31,883.438)">
                <g opacity="0.6">
                    <g transform="matrix(1,0,0,1,187.873,76.3257)">
                        <path d="M0,309.321C-0.694,309.321 -1.4,309.224 -2.101,309.021C-27.657,301.605 -51.173,287.681 -70.104,268.749C-132.106,206.745 -132.106,105.86 -70.104,43.856C-48.441,22.193 -21.233,7.334 8.579,0.888C12.64,0 16.648,2.59 17.528,6.654C18.407,10.718 15.825,14.723 11.761,15.603C-15.218,21.437 -39.844,34.887 -59.458,54.502C-115.59,110.636 -115.59,201.969 -59.458,258.104C-42.316,275.245 -21.031,287.851 2.095,294.559C6.087,295.717 8.385,299.896 7.227,303.887C6.272,307.18 3.264,309.321 0,309.321" style="fill:rgb(51,204,255);fill-rule:nonzero;"/>
                    </g>
                </g>
            </g>
            <g transform="matrix(1,0,0,1,2873.33,1179.35)">
                <path d="M0,130.392C-49.99,130.392 -99.218,110.866 -136.584,73.499C-154.759,55.326 -168.904,34.162 -178.63,10.599C-180.216,6.755 -178.386,2.353 -174.542,0.768C-170.708,-0.823 -166.298,1.012 -164.712,4.852C-155.747,26.575 -142.702,46.089 -125.938,62.854C-70.375,118.418 13.651,131.215 83.147,94.693C86.827,92.76 91.379,94.178 93.313,97.854C95.248,101.535 93.832,106.085 90.152,108.019C61.526,123.064 30.617,130.392 0,130.392" style="fill:rgb(51,204,255);fill-rule:nonzero;"/>
            </g>
            <g transform="matrix(1,0,0,1,2983.69,1189.8)">
                <path d="M0,83.579C-2.31,83.579 -4.589,82.52 -6.065,80.518C-8.532,77.171 -7.819,72.46 -4.473,69.993C2.719,64.688 9.597,58.769 15.968,52.399C29.837,38.528 41.229,22.666 49.826,5.257C51.667,1.526 56.178,0 59.91,1.84C63.637,3.681 65.168,8.195 63.327,11.921C54.001,30.809 41.648,48.012 26.613,63.044C19.711,69.946 12.258,76.362 4.461,82.109C3.117,83.102 1.551,83.579 0,83.579" style="fill:rgb(51,204,255);fill-rule:nonzero;"/>
            </g>
            <g transform="matrix(1,0,0,1,2643.31,883.438)">
                <g opacity="0.7">
                    <g transform="matrix(1,0,0,1,406.19,20.4233)">
                        <path d="M0,279.821C-0.804,279.821 -1.623,279.689 -2.427,279.415C-6.362,278.074 -8.466,273.799 -7.127,269.864C14.981,204.952 -1.386,134.526 -49.841,86.07C-119.389,16.521 -232.554,16.527 -302.108,86.07C-334.821,118.788 -353.362,162.268 -354.315,208.507C-354.4,212.609 -357.752,215.879 -361.838,215.879C-361.891,215.879 -361.943,215.879 -361.997,215.876C-366.154,215.791 -369.453,212.353 -369.368,208.196C-368.334,158.054 -348.228,110.901 -312.755,75.425C-237.334,0 -114.616,0.003 -39.196,75.425C13.348,127.968 31.097,204.331 7.127,274.716C6.059,277.848 3.133,279.821 0,279.821" style="fill:rgb(51,204,255);fill-rule:nonzero;"/>
                    </g>
                </g>
            </g>
            <g transform="matrix(1,0,0,1,2763.61,879.53)">
                <path d="M0,52.899C-2.605,52.899 -5.139,51.546 -6.531,49.126C-8.606,45.524 -7.366,40.922 -3.764,38.846C51.048,7.289 117.238,0 177.842,18.861C181.812,20.096 184.029,24.316 182.794,28.286C181.557,32.253 177.333,34.473 173.369,33.235C116.757,15.62 54.934,22.419 3.749,51.896C2.566,52.576 1.273,52.899 0,52.899" style="fill:rgb(51,204,255);fill-rule:nonzero;"/>
            </g>
            <g transform="matrix(1,0,0,1,2680.38,931.135)">
                <path d="M0,86.038C-1.229,86.038 -2.476,85.738 -3.629,85.103C-7.27,83.094 -8.593,78.513 -6.584,74.872C3.733,56.17 16.691,38.961 31.932,23.723C39.574,16.08 47.794,8.94 56.365,2.497C59.688,0 64.407,0.671 66.906,3.994C69.404,7.317 68.733,12.037 65.41,14.536C57.403,20.553 49.722,27.225 42.578,34.368C28.337,48.607 16.232,64.683 6.599,82.148C5.227,84.632 2.654,86.038 0,86.038" style="fill:rgb(51,204,255);fill-rule:nonzero;"/>
            </g>
            <g transform="matrix(1,0,0,1,2643.31,883.438)">
                <g opacity="0.5">
                    <g transform="matrix(1,0,0,1,230.614,142.969)">
                        <path d="M0,317.611C-60.07,317.611 -118.666,293.812 -161.608,250.867C-225.911,186.564 -245.867,90.354 -212.446,5.761C-210.917,1.894 -206.541,0 -202.679,1.526C-198.812,3.055 -196.915,7.428 -198.443,11.295C-229.658,90.305 -211.021,180.162 -150.963,240.222C-103.332,287.855 -35.07,310.262 31.616,300.182C35.747,299.55 39.565,302.39 40.185,306.498C40.807,310.609 37.98,314.447 33.869,315.068C22.59,316.773 11.269,317.611 0,317.611" style="fill:rgb(51,204,255);fill-rule:nonzero;"/>
                    </g>
                </g>
            </g>
            <g transform="matrix(1,0,0,1,2945.12,1244.96)">
                <path d="M0,87.199C-3.129,87.199 -6.052,85.232 -7.122,82.106C-8.469,78.174 -6.372,73.893 -2.439,72.546C28.373,61.995 55.764,44.877 78.971,21.669C84.632,16.009 90.018,9.989 94.977,3.779C97.569,0.529 102.307,0 105.558,2.591C108.806,5.187 109.336,9.922 106.743,13.171C101.435,19.82 95.673,26.263 89.616,32.315C64.772,57.16 35.441,75.489 2.439,86.79C1.631,87.067 0.809,87.199 0,87.199" style="fill:rgb(51,204,255);fill-rule:nonzero;"/>
            </g>
            <g transform="matrix(1,0,0,1,2643.31,883.438)">
                <g opacity="0.6">
                    <g transform="matrix(1,0,0,1,444.654,68.4802)">
                        <path d="M0,223.001C-0.578,223.001 -1.165,222.933 -1.751,222.792C-5.796,221.828 -8.293,217.77 -7.328,213.723C9.976,141.116 -11.163,66.296 -63.874,13.585C-66.815,10.645 -66.815,5.881 -63.874,2.94C-60.936,0 -56.167,0 -53.229,2.94C3.21,59.377 25.844,139.48 7.318,217.217C6.493,220.672 3.405,223.001 0,223.001" style="fill:rgb(51,204,255);fill-rule:nonzero;"/>
                    </g>
                </g>
            </g>
            <g transform="matrix(0,-1,-1,0,2873.63,1043.29)">
                <path d="M-71.489,-71.489C-110.971,-71.489 -142.98,-39.482 -142.98,0.001C-142.98,39.483 -110.971,71.489 -71.489,71.489C-32.006,71.489 0.001,39.483 0.001,0.001C0.001,-39.482 -32.006,-71.489 -71.489,-71.489" style="fill:rgb(51,204,255);fill-rule:nonzero;"/>
            </g>
            <g transform="matrix(1,0,0,1,2643.31,883.438)">
                <clipPath id="_clip1">
                    <path d="M158.828,231.343C158.828,270.825 190.836,302.831 230.318,302.831C269.801,302.831 301.808,270.825 301.808,231.343C301.808,191.86 269.801,159.853 230.318,159.853C190.836,159.853 158.828,191.86 158.828,231.343Z" clip-rule="nonzero"/>
                </clipPath>
                <g clip-path="url(#_clip1)">
                    <g transform="matrix(1,0,0,1,158.829,302.832)">
                        <path d="M0,-30.201L52.31,0L0,0L0,-30.201Z" style="fill:rgb(51,204,255);fill-rule:nonzero;"/>
                    </g>
                    <g transform="matrix(0.866023,0.500005,0.500005,-0.866023,171.024,257.32)">
                        <path d="M-4.464,-16.658L62.17,-16.659L57.497,-19.357L-2.906,-19.357L-4.464,-16.658Z" style="fill:rgb(51,204,255);fill-rule:nonzero;"/>
                    </g>
                    <g transform="matrix(0.866029,0.499995,0.499995,-0.866029,172.164,253.064)">
                        <path d="M-4.881,-18.216L67.984,-18.216L63.31,-20.914L-3.323,-20.914L-4.881,-18.216Z" style="fill:rgb(51,204,255);fill-rule:nonzero;"/>
                    </g>
                    <g transform="matrix(0.866025,0.500001,0.500001,-0.866025,173.304,248.808)">
                        <path d="M-5.298,-19.774L73.797,-19.774L69.124,-22.472L-3.74,-22.473L-5.298,-19.774Z" style="fill:rgb(51,204,255);fill-rule:nonzero;"/>
                    </g>
                    <g transform="matrix(0.866025,0.500001,0.500001,-0.866025,174.445,244.552)">
                        <path d="M-5.716,-21.332L79.612,-21.332L74.938,-24.031L-4.158,-24.03L-5.716,-21.332Z" style="fill:rgb(51,204,255);fill-rule:nonzero;"/>
                    </g>
                    <g transform="matrix(0.866027,0.499998,0.499998,-0.866027,175.585,240.296)">
                        <path d="M-6.133,-22.889L85.425,-22.89L80.752,-25.587L-4.576,-25.587L-6.133,-22.889Z" style="fill:rgb(51,204,255);fill-rule:nonzero;"/>
                    </g>
                    <g transform="matrix(0.866024,0.500003,0.500003,-0.866024,176.726,236.04)">
                        <path d="M-6.551,-24.448L91.239,-24.448L86.566,-27.146L-4.993,-27.146L-6.551,-24.448Z" style="fill:rgb(51,204,255);fill-rule:nonzero;"/>
                    </g>
                    <g transform="matrix(0.866025,0.5,0.5,-0.866025,177.866,231.785)">
                        <path d="M-6.968,-26.005L97.052,-26.005L92.379,-28.703L-5.411,-28.703L-6.968,-26.005Z" style="fill:rgb(51,204,255);fill-rule:nonzero;"/>
                    </g>
                    <g transform="matrix(0.866025,0.5,0.5,-0.866025,179.006,227.528)">
                        <path d="M-7.385,-27.563L102.866,-27.563L98.193,-30.262L-5.827,-30.262L-7.385,-27.563Z" style="fill:rgb(51,204,255);fill-rule:nonzero;"/>
                    </g>
                    <g transform="matrix(0.866027,0.499998,0.499998,-0.866027,180.146,223.273)">
                        <path d="M-7.803,-29.121L108.68,-29.121L104.007,-31.818L-6.245,-31.818L-7.803,-29.121Z" style="fill:rgb(51,204,255);fill-rule:nonzero;"/>
                    </g>
                    <g transform="matrix(0.866025,0.500002,0.500002,-0.866025,181.287,219.016)">
                        <path d="M-8.22,-30.678L114.493,-30.678L109.82,-33.377L-6.662,-33.377L-8.22,-30.678Z" style="fill:rgb(51,204,255);fill-rule:nonzero;"/>
                    </g>
                    <g transform="matrix(0.866024,0.500002,0.500002,-0.866024,182.428,214.76)">
                        <path d="M-8.638,-32.237L120.308,-32.237L115.634,-34.935L-7.08,-34.934L-8.638,-32.237Z" style="fill:rgb(51,204,255);fill-rule:nonzero;"/>
                    </g>
                    <g transform="matrix(0.866026,0.5,0.5,-0.866026,183.568,210.505)">
                        <path d="M-9.055,-33.794L126.121,-33.794L121.448,-36.492L-7.498,-36.492L-9.055,-33.794Z" style="fill:rgb(51,204,255);fill-rule:nonzero;"/>
                    </g>
                    <g transform="matrix(0.866024,0.500003,0.500003,-0.866024,184.708,206.249)">
                        <path d="M-9.473,-35.352L131.935,-35.352L127.262,-38.05L-7.915,-38.051L-9.473,-35.352Z" style="fill:rgb(51,204,255);fill-rule:nonzero;"/>
                    </g>
                    <g transform="matrix(0.866027,0.499998,0.499998,-0.866027,185.848,201.993)">
                        <path d="M-9.89,-36.91L137.749,-36.91L133.075,-39.608L-8.332,-39.607L-9.89,-36.91Z" style="fill:rgb(51,204,255);fill-rule:nonzero;"/>
                    </g>
                    <g transform="matrix(1,0,0,1,158.829,302.832)">
                        <path d="M0,-76.935L131.904,-0.78L131.454,0L127.859,0L0,-73.819L0,-76.935Z" style="fill:rgb(51,204,255);fill-rule:nonzero;"/>
                    </g>
                    <g transform="matrix(0.866024,0.500002,0.500002,-0.866024,187.573,194.778)">
                        <path d="M-10.891,-38.624L142.976,-38.624L142.976,-41.322L-9.334,-41.321L-10.891,-38.624Z" style="fill:rgb(51,204,255);fill-rule:nonzero;"/>
                    </g>
                    <g transform="matrix(0.866026,0.5,0.5,-0.866026,187.858,191.377)">
                        <path d="M-10.996,-39.013L144.431,-39.013L144.429,-41.711L-9.438,-41.711L-10.996,-39.013Z" style="fill:rgb(51,204,255);fill-rule:nonzero;"/>
                    </g>
                    <g transform="matrix(0.866025,0.5,0.5,-0.866025,188.143,187.976)">
                        <path d="M-11.1,-39.402L145.884,-39.402L145.884,-42.1L-9.542,-42.101L-11.1,-39.402Z" style="fill:rgb(51,204,255);fill-rule:nonzero;"/>
                    </g>
                    <g transform="matrix(0.866025,0.500001,0.500001,-0.866025,188.428,184.576)">
                        <path d="M-11.204,-39.792L147.337,-39.792L147.337,-42.49L-9.647,-42.49L-11.204,-39.792Z" style="fill:rgb(51,204,255);fill-rule:nonzero;"/>
                    </g>
                    <g transform="matrix(0.866024,0.500002,0.500002,-0.866024,188.713,181.175)">
                        <path d="M-11.309,-40.181L148.791,-40.181L148.79,-42.879L-9.751,-42.88L-11.309,-40.181Z" style="fill:rgb(51,204,255);fill-rule:nonzero;"/>
                    </g>
                    <g transform="matrix(0.866027,0.499998,0.499998,-0.866027,188.998,177.775)">
                        <path d="M-11.413,-40.571L150.244,-40.571L150.244,-43.269L-9.856,-43.268L-11.413,-40.571Z" style="fill:rgb(51,204,255);fill-rule:nonzero;"/>
                    </g>
                    <g transform="matrix(0.866026,0.499999,0.499999,-0.866026,189.283,174.374)">
                        <path d="M-11.517,-40.96L151.697,-40.96L151.697,-43.658L-9.959,-43.659L-11.517,-40.96Z" style="fill:rgb(51,204,255);fill-rule:nonzero;"/>
                    </g>
                    <g transform="matrix(0.866026,0.499999,0.499999,-0.866026,189.568,170.973)">
                        <path d="M-11.622,-41.35L153.15,-41.35L153.151,-44.048L-10.064,-44.047L-11.622,-41.35Z" style="fill:rgb(51,204,255);fill-rule:nonzero;"/>
                    </g>
                    <g transform="matrix(1,0,0,1,158.829,283.359)">
                        <path d="M0,-85.502L142.979,-2.953L142.979,-0.489L142.697,0L0,-82.387L0,-85.502Z" style="fill:rgb(51,204,255);fill-rule:nonzero;"/>
                    </g>
                    <g transform="matrix(0.866025,0.5,0.5,-0.866025,189.823,164.735)">
                        <path d="M-11.838,-41.483L153.259,-41.483L154.817,-44.182L-10.28,-44.182L-11.838,-41.483Z" style="fill:rgb(51,204,255);fill-rule:nonzero;"/>
                    </g>
                    <g transform="matrix(0.866025,0.5,0.5,-0.866025,189.823,161.619)">
                        <path d="M-11.838,-41.483L153.259,-41.483L154.817,-44.182L-10.281,-44.181L-11.838,-41.483Z" style="fill:rgb(51,204,255);fill-rule:nonzero;"/>
                    </g>
                    <g transform="matrix(0.866025,0.5,0.5,-0.866025,189.823,158.503)">
                        <path d="M-11.838,-41.483L153.259,-41.483L154.817,-44.182L-10.28,-44.182L-11.838,-41.483Z" style="fill:rgb(51,204,255);fill-rule:nonzero;"/>
                    </g>
                    <g transform="matrix(0.866025,0.5,0.5,-0.866025,189.823,155.388)">
                        <path d="M-11.838,-41.483L153.259,-41.483L154.817,-44.182L-10.281,-44.181L-11.838,-41.483Z" style="fill:rgb(51,204,255);fill-rule:nonzero;"/>
                    </g>
                    <g transform="matrix(0.866025,0.5,0.5,-0.866025,189.823,152.273)">
                        <path d="M-11.838,-41.483L153.259,-41.483L154.817,-44.182L-10.281,-44.181L-11.838,-41.483Z" style="fill:rgb(51,204,255);fill-rule:nonzero;"/>
                    </g>
                    <g transform="matrix(1,0,0,1,158.829,264.339)">
                        <path d="M0,-84.524L0.282,-85.013L142.979,-2.627L142.979,0.489L0,-82.06L0,-84.524Z" style="fill:rgb(51,204,255);fill-rule:nonzero;"/>
                    </g>
                    <g transform="matrix(0.499926,-0.866068,-0.866068,-0.499926,160.126,261.134)">
                        <path d="M70.344,41.777L73.042,41.777L73.027,-121.438L70.329,-122.995L70.344,41.777Z" style="fill:rgb(51,204,255);fill-rule:nonzero;"/>
                    </g>
                    <g transform="matrix(0.499926,-0.866068,-0.866068,-0.499926,161.475,258.018)">
                        <path d="M69.669,41.388L72.367,41.388L72.353,-120.269L69.655,-121.826L69.669,41.388Z" style="fill:rgb(51,204,255);fill-rule:nonzero;"/>
                    </g>
                    <g transform="matrix(0.499926,-0.866068,-0.866068,-0.499926,162.825,254.903)">
                        <path d="M68.994,40.999L71.693,40.999L71.679,-119.101L68.981,-120.658L68.994,40.999Z" style="fill:rgb(51,204,255);fill-rule:nonzero;"/>
                    </g>
                    <g transform="matrix(0.499926,-0.866068,-0.866068,-0.499926,164.173,251.787)">
                        <path d="M68.32,40.609L71.018,40.609L71.005,-117.933L68.306,-119.49L68.32,40.609Z" style="fill:rgb(51,204,255);fill-rule:nonzero;"/>
                    </g>
                    <g transform="matrix(0.499926,-0.866068,-0.866068,-0.499926,165.523,248.672)">
                        <path d="M67.645,40.22L70.344,40.22L70.33,-116.764L67.632,-118.322L67.645,40.22Z" style="fill:rgb(51,204,255);fill-rule:nonzero;"/>
                    </g>
                    <g transform="matrix(0.499926,-0.866068,-0.866068,-0.499926,166.872,245.556)">
                        <path d="M66.971,39.83L69.669,39.83L69.656,-115.596L66.957,-117.154L66.971,39.83Z" style="fill:rgb(51,204,255);fill-rule:nonzero;"/>
                    </g>
                    <g transform="matrix(0.499926,-0.866068,-0.866068,-0.499926,168.221,242.44)">
                        <path d="M66.296,39.441L68.995,39.441L68.982,-114.427L66.283,-115.985L66.296,39.441Z" style="fill:rgb(51,204,255);fill-rule:nonzero;"/>
                    </g>
                    <g transform="matrix(0.499926,-0.866068,-0.866068,-0.499926,169.57,239.325)">
                        <path d="M65.622,39.052L68.32,39.052L68.307,-113.259L65.608,-114.817L65.622,39.052Z" style="fill:rgb(51,204,255);fill-rule:nonzero;"/>
                    </g>
                    <g transform="matrix(1,0,0,1,169.903,236.007)">
                        <path d="M0,-75.375L0.45,-76.155L4.045,-76.155L131.905,-2.336L131.905,0.78L0,-75.375Z" style="fill:rgb(51,204,255);fill-rule:nonzero;"/>
                    </g>
                    <g transform="matrix(0.866026,0.5,0.5,-0.866026,205.642,135.531)">
                        <path d="M-10.613,-34.212L130.795,-34.212L132.353,-36.909L-15.286,-36.91L-10.613,-34.212Z" style="fill:rgb(51,204,255);fill-rule:nonzero;"/>
                    </g>
                    <g transform="matrix(0.866026,0.5,0.5,-0.866026,209.898,136.671)">
                        <path d="M-10.196,-32.654L124.981,-32.654L126.539,-35.352L-14.869,-35.352L-10.196,-32.654Z" style="fill:rgb(51,204,255);fill-rule:nonzero;"/>
                    </g>
                    <g transform="matrix(0.866024,0.500002,0.500002,-0.866024,214.154,137.811)">
                        <path d="M-9.778,-31.096L119.168,-31.096L120.725,-33.794L-14.451,-33.794L-9.778,-31.096Z" style="fill:rgb(51,204,255);fill-rule:nonzero;"/>
                    </g>
                    <g transform="matrix(0.866027,0.499998,0.499998,-0.866027,218.41,138.952)">
                        <path d="M-9.361,-29.538L113.354,-29.538L114.912,-32.237L-14.034,-32.236L-9.361,-29.538Z" style="fill:rgb(51,204,255);fill-rule:nonzero;"/>
                    </g>
                    <g transform="matrix(0.866027,0.499998,0.499998,-0.866027,222.666,140.092)">
                        <path d="M-8.943,-27.98L107.539,-27.98L109.097,-30.679L-13.616,-30.678L-8.943,-27.98Z" style="fill:rgb(51,204,255);fill-rule:nonzero;"/>
                    </g>
                    <g transform="matrix(0.866025,0.5,0.5,-0.866025,226.922,141.233)">
                        <path d="M-8.526,-26.423L101.726,-26.423L103.284,-29.12L-13.199,-29.121L-8.526,-26.423Z" style="fill:rgb(51,204,255);fill-rule:nonzero;"/>
                    </g>
                    <g transform="matrix(0.866028,0.499996,0.499996,-0.866028,231.178,142.373)">
                        <path d="M-8.108,-24.865L95.912,-24.865L97.47,-27.563L-12.781,-27.563L-8.108,-24.865Z" style="fill:rgb(51,204,255);fill-rule:nonzero;"/>
                    </g>
                    <g transform="matrix(0.866024,0.500003,0.500003,-0.866024,235.434,143.513)">
                        <path d="M-7.691,-23.307L90.099,-23.307L91.656,-26.005L-12.364,-26.005L-7.691,-23.307Z" style="fill:rgb(51,204,255);fill-rule:nonzero;"/>
                    </g>
                    <g transform="matrix(0.866027,0.499998,0.499998,-0.866027,239.69,144.654)">
                        <path d="M-7.274,-21.749L84.285,-21.749L85.843,-24.448L-11.947,-24.447L-7.274,-21.749Z" style="fill:rgb(51,204,255);fill-rule:nonzero;"/>
                    </g>
                    <g transform="matrix(0.866025,0.500001,0.500001,-0.866025,243.946,145.794)">
                        <path d="M-6.856,-20.192L78.472,-20.192L80.029,-22.889L-11.529,-22.89L-6.856,-20.192Z" style="fill:rgb(51,204,255);fill-rule:nonzero;"/>
                    </g>
                    <g transform="matrix(0.866025,0.500001,0.500001,-0.866025,248.202,146.935)">
                        <path d="M-6.439,-18.634L72.657,-18.634L74.215,-21.332L-11.112,-21.332L-6.439,-18.634Z" style="fill:rgb(51,204,255);fill-rule:nonzero;"/>
                    </g>
                    <g transform="matrix(0.866029,0.499995,0.499995,-0.866029,252.457,148.075)">
                        <path d="M-6.021,-17.076L66.843,-17.076L68.401,-19.774L-10.694,-19.774L-6.021,-17.076Z" style="fill:rgb(51,204,255);fill-rule:nonzero;"/>
                    </g>
                    <g transform="matrix(0.866026,0.499998,0.499998,-0.866026,256.714,149.215)">
                        <path d="M-5.604,-15.518L61.03,-15.518L62.588,-18.216L-10.277,-18.216L-5.604,-15.518Z" style="fill:rgb(51,204,255);fill-rule:nonzero;"/>
                    </g>
                    <g transform="matrix(0.866027,0.499998,0.499998,-0.866027,260.97,150.356)">
                        <path d="M-5.187,-13.96L55.216,-13.96L56.774,-16.659L-9.86,-16.658L-5.187,-13.96Z" style="fill:rgb(51,204,255);fill-rule:nonzero;"/>
                    </g>
                    <g transform="matrix(1,0,0,1,301.808,159.853)">
                        <path d="M0,30.201L-52.31,0L0,0L0,30.201Z" style="fill:rgb(51,204,255);fill-rule:nonzero;"/>
                    </g>
                </g>
            </g>
            <g transform="matrix(1,0,0,1,2872.56,1000.89)">
                <path d="M0,227.783C-62.801,227.783 -113.89,176.692 -113.89,113.892C-113.89,51.091 -62.801,0 0,0C42.786,0 81.58,23.631 101.238,61.668C103.281,65.621 101.735,70.482 97.782,72.523C93.833,74.566 88.969,73.022 86.929,69.067C70.043,36.402 36.738,16.109 0,16.109C-53.917,16.109 -97.781,59.975 -97.781,113.892C-97.781,167.808 -53.917,211.674 0,211.674C53.917,211.674 97.782,167.808 97.782,113.892C97.782,109.442 101.388,105.837 105.837,105.837C110.286,105.837 113.891,109.442 113.891,113.892C113.891,176.692 62.801,227.783 0,227.783" style="fill:rgb(51,204,255);fill-rule:nonzero;"/>
            </g>
        </g>
    </g>
</svg>
