<svg xmlns="http://www.w3.org/2000/svg" width="15" height="15" viewBox="0 0 15 15">
    <g fill="#919D9D" fill-rule="evenodd">
        <path fill-rule="nonzero" d="M7.5 0C3.365 0 0 3.364 0 7.5S3.365 15 7.5 15c4.136 0 7.5-3.364 7.5-7.5S11.636 0 7.5 0zm0 13.77A6.278 6.278 0 0 1 1.23 7.5 6.278 6.278 0 0 1 7.5 1.23a6.278 6.278 0 0 1 6.27 6.27 6.278 6.278 0 0 1-6.27 6.27z"/>
        <path d="M12.218 8.534a.256.256 0 0 1-.173.069H7.153a.256.256 0 0 1-.173-.069.256.256 0 0 1-.069-.173V3.47c0-.063.027-.13.069-.173a.256.256 0 0 1 .173-.068h.525c.063 0 .126.02.173.068.042.042.068.11.068.173v4.126h4.126c.063 0 .131.026.173.068.042.042.068.11.068.173v.525a.256.256 0 0 1-.068.173z"/>
    </g>
</svg>
