<svg xmlns="http://www.w3.org/2000/svg" xmlns:xlink="http://www.w3.org/1999/xlink" width="60" height="60" viewBox="0 0 60 60">
    <defs>
        <rect id="a" width="60" height="60" rx="7"/>
    </defs>
    <g fill="none" fill-rule="evenodd">
        <g>
            <use fill="#FFF" xlink:href="#a"/>
            <rect width="59" height="59" x=".5" y=".5" stroke="#FFFFFF" rx="7"/>
        </g>
        <path fill="#000" d="M25.523 37.118a.438.438 0 0 0-.066.018.594.594 0 0 0-.454.7.6.6 0 0 0 .17.317c1.293 1.336 3.22 1.547 4.76 1.553h.117c1.549 0 3.486-.204 4.794-1.553a.61.61 0 0 0 .008-.842.56.56 0 0 0-.476-.175.576.576 0 0 0-.334.188c-.911.942-2.517 1.183-3.942 1.191h-.066a.21.21 0 0 0-.034 0h-.083c-1.42-.008-3.02-.252-3.926-1.19a.569.569 0 0 0-.468-.207zm9.02-7.195c-1.14 0-2.072.96-2.072 2.14 0 1.177.933 2.139 2.072 2.139 1.14 0 2.071-.962 2.071-2.14 0-1.178-.931-2.139-2.07-2.139zm-9.053 0c-1.141 0-2.072.961-2.072 2.14 0 1.177.93 2.139 2.072 2.139 1.14 0 2.071-.962 2.071-2.14 0-1.179-.931-2.139-2.071-2.139zm16.102-2.536c1.254 0 2.255 1.034 2.255 2.33 0 .75-.342 1.417-.868 1.846-.49-1.405-1.44-2.675-2.706-3.727.368-.284.818-.45 1.32-.45zm-23.185 0c.472 0 .894.16 1.252.414-1.26 1.038-2.214 2.292-2.721 3.675a2.342 2.342 0 0 1-.786-1.76c0-1.295 1.003-2.33 2.255-2.33zm11.543-1.691c3.443 0 6.542.96 8.753 2.45 2.21 1.49 3.49 3.464 3.49 5.607 0 2.143-1.28 4.135-3.49 5.626-2.21 1.489-5.31 2.432-8.753 2.432-3.444 0-6.543-.943-8.754-2.432-2.21-1.49-3.524-3.483-3.524-5.626 0-2.143 1.314-4.116 3.524-5.607 2.21-1.49 5.31-2.45 8.754-2.45zm10.222-7.488c.921 0 1.654.772 1.654 1.725 0 .953-.733 1.709-1.654 1.709-.924 0-1.653-.756-1.653-1.709 0-.953.73-1.725 1.653-1.725zm0-1.207c-1.154 0-2.159.737-2.588 1.777L32.339 17.5a.597.597 0 0 0-.184-.036.583.583 0 0 0-.501.433l-2.055 6.624c-3.457.061-6.591 1.005-8.937 2.554a3.314 3.314 0 0 0-2.255-.88c-1.876 0-3.407 1.58-3.407 3.52 0 1.259.654 2.372 1.62 3.002a6.494 6.494 0 0 0-.1 1.034c0 2.637 1.607 4.968 4.042 6.61C22.998 42.001 26.303 43 29.95 43c3.646 0 6.951-.998 9.387-2.639 2.436-1.641 4.009-3.972 4.009-6.609 0-.329-.019-.664-.067-.982A3.545 3.545 0 0 0 45 29.716c0-1.94-1.53-3.52-3.408-3.52-.887 0-1.682.357-2.288.932-2.237-1.498-5.2-2.444-8.485-2.589l1.77-5.745 4.777 1.156c.01 1.589 1.266 2.881 2.806 2.881 1.545 0 2.807-1.301 2.807-2.898 0-1.597-1.262-2.933-2.807-2.933z"/>
    </g>
</svg>
