<svg xmlns="http://www.w3.org/2000/svg" xmlns:xlink="http://www.w3.org/1999/xlink" width="60" height="60" viewBox="0 0 60 60">
    <defs>
        <rect id="a" width="60" height="60" rx="7"/>
    </defs>
    <g fill="none" fill-rule="evenodd">
        <g>
            <use fill="#FFF" xlink:href="#a"/>
            <rect width="59" height="59" x=".5" y=".5" stroke="#FFFFFF" rx="7"/>
        </g>
        <path fill="#000" d="M26.553 40.813c-2.838 0-4.887-1.806-4.887-3.975 0-2.126 2.543-3.897 5.38-3.866.66.008 1.278.114 1.838.296 1.54 1.078 2.645 1.686 2.957 2.914.059.25.091.504.091.766 0 2.17-1.39 3.865-5.379 3.865m.746-12.722c-1.905-.058-3.715-2.142-4.043-4.657-.328-2.514.949-4.44 2.853-4.383 1.902.058 3.714 2.075 4.042 4.59.329 2.515-.948 4.508-2.852 4.45m3.947 3.724c-.668-.476-1.944-1.632-1.944-2.312 0-.798.226-1.19 1.418-2.126 1.222-.961 2.088-2.312 2.088-3.88 0-1.872-.828-3.694-2.383-4.295h2.343L34.423 18H27.03c-3.312 0-6.431 2.524-6.431 5.448 0 2.989 2.259 5.4 5.63 5.4.235 0 .461-.004.684-.02-.217.42-.376.895-.376 1.386 0 .832.445 1.506 1.008 2.055-.426 0-.837.013-1.282.013-4.104 0-7.264 2.627-7.264 5.355C19 40.32 22.465 42 26.568 42c4.678 0 7.264-2.67 7.264-5.355 0-2.152-.633-3.442-2.586-4.83M42 28.31h-2.877v-2.893h-2.316v2.893H33.93v2.33h2.877v2.892h2.316v-2.893H42v-2.33"/>
    </g>
</svg>
