<?xml version="1.0" encoding="UTF-8"?>
<svg width="10px" height="11px" viewBox="0 0 10 11" version="1.1" xmlns="http://www.w3.org/2000/svg" xmlns:xlink="http://www.w3.org/1999/xlink">
    <!-- Generator: Sketch 48.2 (47327) - http://www.bohemiancoding.com/sketch -->
    <title>Shape</title>
    <desc>Created with Sketch.</desc>
    <defs></defs>
    <g id="sign-up-button" stroke="none" stroke-width="1" fill="none" fill-rule="evenodd" transform="translate(-22.000000, -9.000000)">
        <path d="M30.5714286,12.4375 C30.5714286,10.54 28.9714286,9 27,9 C25.0285714,9 23.4285714,10.54 23.4285714,12.4375 C23.4285714,13.4825 23.9128571,14.418875 24.6785714,15.05 C23.0857143,15.854375 22,17.460375 22,19.3125 C22,19.692 22.32,20 22.7142857,20 C23.1085714,20 23.4285714,19.692 23.4285714,19.3125 C23.4285714,17.415 25.0285714,15.875 27,15.875 C28.9714286,15.875 30.5714286,17.415 30.5714286,19.3125 C30.5714286,19.692 30.8914286,20 31.2857143,20 C31.68,20 32,19.692 32,19.3125 C32,17.4610625 30.9142857,15.854375 29.3214286,15.05 C30.0878571,14.4175 30.5714286,13.4825 30.5714286,12.4375 Z M27,14.5 C25.8164286,14.5 24.8571429,13.5766875 24.8571429,12.4375 C24.8571429,11.2983125 25.8164286,10.375 27,10.375 C28.1835714,10.375 29.1428571,11.2983125 29.1428571,12.4375 C29.1428571,13.5766875 28.1835714,14.5 27,14.5 Z" id="Shape" fill="#FFFFFF"></path>
    </g>
</svg>