<?xml version="1.0" encoding="utf-8"?>
<!-- Generator: Adobe Illustrator 22.0.1, SVG Export Plug-In . SVG Version: 6.00 Build 0)  -->
<svg version="1.1" id="Layer_1" xmlns="http://www.w3.org/2000/svg" xmlns:xlink="http://www.w3.org/1999/xlink" x="0px" y="0px"
	 viewBox="0 0 222.3 222.3" style="enable-background:new 0 0 222.3 222.3;" xml:space="preserve">
<style type="text/css">
	.st0{clip-path:url(#SVGID_2_);}
	.st1{clip-path:url(#SVGID_4_);fill:#46C8F5;}
	.st2{fill:#46C8F5;}
	.st3{clip-path:url(#SVGID_6_);}
	.st4{clip-path:url(#SVGID_8_);fill:#CACCCB;}
	.st5{fill:#CACCCB;}
</style>
<g>
	<g>
		<defs>
			<path id="SVGID_1_" d="M67.3,471.8c-5.5,0-10-4.6-10-10.3v-41.2c0-5.7,4.5-10.3,10-10.3h19.2c2.8,0,5.9-2.2,7.1-4.7
				c1.2-2.5,15.6-34.6,15.6-34.6c1.8-3.9,6.3-5.6,10.1-3.6c0,0,3.7,1.8,6,3.7c4.4,3.5,7.2,8,7.1,13.4c0.1,3.4-0.5,8.4-1.6,14.7
				c-0.3,1.7-1.6,8.5-1.6,8.5c-0.3,1.4,0.6,2.5,2,2.5l18.1,0c8.7,0,14.7,7.5,12.9,16.2c-0.1,0.3-6.4,26.3-7.5,29.3
				c-4.3,11.8-14.1,16.4-29.8,16.2C117.9,471.8,67.3,471.8,67.3,471.8L67.3,471.8z M77.4,420.4h-10l0,41.1c0,0,4.1,0,10,0V420.4z
				 M125.2,461.5c11.1,0.1,16.7-2.2,19.5-7.7h-2c-2.8,0-5-2.3-5-5.1c0-2.8,2.2-5.1,5-5.1h5c0.4-1.6,0.9-3.4,1.3-5.1h-3.8
				c-2.8,0-5-2.3-5-5.1c0-2.8,2.2-5.1,5-5.1h6.4c0.6-2.3,1-3.9,1-3.9c0.5-2.3-0.7-3.8-3.1-3.8l-18.1,0c-7.7,0-13.4-7-11.9-14.8
				c0.1-0.3,1.5-7.7,1.6-8.3c1-6,1.5-10.3,1.5-12.8l0-0.4c0-1.5-0.9-3.2-3.3-5.1c-0.3-0.2-2-1.3-2-1.3l-14.5,32
				c-2.7,5.9-9,10.2-15.3,10.6v41.2C103.3,461.5,123.2,461.5,125.2,461.5L125.2,461.5z"/>
		</defs>
		<use xlink:href="#SVGID_1_"  style="overflow:visible;fill-rule:evenodd;clip-rule:evenodd;fill:#46C8F5;"/>
		<clipPath id="SVGID_2_">
			<use xlink:href="#SVGID_1_"  style="overflow:visible;"/>
		</clipPath>
		<g class="st0">
			<defs>
				<rect id="SVGID_3_" x="-602.3" y="-2189.8" width="5619.8" height="7707.8"/>
			</defs>
			<use xlink:href="#SVGID_3_"  style="overflow:visible;fill:#46C8F5;"/>
			<clipPath id="SVGID_4_">
				<use xlink:href="#SVGID_3_"  style="overflow:visible;"/>
			</clipPath>
		</g>
	</g>
</g>
<g>
	<g>
		<defs>
			<path id="SVGID_5_" d="M67.3,156c-5.5,0-10-4.6-10-10.3v-41.2c0-5.7,4.5-10.3,10-10.3h19.2c2.8,0,5.9-2.2,7.1-4.7
				c1.2-2.5,15.6-34.6,15.6-34.6c1.8-3.9,6.3-5.6,10.1-3.6c0,0,3.7,1.8,6,3.7c4.4,3.5,7.2,8,7.1,13.4c0.1,3.4-0.5,8.4-1.6,14.7
				c-0.3,1.7-1.6,8.5-1.6,8.5c-0.3,1.4,0.6,2.5,2,2.5l18.1,0c8.7,0,14.7,7.5,12.9,16.2c-0.1,0.3-6.4,26.3-7.5,29.3
				c-4.3,11.8-14.1,16.4-29.8,16.2C117.9,156,67.3,156,67.3,156L67.3,156z M77.4,104.6h-10l0,41.1c0,0,4.1,0,10,0V104.6z
				 M125.2,145.7c11.1,0.1,16.7-2.2,19.5-7.7h-2c-2.8,0-5-2.3-5-5.1c0-2.8,2.2-5.1,5-5.1h5c0.4-1.6,0.9-3.4,1.3-5.1h-3.8
				c-2.8,0-5-2.3-5-5.1c0-2.8,2.2-5.1,5-5.1h6.4c0.6-2.3,1-3.9,1-3.9c0.5-2.3-0.7-3.8-3.1-3.8l-18.1,0c-7.7,0-13.4-7-11.9-14.8
				c0.1-0.3,1.5-7.7,1.6-8.3c1-6,1.5-10.3,1.5-12.8l0-0.4c0-1.5-0.9-3.2-3.3-5.1c-0.3-0.2-2-1.3-2-1.3l-14.5,32
				c-2.7,5.9-9,10.2-15.3,10.6v41.2C103.3,145.7,123.2,145.7,125.2,145.7L125.2,145.7z"/>
		</defs>
		<use xlink:href="#SVGID_5_"  style="overflow:visible;fill-rule:evenodd;clip-rule:evenodd;fill:#CACCCB;"/>
		<clipPath id="SVGID_6_">
			<use xlink:href="#SVGID_5_"  style="overflow:visible;"/>
		</clipPath>
		<g class="st3">
			<defs>
				<rect id="SVGID_7_" x="-602.3" y="-2505.6" width="5619.8" height="7707.8"/>
			</defs>
			<use xlink:href="#SVGID_7_"  style="overflow:visible;fill:#CACCCB;"/>
			<clipPath id="SVGID_8_">
				<use xlink:href="#SVGID_7_"  style="overflow:visible;"/>
			</clipPath>
			<rect x="37.8" y="31.1" class="st4" width="144.4" height="144.4"/>
		</g>
	</g>
</g>
<g>
	<path class="st5" d="M208.3,222.3H14c-7.7,0-14-6.3-14-14V14C0,6.3,6.3,0,14,0h194.3c7.7,0,14,6.3,14,14v194.3
		C222.3,216,216,222.3,208.3,222.3z M14,8c-3.3,0-6,2.7-6,6v194.3c0,3.3,2.7,6,6,6h194.3c3.3,0,6-2.7,6-6V14c0-3.3-2.7-6-6-6H14z"/>
</g>
</svg>
