<?xml version="1.0" encoding="UTF-8"?>
<svg width="23px" height="23px" viewBox="0 0 23 23" version="1.1" xmlns="http://www.w3.org/2000/svg" xmlns:xlink="http://www.w3.org/1999/xlink">
    <!-- Generator: Sketch 48.2 (47327) - http://www.bohemiancoding.com/sketch -->
    <title>Shape</title>
    <desc>Created with Sketch.</desc>
    <defs></defs>
    <g id="trash" stroke="none" stroke-width="1" fill="none" fill-rule="evenodd" transform="translate(-13.000000, -13.000000)">
        <path d="M34.5625,18.75 L34.5625,33.125 C34.5625,34.7134375 33.2759375,36 31.6875,36 L17.3125,36 C15.7240625,36 14.4375,34.7134375 14.4375,33.125 L14.4375,18.75 C13.644,18.75 13,18.106 13,17.3125 C13,16.519 13.644,15.875 14.4375,15.875 L21.625,15.875 C21.625,14.2865625 22.9115625,13 24.5,13 C26.0884375,13 27.375,14.2865625 27.375,15.875 L34.5625,15.875 C35.356,15.875 36,16.519 36,17.3125 C36,18.106 35.356,18.75 34.5625,18.75 Z M20.1875,20.1875 C20.981,20.1875 21.625,20.8315 21.625,21.625 L21.625,30.25 C21.625,31.0435 20.981,31.6875 20.1875,31.6875 C19.394,31.6875 18.75,31.0435 18.75,30.25 L18.75,21.625 C18.75,20.8315 19.394,20.1875 20.1875,20.1875 Z M24.5,20.1875 C25.2935,20.1875 25.9375,20.8315 25.9375,21.625 L25.9375,30.25 C25.9375,31.0435 25.2935,31.6875 24.5,31.6875 C23.7065,31.6875 23.0625,31.0435 23.0625,30.25 L23.0625,21.625 C23.0625,20.8315 23.7065,20.1875 24.5,20.1875 Z M28.8125,20.1875 C29.606,20.1875 30.25,20.8315 30.25,21.625 L30.25,30.25 C30.25,31.0435 29.606,31.6875 28.8125,31.6875 C28.019,31.6875 27.375,31.0435 27.375,30.25 L27.375,21.625 C27.375,20.8315 28.019,20.1875 28.8125,20.1875 Z" id="Shape" fill="#3A5B6E"></path>
    </g>
</svg>