<?xml version="1.0" encoding="UTF-8"?>
<svg width="70px" height="70px" viewBox="0 0 70 70" version="1.1" xmlns="http://www.w3.org/2000/svg" xmlns:xlink="http://www.w3.org/1999/xlink">
    <!-- Generator: Sketch 48.2 (47327) - http://www.bohemiancoding.com/sketch -->
    <title>Reddit</title>
    <desc>Created with Sketch.</desc>
    <defs></defs>
    <g id="SALT---Admin---Thank-you-support" stroke="none" stroke-width="1" fill="none" fill-rule="evenodd" transform="translate(-220.000000, -530.000000)">
        <g id="Share" transform="translate(120.000000, 530.000000)">
            <g id="Reddit" transform="translate(100.000000, 0.000000)">
                <circle id="Oval-1-Copy-28" fill="#FF4500" cx="35" cy="35" r="35"></circle>
                <g id="Group-12" transform="translate(18.000000, 20.000000)" fill="#FFFFFF">
                    <path d="M24.1875,15 C22.9784444,15 22,15.9693343 22,17.1656252 C22,18.3611375 22.9784444,19.3316397 24.1875,19.3316397 C25.3953889,19.3316397 26.375,18.3611375 26.375,17.1656252 C26.375,15.9693343 25.3953889,15 24.1875,15" id="Fill-65"></path>
                    <path d="M31.4389444,15.0032706 C30.7381667,13.9171491 29.7908333,12.9264038 28.6478889,12.0687959 C28.9994444,11.3357612 29.7535,10.8289045 30.625,10.8289045 C31.8301667,10.8289045 32.8125,11.8001852 32.8125,12.9945297 C32.8125,13.9027453 32.2435556,14.6828842 31.4389444,15.0032706 M17.5,27.7486541 C10.4774444,27.7486541 4.78527778,24.0503907 4.78527778,19.4917945 C4.78527778,14.9320304 10.4774444,11.2349349 17.5,11.2349349 C24.5229444,11.2349349 30.2151111,14.9320304 30.2151111,19.4917945 C30.2151111,24.0503907 24.5229444,27.7486541 17.5,27.7486541 M2.1875,12.9945297 C2.1875,11.8001852 3.16944444,10.8289045 4.375,10.8289045 C5.24688889,10.8289045 6.00172222,11.3357612 6.35094444,12.0687959 C5.20916667,12.9264038 4.26183333,13.9171491 3.56144444,15.0032706 C2.75566667,14.6828842 2.1875,13.9027453 2.1875,12.9945297 M29.5314444,2.03054124 C30.2108333,2.03054124 30.7618889,2.5747699 30.7618889,3.24863242 C30.7618889,3.92132706 30.2108333,4.46672359 29.5314444,4.46672359 C28.8520556,4.46672359 28.301,3.92132706 28.301,3.24863242 C28.301,2.5747699 28.8520556,2.03054124 29.5314444,2.03054124 M30.625,8.66289001 C28.9815556,8.66289001 27.5488889,9.56176266 26.8022222,10.8896339 C24.5528889,9.6711534 21.8131667,8.88517511 18.8288333,8.70415485 L21.4394444,2.8990492 L26.4358889,4.32735745 C26.8858333,5.59099566 28.1011111,6.49726483 29.5314444,6.49726483 C31.3440556,6.49726483 32.8125,5.0424848 32.8125,3.24863242 C32.8125,1.45361216 31.3440556,0 29.5314444,0 C28.2815556,0 27.1953889,0.690991317 26.6408333,1.70898698 L21.0719444,0.117955137 C20.4501111,-0.0599507959 19.7901667,0.243696093 19.5253333,0.829578871 L15.9802222,8.71544428 C13.0693889,8.91826483 10.3992778,9.69840376 8.19894444,10.8896339 C7.45227778,9.56176266 6.01883333,8.66289001 4.375,8.66289001 C1.95883333,8.66289001 0,10.6023372 0,12.9945297 C0,14.764246 1.07333333,16.2855948 2.61061111,16.9571216 C2.33411111,17.7699609 2.1875,18.6186151 2.1875,19.4917945 C2.1875,25.4713025 9.04283333,30.320699 17.5,30.320699 C25.9563889,30.320699 32.8125,25.4713025 32.8125,19.4917945 C32.8125,18.6186151 32.6662778,17.7699609 32.3897778,16.9579001 C33.9255,16.2855948 35,14.764246 35,12.9945297 C35,10.6023372 33.0411667,8.66289001 30.625,8.66289001" id="Fill-66"></path>
                    <path d="M13.375,17.1656252 C13.375,15.968945 12.3953889,15 11.1875,15 C9.97844444,15 9,15.968945 9,17.1656252 C9,18.3611375 9.97844444,19.3312504 11.1875,19.3312504 C12.3953889,19.3312504 13.375,18.3611375 13.375,17.1656252" id="Fill-67"></path>
                    <path d="M22.0649423,22.2756338 C21.1623312,22.979861 19.3753867,23.7385889 17.5841645,23.7385889 C15.7929423,23.7385889 14.0059978,22.979861 13.1033867,22.2756338 C12.5394978,21.8365137 11.7224423,21.9322792 11.279109,22.490133 C10.834609,23.0475976 10.9318312,23.856544 11.4937756,24.2952749 C13.0637201,25.5188161 15.4534423,26.3106338 17.5841645,26.3106338 C19.714109,26.3106338 22.1042201,25.5188161 23.6733867,24.2952749 C24.236109,23.856544 24.3337201,23.0475976 23.8903867,22.490133 C23.4447201,21.9322792 22.6288312,21.8365137 22.0649423,22.2756338" id="Fill-68"></path>
                </g>
            </g>
        </g>
    </g>
</svg>