<svg xmlns="http://www.w3.org/2000/svg" xmlns:xlink="http://www.w3.org/1999/xlink" width="20" height="20" viewBox="0 0 20 20">
    <defs>
        <path id="a" d="M0 0h20v20H0z"/>
    </defs>
    <g fill="none" fill-rule="evenodd">
        <mask id="b" fill="#fff">
            <use xlink:href="#a"/>
        </mask>
        <path fill="#000" d="M14.02 11.101l-.024-.026c-.023.01-.047.017-.068.03-1.235.722-2.47 1.444-3.701 2.173-.06.036-.108.142-.108.215-.007.977-.005 1.953-.004 2.93 0 .046.01.092.019.175l3.886-5.497m-8.041-.03l-.023.025 3.897 5.511c.01-.087.014-.112.014-.138 0-.995-.002-1.99.004-2.986 0-.13-.064-.182-.16-.238-1.195-.697-2.39-1.398-3.585-2.097-.048-.028-.098-.051-.147-.077m8.127-.878l-3.982-1.744v4.072l3.982-2.328m-8.229-.002l3.971 2.325V8.452c-1.326.58-2.627 1.15-3.97 1.74m3.968-6.783l-3.83 6.437c.071-.024.095-.03.117-.04 1.202-.525 2.403-1.053 3.607-1.575.115-.05.129-.123.129-.228-.002-1.464-.001-2.928-.002-4.392 0-.048-.01-.097-.021-.202m4.17 6.455l-3.885-6.46c-.01.068-.016.086-.016.105 0 1.51.001 3.02-.004 4.53 0 .13.07.164.163.204 1.179.515 2.357 1.033 3.537 1.549.05.022.104.037.205.072M20 9.844v.273c-.01.07-.026.14-.028.21-.053 1.706-.5 3.305-1.392 4.757-1.733 2.823-4.257 4.442-7.552 4.84-.303.037-.608.051-.912.076h-.274c-.063-.01-.127-.026-.19-.028-1.7-.054-3.296-.494-4.741-1.386C1.848 16.696.2 13.936.013 10.34a9.177 9.177 0 0 1 1.154-5.014C3.009 2.02 5.84.239 9.619.016a9.058 9.058 0 0 1 4.6.932c3.324 1.645 5.232 4.32 5.705 8.005.037.295.051.594.076.89" mask="url(#b)"/>
    </g>
</svg>
