<svg xmlns="http://www.w3.org/2000/svg" xmlns:xlink="http://www.w3.org/1999/xlink" width="60" height="60" viewBox="0 0 60 60">
    <defs>
        <rect id="a" width="60" height="60" rx="7"/>
    </defs>
    <g fill="none" fill-rule="evenodd">
        <g>
            <use fill="#FFF" xlink:href="#a"/>
            <rect width="59" height="59" x=".5" y=".5" stroke="#FFFFFF" rx="7"/>
        </g>
        <path fill="#000" d="M39.937 22.478a5.52 5.52 0 0 0 2.344-3.071 10.421 10.421 0 0 1-3.388 1.347A5.221 5.221 0 0 0 35 19c-2.945 0-5.332 2.487-5.332 5.553 0 .436.044.86.136 1.265-4.432-.232-8.362-2.44-10.994-5.803a5.716 5.716 0 0 0-.722 2.794c0 1.925.942 3.625 2.373 4.623a5.193 5.193 0 0 1-2.417-.694v.068c0 2.692 1.837 4.937 4.28 5.445-.448.13-.918.196-1.407.196-.343 0-.679-.033-1.002-.099.677 2.206 2.648 3.814 4.983 3.857a10.437 10.437 0 0 1-7.898 2.3A14.677 14.677 0 0 0 25.177 41c9.813 0 15.175-8.463 15.175-15.802 0-.241-.003-.481-.014-.718A11.06 11.06 0 0 0 43 21.604c-.957.442-1.985.74-3.063.874z"/>
    </g>
</svg>
