<?xml version="1.0" encoding="UTF-8"?>
<svg width="17px" height="18px" viewBox="0 0 17 18" version="1.1" xmlns="http://www.w3.org/2000/svg" xmlns:xlink="http://www.w3.org/1999/xlink">
    <!-- Generator: Sketch 48.2 (47327) - http://www.bohemiancoding.com/sketch -->
    <title>Icon</title>
    <desc>Created with Sketch.</desc>
    <defs></defs>
    <g id="Search-Box" stroke="none" stroke-width="1" fill="none" fill-rule="evenodd" transform="translate(-231.000000, -15.000000)">
        <g fill="#7F8E91" id="Icon">
            <path d="M234.674601,18.8907537 C232.603163,21.0840404 232.603163,24.6384452 234.674601,26.831732 C236.746038,29.0250187 240.102976,29.0250187 242.174414,26.831732 C244.245851,24.6384452 244.245851,21.0840404 242.174414,18.8907537 C240.102976,16.6974669 236.746038,16.6974669 234.674601,18.8907537 Z M246.188951,32.6715124 L242.848983,29.1339531 C239.940698,31.4361742 235.816914,31.2183055 233.17485,28.419703 C230.27505,25.3504492 230.27505,20.3731595 233.17485,17.3027826 C236.07359,14.2324058 240.775424,14.2324058 243.674164,17.3027826 C246.317288,20.100262 246.523053,24.4666209 244.348733,27.545982 L247.689762,31.0835413 C248.103413,31.5215248 248.103413,32.2324058 247.689762,32.6715124 C247.27505,33.1094959 246.603662,33.1094959 246.188951,32.6715124 Z"></path>
        </g>
    </g>
</svg>