<?xml version="1.0" encoding="UTF-8"?>
<svg width="70px" height="70px" viewBox="0 0 70 70" version="1.1" xmlns="http://www.w3.org/2000/svg" xmlns:xlink="http://www.w3.org/1999/xlink">
    <!-- Generator: Sketch 48.2 (47327) - http://www.bohemiancoding.com/sketch -->
    <title>Twitter</title>
    <desc>Created with Sketch.</desc>
    <defs></defs>
    <g id="SALT---Admin---Thank-you-support" stroke="none" stroke-width="1" fill="none" fill-rule="evenodd" transform="translate(-322.000000, -530.000000)">
        <g id="Share" transform="translate(120.000000, 530.000000)">
            <g id="Twitter" transform="translate(202.000000, 0.000000)">
                <circle id="Oval-1" fill="#55ACEE" cx="35" cy="35" r="35"></circle>
                <path d="M51.0321333,21.6131333 C50.0442444,22.2459111 47.7760667,23.1654222 46.6574667,23.1654222 L46.6574667,23.1673111 C45.3802,21.833 43.5819778,21 41.5876889,21 C37.7143333,21 34.5734889,24.1408444 34.5734889,28.0126889 C34.5734889,28.5506444 34.6358222,29.0753778 34.7510444,29.5785778 L34.7499111,29.5785778 C29.4957778,29.4406889 23.7494,26.8072 20.2900889,22.2999333 C18.1632,25.9813778 20.0037333,30.0757333 22.4173556,31.5675778 C21.5911556,31.6299111 20.0702222,31.4723778 19.3543333,30.7738667 C19.3063556,33.2173333 20.4812444,36.4548889 24.7652444,37.6294 C23.9401778,38.0732889 22.4796889,37.9459778 21.8446444,37.8515333 C22.0675333,39.9142 24.9560222,42.6107778 28.1146222,42.6107778 C26.9888444,43.9129778 22.7532,46.2748444 18,45.5234444 C21.2281111,47.4875111 24.9904,48.625 28.9725556,48.625 C40.2888889,48.625 49.0771333,39.4536889 48.6041556,28.1396222 C48.6022667,28.1271556 48.6022667,28.1146889 48.6011333,28.1010889 C48.6022667,28.072 48.6041556,28.0429111 48.6041556,28.0126889 C48.6041556,27.9775556 48.6011333,27.9443111 48.6,27.9103111 C49.6302,27.2057556 51.0124889,25.9594667 52,24.3191556 C51.4272889,24.6346 49.7091556,25.2662444 48.1104,25.4230222 C49.1364444,24.8692 50.6566222,23.0554889 51.0321333,21.6131333" id="Fill-1" fill="#FFFFFF"></path>
            </g>
        </g>
    </g>
</svg>