<?xml version="1.0" encoding="UTF-8"?>
<svg width="20px" height="20px" viewBox="0 0 20 20" version="1.1" xmlns="http://www.w3.org/2000/svg" xmlns:xlink="http://www.w3.org/1999/xlink">
    <!-- Generator: Sketch 48.2 (47327) - http://www.bohemiancoding.com/sketch -->
    <title>Shape</title>
    <desc>Created with Sketch.</desc>
    <defs></defs>
    <g id="SALT---Specific-Team--Rewards-forrm---Step-2" stroke="none" stroke-width="1" fill="none" fill-rule="evenodd" transform="translate(-1192.000000, -409.000000)">
        <g id="Edit-" transform="translate(919.000000, 391.000000)" fill="#7F8E91">
            <path d="M290.5,38 L275.5,38 C274.11875,38 273,36.88125 273,35.5 L273,20.5 C273,19.11875 274.11875,18 275.5,18 L286.0125,18 L284.96875,19.045 L283.51875,20.5 L275.5,20.5 L275.5,35.5 L290.5,35.5 L290.5,27.43375 L291.9325,26.0025 L293,24.935 L293,35.5 C293,36.88125 291.88125,38 290.5,38 Z M288.954326,25.5009641 L285.853727,28.6031989 C285.463001,28.961343 284.99413,29.227429 284.483666,29.3787576 L281.458691,30.1354002 C281.288536,30.2110645 281.089392,30.1732323 280.95831,30.0395588 C280.827227,29.9071463 280.789415,29.7078971 280.863779,29.5376525 L281.620023,26.511082 C281.771272,26.0003482 282.035957,25.5312298 282.397693,25.1390367 L285.498293,22.0368019 L287.797273,19.7391304 L291.26087,23.2020315 L288.954326,25.5009641 Z M291.980461,22.3454045 L288.652174,19.0205158 L288.985003,18.6887534 C289.578043,18.0954557 290.444608,17.8629798 291.2555,18.0797151 C292.068812,18.2976612 292.701792,18.9321265 292.919643,19.7445811 C293.137495,20.5558249 292.90512,21.4215552 292.310869,22.0160637 L291.980461,22.3478261 L291.980461,22.3454045 Z" id="Shape"></path>
        </g>
    </g>
</svg>