<?xml version="1.0" encoding="UTF-8"?>
<svg width="70px" height="70px" viewBox="0 0 70 70" version="1.1" xmlns="http://www.w3.org/2000/svg" xmlns:xlink="http://www.w3.org/1999/xlink">
    <!-- Generator: Sketch 48.2 (47327) - http://www.bohemiancoding.com/sketch -->
    <title>Google Plus</title>
    <desc>Created with Sketch.</desc>
    <defs></defs>
    <g id="SALT---Admin---Thank-you-support" stroke="none" stroke-width="1" fill="none" fill-rule="evenodd" transform="translate(-422.000000, -530.000000)">
        <g id="Share" transform="translate(120.000000, 530.000000)">
            <g id="Google-Plus" transform="translate(302.000000, 0.000000)">
                <circle id="Oval-1-Copy-6" fill="#DD4B39" cx="35" cy="35" r="35"></circle>
                <path d="M17.0303611,34.866471 C17.12875,28.9737749 22.5405278,23.8129457 28.4271389,24.0095376 C31.2473611,23.8787358 33.8988056,25.1073379 36.0590834,26.8330644 C35.1374167,27.8814247 34.1826945,28.8920238 33.16225,29.8368328 C30.5656389,28.0398661 26.8719723,27.5267807 24.2753611,29.6020904 C20.5599167,32.1741353 20.3911389,38.247073 23.96425,41.0157098 C27.4393611,44.1724696 34.0080834,42.6047952 34.96825,37.7717489 C32.79125,37.7390484 30.6091945,37.7717489 28.4325834,37.7008979 C28.4271389,36.4010557 28.4216945,35.1012134 28.4271389,33.8013712 C32.0659723,33.790471 35.7048056,33.7850209 39.3490834,33.8122713 C39.56725,36.8705405 39.1635834,40.1254016 37.2868056,42.6542351 C34.4444167,46.6573133 28.7378611,47.8259645 24.28625,46.1111382 C19.8183056,44.407212 16.6539167,39.6831671 17.0303611,34.866471" id="Fill-186" fill="#FFFFFF"></path>
                <path d="M47.2896111,31 L50.5356667,31 C50.5411111,32.0869001 50.5465556,33.1788611 50.5574444,34.2657612 C51.6432222,34.2766614 52.7340556,34.2766614 53.8198333,34.2875615 L53.8198333,37.5369725 C52.7340556,37.5478726 51.6486667,37.5533227 50.5574444,37.5642229 C50.5465556,38.6565731 50.5411111,39.7434732 50.5356667,40.8299841 L47.2841667,40.8299841 C47.2732778,39.7434732 47.2732778,38.6565731 47.2623889,37.5696729 C46.1766111,37.5587728 45.0853889,37.5478726 44,37.5369725 L44,34.2875615 C45.0853889,34.2766614 46.1711667,34.2712113 47.2623889,34.2657612 C47.2678333,33.173411 47.2787222,32.0869001 47.2896111,31" id="Fill-187" fill="#FFFFFF"></path>
            </g>
        </g>
    </g>
</svg>