<svg xmlns="http://www.w3.org/2000/svg" width="80" height="80" viewBox="0 0 80 80">
    <g fill="none" fill-rule="nonzero" transform="translate(-25 -83)">
        <circle cx="64.898" cy="122.898" r="35.696" fill="#FFF"/>
        <path fill="#3CF" d="M64.983 83C42.907 83 25 100.907 25 122.983c0 22.076 17.907 39.983 39.983 39.983 22.076 0 39.983-17.907 39.983-39.983C104.966 100.907 87.059 83 64.983 83zm-18.88 61.066c-2.378-2.63-4.19-5.729-5.457-9.295-1.266-3.565-1.89-7.404-1.89-11.515 0-4.229.624-8.145 1.89-11.75 1.091-3.117 2.592-5.884 4.501-8.32l.234-.292c.234-.292.468-.565.702-.838.292-.331.604-.662.915-.994l.059-.058c.253-.253.526-.507.78-.76.077-.078.155-.136.233-.214.195-.176.39-.351.585-.507.097-.078.175-.156.272-.234l.585-.467c.097-.078.195-.137.292-.215l.234-.175h.02a25.104 25.104 0 0 1 4.754-2.708c3.449-1.52 7.346-2.3 11.671-2.3 3.118 0 6.06.449 8.827 1.345 2.767.896 5.241 2.202 7.443 3.916a20.456 20.456 0 0 1 2.962 2.845 21.848 21.848 0 0 1 2.455 3.527c1.422 2.533 2.319 5.436 2.689 8.71h-6.625c-2.786 0-5.339-1.5-6.8-3.878 0-.02-.02-.02-.02-.039a12.387 12.387 0 0 0-2.767-3.117 12.91 12.91 0 0 0-3.76-2.105 12.606 12.606 0 0 0-3.995-.74h-.39c-2.805 0-5.163.545-7.111 1.617a13.58 13.58 0 0 0-4.755 4.345l-.409.643a5.21 5.21 0 0 0-.253.448c-.039.059-.078.117-.097.176-.117.194-.215.39-.312.604 0 .02-.02.02-.02.039a6.896 6.896 0 0 0-.311.662 21.091 21.091 0 0 0-1.247 3.644 31.293 31.293 0 0 0-.838 7.19c0 2.377.272 4.676.838 6.917.545 2.24 1.441 4.267 2.65 6.06a13.326 13.326 0 0 0 4.754 4.306c1.948 1.09 4.325 1.617 7.112 1.617h.487a29.417 29.417 0 0 1-16.835 5.514 24.61 24.61 0 0 1-4.053-3.604zm42.788-4.989c-1.325 2.845-3.06 5.28-5.222 7.288-2.163 2.007-4.696 3.527-7.6 4.579-2.65.954-5.533 1.48-8.67 1.558-.292 0-.604.02-.916.02h-.175c-2.942-.02-5.67-.37-8.203-1.091a29.685 29.685 0 0 0 15.51-10.853c.39-.448.799-.897 1.208-1.325.195-.176.39-.37.565-.565 0-.02.02-.02.02-.04a35.313 35.313 0 0 1 2.747-2.376 29.419 29.419 0 0 1 13.035-5.632c-.35 3.099-1.11 5.904-2.3 8.437z"/>
    </g>
</svg>
