<?xml version="1.0" encoding="UTF-8"?>
<svg width="9px" height="12px" viewBox="0 0 9 12" version="1.1" xmlns="http://www.w3.org/2000/svg" xmlns:xlink="http://www.w3.org/1999/xlink">
    <!-- Generator: Sketch 48.2 (47327) - http://www.bohemiancoding.com/sketch -->
    <title>Shape</title>
    <desc>Created with Sketch.</desc>
    <defs></defs>
    <g id="SALT---Admin---General" stroke="none" stroke-width="1" fill="none" fill-rule="evenodd" transform="translate(-434.000000, -346.000000)">
        <g id="Menu" transform="translate(120.000000, 344.000000)" fill="#3A5B6E">
            <path d="M317.375004,10.3437401 C317.375004,9.72241986 317.878683,9.2187408 318.500003,9.2187408 C319.121323,9.2187408 319.625002,9.72241986 319.625002,10.3437401 C319.625002,10.7601473 319.398766,11.1237162 319.062502,11.3182342 L319.062502,11.7505236 C319.062502,12.0608884 318.812829,12.3124889 318.500003,12.3124889 C318.189343,12.3124889 317.937503,12.063103 317.937503,11.7505236 L317.937503,11.3182342 C317.601241,11.1237165 317.375004,10.7601473 317.375004,10.3437401 Z M315.125005,6.12507711 C315.125005,4.26096452 316.635806,2.74999484 318.500003,2.74999484 C320.363618,2.74999484 321.875001,4.26186734 321.875001,6.12513336 L321.875001,7.53123904 C322.496431,7.53188319 323,8.03384935 323,8.6580074 L323,12.873211 C323,13.49551 322.496836,13.9999794 321.873803,13.9999794 L315.126197,13.9999794 C314.504216,13.9999794 314,13.4977713 314,12.873211 L314,8.6580074 C314,8.03610779 314.50252,7.53188311 315.124999,7.53123904 L315.124999,6.12507711 L315.125005,6.12507711 Z M316.250004,7.53123623 L320.750001,7.53123623 L320.750001,6.12513055 C320.750001,4.88310039 319.742216,3.87498852 318.500003,3.87498852 C317.257154,3.87498852 316.250004,4.88225382 316.250004,6.12507711 L316.250004,7.53123623 Z M315.125005,8.65623553 L315.125005,12.8749829 L321.875001,12.8749829 L321.875001,8.65623553 L315.125005,8.65623553 Z" id="Shape"></path>
        </g>
    </g>
</svg>